<?xml version="1.0" standalone="no"?>
<!DOCTYPE svg PUBLIC "-//W3C//DTD SVG 1.1//EN" "http://www.w3.org/Graphics/SVG/1.1/DTD/svg11.dtd" >
<svg xmlns="http://www.w3.org/2000/svg" xmlns:xlink="http://www.w3.org/1999/xlink" version="1.1">
<metadata>
Created by FontForge 20190801 at Tue Apr 21 04:23:07 2020
 By Jimmy Wärting
</metadata>
<defs>
<font id="Sarasa-Mono-SC-Regular" horiz-adv-x="1000" >
  <font-face 
    font-family="Sarasa Mono SC"
    font-weight="400"
    font-stretch="normal"
    units-per-em="1000"
    panose-1="2 0 5 9 0 0 0 0 0 0"
    ascent="800"
    descent="-200"
    x-height="530"
    cap-height="735"
    bbox="-313 -213 981 878"
    underline-thickness="50"
    underline-position="-75"
    unicode-range="U+0020-FF1F"
  />
<missing-glyph horiz-adv-x="500" 
d="M60 0v735h380v-735h-380zM94 334l294 367h-94l-200 -250v-117zM94 490l169 211h-94l-75 -94v-117zM94 646l44 55h-44v-55zM94 177l312 390v117l-312 -390v-117zM94 34h11l301 376v117l-312 -389v-104zM136 34h94l176 220v117zM261 34h94l51 64v117zM386 34h20v25z" />
    <glyph glyph-name=".notdef" horiz-adv-x="500" 
d="M60 0v735h380v-735h-380zM94 334l294 367h-94l-200 -250v-117zM94 490l169 211h-94l-75 -94v-117zM94 646l44 55h-44v-55zM94 177l312 390v117l-312 -390v-117zM94 34h11l301 376v117l-312 -389v-104zM136 34h94l176 220v117zM261 34h94l51 64v117zM386 34h20v25z" />
    <glyph glyph-name="space" unicode=" " horiz-adv-x="500" 
 />
    <glyph glyph-name="exclam" unicode="!" horiz-adv-x="500" 
d="M210 260v475h80v-475h-80zM250 -8q-19 0 -36.5 8t-25.5 26t-8 36.5t8 36.5t25.5 26t36.5 8t36.5 -8t26 -26t8.5 -36.5t-8.5 -36.5t-26 -26t-36.5 -8z" />
    <glyph glyph-name="quotedbl" unicode="&#x22;" horiz-adv-x="500" 
d="M112 451q-6 160 -6 321h88q0 -161 -6 -321h-76zM312 451q-6 160 -6 321h88q0 -161 -6 -321h-76z" />
    <glyph glyph-name="numbersign" unicode="#" horiz-adv-x="500" 
d="M112 -71v211h-88v72h88v256h-88v72h88v211h80v-211h116v211h80v-211h88v-72h-88v-256h88v-72h-88v-211h-80v211h-116v-211h-80zM192 212h116v256h-116v-256z" />
    <glyph glyph-name="dollar" unicode="$" horiz-adv-x="500" 
d="M210 -103v134q-41 5 -77.5 27t-55.5 60.5t-19 80.5v3h80v-2q0 -22 8.5 -42.5t26.5 -34t39 -18.5v236q-41 13 -76.5 39t-55.5 65.5t-20 82t18 82.5t54 64t78 30v134h80v-134q41 -5 77.5 -27t55.5 -60.5t19 -80.5v-3h-80v2q0 22 -8.5 42.5t-26.5 34t-39 18.5v-236
q41 -13 76.5 -39t55.5 -65.5t20 -82t-18 -82.5t-54 -64t-78 -30v-134h-80zM212 420v210q-21 -6 -38.5 -21t-26 -36t-8.5 -43q0 -35 21 -64.5t52 -45.5zM288 105q21 6 38.5 21t26 36t8.5 43q0 35 -21 64.5t-52 45.5v-210z" />
    <glyph glyph-name="percent" unicode="%" horiz-adv-x="500" 
d="M140 360q-22 0 -44.5 5t-40 20t-25.5 36.5t-8 43.5v173q0 22 8 43.5t25.5 36t40 20t44.5 5.5t44.5 -5.5t40 -20t25.5 -36t8 -43.5v-173q0 -22 -8 -43.5t-25.5 -36.5t-40 -20t-44.5 -5zM288 431l84 304h98l-104 -304h-78zM360 -8q-22 0 -44.5 5.5t-40 20t-25.5 36t-8 44.5
v172q0 22 8 43.5t25.5 36.5t40 20.5t44.5 5.5t44.5 -5.5t40 -20.5t25.5 -36.5t8 -43.5v-172q0 -23 -8 -44.5t-25.5 -36t-40 -20t-44.5 -5.5zM30 0l104 304h78l-84 -304h-98zM140 428q42 0 42 37v173q0 36 -42 36t-42 -36v-173q0 -37 42 -37zM360 61q42 0 42 37v172
q0 37 -42 37t-42 -37v-172q0 -37 42 -37z" />
    <glyph glyph-name="ampersand" unicode="&#x26;" horiz-adv-x="500" 
d="M250 -8q-39 0 -77 11.5t-66.5 39.5t-41.5 65.5t-13 77.5q0 104 101 190q-74 106 -74 204q0 32 9.5 63t31.5 55.5t53 34.5t63 10t62.5 -10t52.5 -34t32 -54.5t10 -62.5q0 -44 -18.5 -84.5t-49.5 -71.5t-66 -58q26 -33 54 -63.5t55 -62.5v126h80v-173q0 -35 -5 -59
q35 -67 35 -136h-80q0 22 -4 43q-52 -51 -144 -51zM216 427q25 19 47 42t36 52t14 61q0 22 -8 43.5t-27.5 33.5t-41.5 12q-23 0 -42.5 -12.5t-27 -34.5t-7.5 -44q0 -66 57 -153zM250 64q82 0 108 70q-21 35 -48 65.5t-55.5 59.5t-55.5 60q-67 -62 -67 -134q0 -24 7.5 -47
t24 -41t39.5 -25.5t47 -7.5z" />
    <glyph glyph-name="quotesingle" unicode="'" horiz-adv-x="500" 
d="M212 451q-6 160 -6 321h88q0 -161 -6 -321h-76z" />
    <glyph glyph-name="parenleft" unicode="(" horiz-adv-x="500" 
d="M402 -161q-88 47 -151 127t-89 177t-26 197t26 197t89 177t151 127l38 -63q-75 -43 -128 -113t-74.5 -154.5t-21.5 -170.5t21.5 -170.5t74.5 -154.5t128 -113z" />
    <glyph glyph-name="parenright" unicode=")" horiz-adv-x="500" 
d="M98 -161l-38 63q75 43 128 113t74.5 154.5t21.5 170.5t-21.5 170.5t-74.5 154.5t-128 113l38 63q88 -47 151 -127t89 -177t26 -197t-26 -197t-89 -177t-151 -127z" />
    <glyph glyph-name="asterisk" unicode="*" horiz-adv-x="500" 
d="M159 369l-65 43l105 133l-161 46l25 69l153 -56l-6 167h80l-6 -167l153 56l25 -69l-161 -46l105 -133l-65 -43l-91 136z" />
    <glyph glyph-name="plus" unicode="+" horiz-adv-x="500" 
d="M210 142v162h-150v72h150v162h80v-162h150v-72h-150v-162h-80z" />
    <glyph glyph-name="comma" unicode="," horiz-adv-x="500" 
d="M229 -205l-63 41q56 78 75 156q-19 2 -36.5 12t-25 28.5t-7.5 37.5q0 21 9 40.5t28.5 28.5t40.5 9t40.5 -9t28.5 -28.5t9 -40.5v-5q-2 -135 -99 -270z" />
    <glyph glyph-name="hyphen" unicode="-" horiz-adv-x="500" 
d="M60 304v72h380v-72h-380z" />
    <glyph glyph-name="period" unicode="." horiz-adv-x="500" 
d="M250 -8q-21 0 -40.5 9t-28.5 28.5t-9 40.5t9 40.5t28.5 28.5t40.5 9t40.5 -9t28.5 -28.5t9 -40.5t-9 -40.5t-28.5 -28.5t-40.5 -9z" />
    <glyph glyph-name="slash" unicode="/" horiz-adv-x="500" 
d="M55 -143l308 966h82l-308 -966h-82z" />
    <glyph glyph-name="zero" unicode="0" horiz-adv-x="500" 
d="M250 -8q-41 0 -80.5 13t-67.5 43.5t-39 70.5t-11 81v335q0 41 11 81t39 70.5t67.5 43.5t80.5 13t80.5 -13t67.5 -43.5t39 -70.5t11 -81v-335q0 -41 -11 -81t-39 -70.5t-67.5 -43.5t-80.5 -13zM250 64q26 0 50 9.5t40 30t22 45.5t6 51v213l-236 -187v-26q0 -26 6 -51
t22 -45.5t40 -30t50 -9.5zM132 322l236 187v26q0 26 -6 51t-22 45.5t-40 30t-50 9.5t-50 -9.5t-40 -30t-22 -45.5t-6 -51v-213z" />
    <glyph glyph-name="one" unicode="1" horiz-adv-x="500" 
d="M240 0v645l-137 -95l-45 60l182 125h80v-735h-80z" />
    <glyph glyph-name="two" unicode="2" horiz-adv-x="500" 
d="M60 0v1q0 47 5 93.5t23.5 89.5t48.5 79t67 64.5t75 56t61.5 69t23.5 88.5q0 25 -5.5 49t-21 43.5t-39 28.5t-47.5 9q-29 0 -56.5 -11.5t-42 -38t-14.5 -55.5h-80q0 37 14 72t42 60t64 35t73 10q39 0 77.5 -12.5t66 -42.5t38.5 -68.5t11 -78.5q0 -48 -19 -93.5t-54 -79
t-74.5 -61.5t-73.5 -63t-54.5 -79.5t-25.5 -92.5h297v-72h-380z" />
    <glyph glyph-name="three" unicode="3" horiz-adv-x="500" 
d="M252 -8q-38 0 -75.5 10t-67 35t-44.5 61t-15 75h80q0 -31 16.5 -58.5t46 -39t59.5 -11.5q26 0 50 8.5t41.5 27.5t25 43.5t7.5 50.5q0 35 -15.5 68.5t-45 54.5t-65 27t-71.5 6v72q33 0 65 5t59 23t42 48t15 62q0 22 -6.5 43t-21.5 37.5t-36 23.5t-43 7q-28 0 -54 -11.5
t-39.5 -37t-13.5 -52.5v-2h-80v3q0 36 13.5 70t40.5 58.5t62 34t71 9.5q37 0 72.5 -11t62.5 -37.5t39.5 -61.5t12.5 -72.5t-14.5 -73t-42.5 -61.5t-64 -39q40 -15 72 -43.5t48.5 -68.5t16.5 -83q0 -40 -13.5 -78.5t-42.5 -68t-68 -41.5t-80 -12z" />
    <glyph glyph-name="four" unicode="4" horiz-adv-x="500" 
d="M294 0v222h-242v72l222 441h100v-441h66v-72h-66v-222h-80zM140 294h154v304z" />
    <glyph glyph-name="five" unicode="5" horiz-adv-x="500" 
d="M251 -8q-38 0 -75 12t-64 40.5t-40 65t-14 74.5h80q1 -23 8 -45.5t22.5 -40.5t37.5 -26t45 -8q29 0 55 15.5t39.5 42t18 55.5t4.5 58t-4.5 58t-17 55.5t-38 42t-54.5 15.5q-27 0 -52.5 -12t-39 -37t-14.5 -53h-80v431h353v-72h-273v-211q43 26 106 26q36 0 69.5 -11
t59 -36.5t40 -57.5t20 -67t5.5 -70.5t-5.5 -71t-20.5 -68t-41 -57.5t-60 -36t-70 -11z" />
    <glyph glyph-name="six" unicode="6" horiz-adv-x="500" 
d="M250 -8q-36 0 -71 11.5t-60.5 38t-40.5 59.5t-20.5 69t-5.5 72q0 80 13.5 159t51 150t103 120t143.5 64l15 -71q-57 -13 -105.5 -48.5t-78 -87.5t-43.5 -109q40 30 101 30q43 0 83 -16.5t66.5 -51t36.5 -76.5t10 -85q0 -34 -6 -68t-22 -64.5t-42.5 -53.5t-60 -32.5
t-67.5 -9.5zM250 64q28 0 53 12.5t40 37t20 52t5 55t-5 55t-19.5 51.5t-40 37t-53.5 13q-26 0 -50.5 -11.5t-39.5 -34t-21 -48.5t-7 -52v-4q1 -28 6.5 -55.5t19.5 -53t39 -40t53 -14.5z" />
    <glyph glyph-name="seven" unicode="7" horiz-adv-x="500" 
d="M124 0l231 663h-295v72h380v-72l-231 -663h-85z" />
    <glyph glyph-name="eight" unicode="8" horiz-adv-x="500" 
d="M250 -8q-38 0 -74.5 9.5t-66 34.5t-43.5 61t-14 74q0 42 18 82t49 70t66 54q-117 85 -117 194q0 36 12.5 69.5t39 58.5t61 34.5t69.5 9.5t69.5 -9.5t61 -34.5t39 -58.5t12.5 -69.5q0 -109 -117 -194q35 -24 66 -54t49 -70t18 -82q0 -38 -14 -74t-43.5 -61t-66 -34.5
t-74.5 -9.5zM250 64q30 0 58.5 11t44 38.5t15.5 57.5q0 35 -17.5 66.5t-44.5 54t-56 41.5l-2 -1q-29 -19 -55.5 -41.5t-43.5 -53.5t-17 -66q0 -30 15.5 -57.5t44 -38.5t58.5 -11zM250 419q102 70 102 152q0 27 -12 52t-37.5 36.5t-52.5 11.5t-52.5 -11.5t-37.5 -36.5
t-12 -52q0 -81 100 -150z" />
    <glyph glyph-name="nine" unicode="9" horiz-adv-x="500" 
d="M252 -8q-37 0 -73.5 10t-64.5 35.5t-42 61t-14 73.5h80q0 -30 14.5 -57t42.5 -39t57 -12q26 0 50 9.5t39.5 30.5t21 46t5.5 50v125l-1 -2q-42 -55 -120 -55q-40 0 -79 13.5t-66.5 44.5t-38.5 70.5t-11 79.5v59q0 41 11 80.5t39 70.5t67 44t80 13q35 0 69 -10t60.5 -34.5
t42 -56t21.5 -66.5t6 -70v-306q0 -32 -6.5 -64.5t-23.5 -60.5t-43 -47.5t-58 -27.5t-65 -8zM249 340q26 0 50.5 9.5t40.5 30t22 46t6 50.5v31q0 23 -3 45.5t-11.5 44t-23.5 39.5t-36.5 26.5t-44.5 8.5q-26 0 -50 -9.5t-39.5 -30.5t-21.5 -46t-6 -50v-59q0 -25 6 -50
t21.5 -46t40 -30.5t49.5 -9.5z" />
    <glyph glyph-name="colon" unicode=":" horiz-adv-x="500" 
d="M250 -8q-21 0 -40.5 9t-28.5 28.5t-9 40.5t9 40.5t28.5 28.5t40.5 9t40.5 -9t28.5 -28.5t9 -40.5t-9 -40.5t-28.5 -28.5t-40.5 -9zM250 382q-21 0 -40.5 9t-28.5 28.5t-9 40.5t9 40.5t28.5 28.5t40.5 9t40.5 -9t28.5 -28.5t9 -40.5t-9 -40.5t-28.5 -28.5t-40.5 -9z" />
    <glyph glyph-name="semicolon" unicode=";" horiz-adv-x="500" 
d="M229 -205l-63 41q56 78 75 156q-19 2 -36.5 12t-25 28.5t-7.5 37.5q0 21 9 40.5t28.5 28.5t40.5 9t40.5 -9t28.5 -28.5t9 -40.5v-5q-2 -135 -99 -270zM250 382q-21 0 -40.5 9t-28.5 28.5t-9 40.5t9 40.5t28.5 28.5t40.5 9t40.5 -9t28.5 -28.5t9 -40.5t-9 -40.5
t-28.5 -28.5t-40.5 -9z" />
    <glyph glyph-name="less" unicode="&#x3c;" horiz-adv-x="500" 
d="M422 121l-362 179v80l362 179l36 -64l-316 -155l316 -155zM458 185z" />
    <glyph glyph-name="equal" unicode="=" horiz-adv-x="500" 
d="M60 395v72h380v-72h-380zM60 213v72h380v-72h-380z" />
    <glyph glyph-name="greater" unicode="&#x3e;" horiz-adv-x="500" 
d="M78 121l-36 64l316 155l-316 155l36 64l362 -179v-80zM42 495z" />
    <glyph glyph-name="question" unicode="?" horiz-adv-x="500" 
d="M290 221h-80q0 39 7.5 77.5t29 71.5t47.5 62t46 63.5t20 73.5q0 29 -14.5 54.5t-41.5 36.5t-55 11t-54.5 -10t-41.5 -35t-15 -53v-3h-80v5q0 36 14 69.5t42.5 57t63.5 32.5t71 9t72 -9.5t64 -34t41.5 -59.5t13.5 -71q0 -33 -10 -64t-27 -58.5t-37.5 -53t-40.5 -51.5
t-27.5 -57.5t-7.5 -63.5zM250 -8q-19 0 -36.5 8t-25.5 26t-8 36.5t8 36.5t25.5 26t36.5 8t36.5 -8t26 -26t8.5 -36.5t-8.5 -36.5t-26 -26t-36.5 -8z" />
    <glyph glyph-name="at" unicode="@" horiz-adv-x="500" 
d="M250 -79q-40 0 -78 12.5t-64.5 43t-37 69t-10.5 78.5v432q0 40 10.5 78.5t37 69t64.5 43t78 12.5t78 -12.5t64.5 -43t37 -69t10.5 -78.5v-331q0 -26 -5 -51t-20 -46.5t-38.5 -32t-49.5 -10.5t-50.5 10t-41 31t-22.5 47t-6 52v189q0 26 6 52t22.5 47t41.5 31t51 10h32v2
q0 25 -5.5 48.5t-20 44t-37.5 29.5t-47 9t-47 -9t-37.5 -29.5t-20 -44t-5.5 -48.5v-432q0 -25 5.5 -48.5t20 -44t37.5 -29.5t47 -9h154v-72h-154zM327 157q33 0 33 68v257h-32q-41 0 -41 -68v-189q0 -15 2.5 -29.5t12.5 -26.5t25 -12z" />
    <glyph glyph-name="A" unicode="A" horiz-adv-x="500" 
d="M52 0l152 735h92l152 -735h-81l-40 193h-154l-40 -193h-81zM188 265h124l-18 88q-34 159 -44 273v-4q-11 -113 -44 -269z" />
    <glyph glyph-name="B" unicode="B" horiz-adv-x="500" 
d="M60 0v735h175q39 0 76 -11.5t65 -40t39 -65.5t11 -76q0 -114 -88 -157q118 -43 118 -177q0 -43 -14 -84.5t-47 -71t-75 -41t-85 -11.5h-175zM140 418h95q24 0 46.5 8t37.5 26.5t21 41.5t6 46.5t-6 46.5t-21.5 41.5t-37.5 26.5t-46 8h-95v-245zM140 72h95q28 0 55 8
t48 27.5t29.5 46.5t8.5 55t-8.5 55t-29 47t-48 27.5t-55.5 7.5h-95v-274z" />
    <glyph glyph-name="C" unicode="C" horiz-adv-x="500" 
d="M248 -8q-33 0 -64.5 7.5t-57.5 26.5t-43.5 46.5t-24 59t-6.5 63.5v345q0 32 6.5 63.5t24 59t43.5 46.5t57.5 26.5t64.5 7.5q37 0 73 -10t64.5 -35t42.5 -60t14 -73l-80 1q0 29 -15 55.5t-42.5 38t-56.5 11.5q-25 0 -49 -9t-39.5 -29t-21.5 -44t-6 -49v-345q0 -25 6 -49
t21.5 -44t39.5 -29t49 -9q29 0 56.5 11.5t42.5 38t15 56.5l80 -1q0 -37 -14 -72t-42.5 -60t-64.5 -35t-73 -10z" />
    <glyph glyph-name="D" unicode="D" horiz-adv-x="500" 
d="M60 0v735h166q39 0 77 -11.5t67.5 -38t47 -62t24 -74t6.5 -77.5v-209q0 -39 -6.5 -77.5t-24 -74t-47 -62t-67.5 -38t-77 -11.5h-166zM140 72h86q26 0 52 9.5t44 30t28.5 46t14 52t3.5 53.5v209q0 27 -3.5 53.5t-14 52t-28.5 46t-44 30t-52 9.5h-86v-591z" />
    <glyph glyph-name="E" unicode="E" horiz-adv-x="500" 
d="M90 0v735h350v-72h-270v-230h213v-72h-213v-289h270v-72h-350z" />
    <glyph glyph-name="F" unicode="F" horiz-adv-x="500" 
d="M90 0v735h350v-72h-270v-230h213v-72h-213v-361h-80z" />
    <glyph glyph-name="G" unicode="G" horiz-adv-x="500" 
d="M220 -8q-38 0 -73 15t-57 46t-30 68t-8 74v345q0 32 6.5 63.5t24 59t43.5 46.5t57.5 26.5t64.5 7.5q37 0 73 -10t64.5 -35t42.5 -60t14 -73l-80 1q0 29 -15 55.5t-42.5 38t-56.5 11.5q-25 0 -49 -9t-39.5 -29t-21.5 -44t-6 -49v-345q0 -25 6 -49.5t22.5 -44.5t40.5 -28.5
t49 -8.5q24 0 47 9.5t37.5 29.5t20 44t5.5 48v133h-110v72h190v-400h-70v112q-7 -25 -20 -48t-33.5 -40t-45.5 -24.5t-51 -7.5z" />
    <glyph glyph-name="H" unicode="H" horiz-adv-x="500" 
d="M60 0v735h80v-313h220v313h80v-735h-80v350h-220v-350h-80z" />
    <glyph glyph-name="I" unicode="I" horiz-adv-x="500" 
d="M75 0v72h135v591h-135v72h350v-72h-135v-591h135v-72h-350z" />
    <glyph glyph-name="J" unicode="J" horiz-adv-x="500" 
d="M228 -8q-36 0 -71 10.5t-62 36t-39.5 60.5t-12.5 71h80q0 -28 12.5 -54.5t38.5 -39t54 -12.5q24 0 46.5 10t36.5 30t19 43.5t5 47.5v468h-135v72h215v-540q0 -31 -6 -62t-22 -58.5t-41 -47t-55.5 -27.5t-62.5 -8z" />
    <glyph glyph-name="K" unicode="K" horiz-adv-x="500" 
d="M76 0v735h80v-335l203 335h91l-202 -333l202 -402h-88l-162 323l-44 -73v-250h-80z" />
    <glyph glyph-name="L" unicode="L" horiz-adv-x="500" 
d="M90 0v735h80v-663h278v-72h-358z" />
    <glyph glyph-name="M" unicode="M" horiz-adv-x="500" 
d="M47 0v735h89l114 -406l114 406h89v-735h-80v147q0 135 9 289v10q6 85 8 163l-110 -388h-60l-110 388q2 -78 8 -163v-10q9 -154 9 -289v-147h-80z" />
    <glyph glyph-name="N" unicode="N" horiz-adv-x="500" 
d="M60 0v735h111l192 -601q-3 271 -3 307v294h80v-735h-111l-192 601q3 -271 3 -307v-294h-80z" />
    <glyph glyph-name="O" unicode="O" horiz-adv-x="500" 
d="M250 -8q-40 0 -79 12.5t-67.5 42t-40 69t-11.5 79.5v345q0 40 11.5 79.5t40 69t67.5 42t79 12.5t79 -12.5t67.5 -42t40 -69t11.5 -79.5v-345q0 -40 -11.5 -79.5t-40 -69t-67.5 -42t-79 -12.5zM250 64q25 0 49 8.5t40.5 28.5t22.5 44.5t6 49.5v345q0 25 -6 49.5
t-22.5 44.5t-40.5 28.5t-49 8.5t-49 -8.5t-40.5 -28.5t-22.5 -44.5t-6 -49.5v-345q0 -25 6 -49.5t22.5 -44.5t40.5 -28.5t49 -8.5z" />
    <glyph glyph-name="P" unicode="P" horiz-adv-x="500" 
d="M75 0v735h175q42 0 82.5 -13t70 -44t41.5 -71.5t12 -82.5t-12 -83t-41.5 -72t-70 -44t-82.5 -13h-95v-312h-80zM155 384h95q26 0 52 9t43.5 30t24 47.5t6.5 53t-6.5 53t-24 47.5t-43.5 30t-52 9h-95v-279z" />
    <glyph glyph-name="Q" unicode="Q" horiz-adv-x="500" 
d="M377 -155q-31 0 -61 8t-54 28t-35.5 49.5t-12.5 59.5v4q-36 4 -68.5 20.5t-54.5 45.5t-30.5 64t-8.5 71v345q0 40 11.5 79.5t40 69t67.5 42t79 12.5t79 -12.5t67.5 -42t40 -69t11.5 -79.5v-345q0 -35 -8 -69t-29 -62.5t-52 -46t-65 -22.5q0 -21 10.5 -41t31 -28.5
t41.5 -8.5h43v-72h-43zM250 64q25 0 49 8.5t40.5 28.5t22.5 44.5t6 49.5v345q0 25 -6 49.5t-22.5 44.5t-40.5 28.5t-49 8.5t-49 -8.5t-40.5 -28.5t-22.5 -44.5t-6 -49.5v-345q0 -25 6 -49.5t22.5 -44.5t40.5 -28.5t49 -8.5z" />
    <glyph glyph-name="R" unicode="R" horiz-adv-x="500" 
d="M60 0v735h190q41 0 80.5 -13.5t67.5 -45t39 -71.5t11 -81q0 -34 -7 -67.5t-24.5 -62.5t-46 -48.5t-61.5 -27.5l159 -318h-88l-156 312h-84v-312h-80zM140 384h110q26 0 50.5 10t40 31.5t21.5 47t6 51.5t-6 51.5t-21.5 46.5t-40 31t-50.5 10h-110v-279z" />
    <glyph glyph-name="S" unicode="S" horiz-adv-x="500" 
d="M248 -8q-36 0 -72 10t-63.5 35.5t-41 61t-13.5 72.5l80 -1q0 -28 14 -55t41 -39t55 -12q23 0 45.5 8t37.5 25.5t22.5 40t7.5 45.5q0 42 -27 76.5t-65 53.5t-75 39.5t-68 49.5t-48.5 68t-17.5 81q0 38 12.5 75t39.5 65t64 40t76 12q36 0 72 -10t63.5 -35.5t41 -61
t13.5 -72.5l-80 1q0 28 -14 55t-41 39t-55 12q-23 0 -45.5 -8t-37.5 -25.5t-22.5 -40t-7.5 -45.5q0 -42 27 -76.5t65 -53.5t75 -39.5t68 -49.5t48.5 -68t17.5 -81q0 -38 -12.5 -75t-39.5 -65t-64 -40t-76 -12z" />
    <glyph glyph-name="T" unicode="T" horiz-adv-x="500" 
d="M210 0v663h-162v72h404v-72h-162v-663h-80z" />
    <glyph glyph-name="U" unicode="U" horiz-adv-x="500" 
d="M250 -8q-40 0 -78 13t-64.5 43t-37 68.5t-10.5 78.5v540h80v-540q0 -24 5.5 -48t20 -44t37.5 -29.5t47 -9.5t47 9.5t37.5 29.5t20 44t5.5 48v540h80v-540q0 -40 -10.5 -78.5t-37 -68.5t-64.5 -43t-78 -13z" />
    <glyph glyph-name="V" unicode="V" horiz-adv-x="500" 
d="M204 0l-152 735h81l73 -353q34 -159 44 -273v4q11 113 44 269l73 353h81l-152 -735h-92z" />
    <glyph glyph-name="W" unicode="W" horiz-adv-x="500" 
d="M116 0l-85 735h80l47 -569l52 496h80l52 -496l47 569h80l-85 -735h-80l-54 514l-54 -514h-80z" />
    <glyph glyph-name="X" unicode="X" horiz-adv-x="500" 
d="M43 0l164 368l-164 367h82l125 -273l125 273h82l-164 -367l164 -368h-82l-125 273l-125 -273h-82z" />
    <glyph glyph-name="Y" unicode="Y" horiz-adv-x="500" 
d="M210 0v288l-170 447h82l128 -332l128 332h82l-170 -447v-288h-80z" />
    <glyph glyph-name="Z" unicode="Z" horiz-adv-x="500" 
d="M60 0v72l288 591h-288v72h380v-72l-288 -591h288v-72h-380z" />
    <glyph glyph-name="bracketleft" unicode="[" horiz-adv-x="500" 
d="M98 -143v966h323v-72h-243v-822h243v-72h-323z" />
    <glyph glyph-name="bracketright" unicode="]" horiz-adv-x="500" 
d="M79 -143v72h243v822h-243v72h323v-966h-323z" />
    <glyph glyph-name="asciicircum" unicode="^" horiz-adv-x="500" 
d="M121 538l-67 46l154 194h84l154 -194l-67 -46l-129 181z" />
    <glyph glyph-name="underscore" unicode="_" horiz-adv-x="500" 
d="M60 0v72h380v-72h-380z" />
    <glyph glyph-name="a" unicode="a" horiz-adv-x="500" 
d="M201 -8q-30 0 -60 9.5t-51 33t-29.5 53.5t-8.5 61t10 61t33 51.5t52 34t60 17t62 4.5h91v46q0 22 -7 42.5t-23.5 35t-37.5 20t-43 5.5q-26 0 -51.5 -7.5t-42 -29t-16.5 -47.5h-80q0 34 15 66.5t43.5 53t62.5 28.5t69 8q29 0 58.5 -5.5t55 -20.5t44 -38.5t26 -52
t7.5 -58.5v-363h-80v82l-1 -2q-44 -88 -158 -88zM231 64q25 0 49 6t43.5 22t28 39.5t8.5 48.5v65h-91q-24 0 -47 -4t-44.5 -15t-33.5 -32t-12 -45q0 -18 7 -36t22 -29.5t33.5 -15.5t36.5 -4z" />
    <glyph glyph-name="b" unicode="b" horiz-adv-x="500" 
d="M281 -8q-102 0 -141 95v-87h-80v735h80v-292q39 95 141 95q38 0 73 -16t56.5 -48t29.5 -69t8 -75v-130q0 -38 -8 -75t-29.5 -69t-56.5 -48t-73 -16zM251 64q25 0 49 9.5t40 30t22 45.5t6 51v130q0 26 -6 51t-22 45.5t-40 30t-49 9.5t-48.5 -10t-38 -31t-19.5 -45.5
t-5 -49.5v-130q0 -25 5 -49.5t19.5 -45.5t38 -31t48.5 -10z" />
    <glyph glyph-name="c" unicode="c" horiz-adv-x="500" 
d="M248 -8q-33 0 -65 8t-58 27.5t-43 47.5t-23.5 60.5t-6.5 64.5v130q0 32 6.5 64.5t23.5 60.5t43 47.5t58 27.5t65 8q37 0 73.5 -10t64.5 -35.5t42 -61t14 -73.5h-80q0 30 -14.5 57t-42.5 39t-57 12q-26 0 -50 -9.5t-39.5 -30.5t-21 -46t-5.5 -50v-130q0 -25 5.5 -50
t21 -46t39.5 -30.5t50 -9.5q29 0 57 12t42.5 39t14.5 57h80q0 -48 -22.5 -91t-65.5 -65t-90 -24h-16z" />
    <glyph glyph-name="d" unicode="d" horiz-adv-x="500" 
d="M219 -8q-38 0 -73 16t-56.5 48t-29.5 69t-8 75v130q0 38 8 75t29.5 69t56.5 48t73 16q102 0 141 -95v292h80v-735h-80v87q-39 -95 -141 -95zM249 64q25 0 48.5 10t38 31t19.5 45.5t5 49.5v130q0 25 -5 49.5t-19.5 45.5t-38 31t-48.5 10t-49 -9.5t-40 -30t-22 -45.5
t-6 -51v-130q0 -26 6 -51t22 -45.5t40 -30t49 -9.5z" />
    <glyph glyph-name="e" unicode="e" horiz-adv-x="500" 
d="M252 -8q-33 0 -65.5 7.5t-59.5 27t-44.5 48t-24 60.5t-6.5 65v130q0 41 11 81t39 70.5t67.5 43.5t80.5 13t80.5 -13t67.5 -43.5t39 -70.5t11 -81v-101h-316v-29q0 -26 6 -51t22.5 -45.5t41 -30t50.5 -9.5t51.5 7t43 27.5t19.5 46.5h80q-2 -34 -18 -65.5t-45 -52t-63 -28
t-68 -7.5zM132 301h236v29q0 26 -6 51t-22 45.5t-40 30t-50 9.5t-50 -9.5t-40 -30t-22 -45.5t-6 -51v-29z" />
    <glyph glyph-name="f" unicode="f" horiz-adv-x="500" 
d="M173 0v428h-113v72h113v95q0 31 7 61.5t26.5 55.5t49 36t60.5 11q27 0 54.5 -8t47.5 -27.5t29.5 -46.5t9.5 -55v-7h-80v4q0 17 -6.5 33.5t-22 25.5t-32.5 9q-16 0 -30 -8t-21 -22.5t-9.5 -30t-2.5 -31.5v-95h168v-72h-168v-428h-80z" />
    <glyph glyph-name="g" unicode="g" horiz-adv-x="500" 
d="M246 -213q-34 0 -67 7.5t-60.5 28t-43 51.5t-17.5 64h80q2 -24 18.5 -44.5t40.5 -27.5t49 -7t49 10t39 30.5t20.5 45.5t5.5 50v92q-39 -95 -141 -95q-38 0 -73 16t-56.5 48t-29.5 69t-8 75v130q0 38 8 75t29.5 69t56.5 48t73 16q102 0 141 -95v87h80v-535q0 -32 -6.5 -64
t-23 -60.5t-42.5 -48t-58 -27.5t-64 -8zM249 64q25 0 48.5 10t38 31t19.5 45.5t5 49.5v130q0 25 -5 49.5t-19.5 45.5t-38 31t-48.5 10t-49 -9.5t-40 -30t-22 -45.5t-6 -51v-130q0 -26 6 -51t22 -45.5t40 -30t49 -9.5z" />
    <glyph glyph-name="h" unicode="h" horiz-adv-x="500" 
d="M60 0v735h80v-292q39 95 140 95q30 0 58.5 -10t49 -32t32 -49.5t16 -57t4.5 -59.5v-330h-80v330q0 25 -5 49.5t-19.5 45.5t-37.5 31t-48 10t-48 -10t-37.5 -31t-19.5 -45.5t-5 -49.5v-330h-80z" />
    <glyph glyph-name="i" unicode="i" horiz-adv-x="500" 
d="M75 0v72h142v386h-128v72h208v-458h128v-72h-350zM250 623q-17 0 -32.5 7t-23 22.5t-7.5 32.5t7.5 32.5t23 23t32.5 7.5t32.5 -7.5t22.5 -23t7 -32.5t-7 -32.5t-22.5 -22.5t-32.5 -7z" />
    <glyph glyph-name="j" unicode="j" horiz-adv-x="500" 
d="M299 623q-17 0 -32.5 7t-23 22.5t-7.5 32.5t7.5 32.5t23 23t32.5 7.5t32.5 -7.5t22.5 -23t7 -32.5t-7 -32.5t-22.5 -22.5t-32.5 -7zM185 -213q-34 0 -66 11t-55 35.5t-33.5 56.5t-11.5 66h80q0 -18 5.5 -36t16.5 -32.5t28.5 -21.5t35.5 -7q22 0 41.5 12t29.5 32.5
t13.5 42.5t3.5 44v468h-135v72h215v-540q0 -30 -5 -59.5t-18 -57t-35 -48t-51 -29.5t-59 -9z" />
    <glyph glyph-name="k" unicode="k" horiz-adv-x="500" 
d="M76 0v735h80v-450l194 245h98l-191 -241l191 -289h-93l-149 225l-50 -64v-161h-80z" />
    <glyph glyph-name="l" unicode="l" horiz-adv-x="500" 
d="M75 0v72h142v591h-128v72h208v-663h128v-72h-350z" />
    <glyph glyph-name="m" unicode="m" horiz-adv-x="500" 
d="M47 0v530h80v-43q24 51 72 51q61 0 82 -74q21 74 81 74q24 0 44.5 -15t30 -37.5t13 -47t3.5 -48.5v-390h-80v390q0 16 -2.5 32t-13 30t-26.5 14t-26 -14t-12.5 -30t-2.5 -32v-390h-80v390q0 16 -2.5 32t-12.5 30t-26 14t-26.5 -14t-13 -30t-2.5 -32v-390h-80z" />
    <glyph glyph-name="n" unicode="n" horiz-adv-x="500" 
d="M60 0v530h80v-87q39 95 140 95q30 0 58.5 -10t49 -32t32 -49.5t16 -57t4.5 -59.5v-330h-80v330q0 25 -5 49.5t-19.5 45.5t-37.5 31t-48 10t-48 -10t-37.5 -31t-19.5 -45.5t-5 -49.5v-330h-80z" />
    <glyph glyph-name="o" unicode="o" horiz-adv-x="500" 
d="M250 -8q-41 0 -80.5 13t-67.5 43.5t-39 70.5t-11 81v130q0 41 11 81t39 70.5t67.5 43.5t80.5 13t80.5 -13t67.5 -43.5t39 -70.5t11 -81v-130q0 -41 -11 -81t-39 -70.5t-67.5 -43.5t-80.5 -13zM250 64q26 0 50 9.5t40 30t22 45.5t6 51v130q0 26 -6 51t-22 45.5t-40 30
t-50 9.5t-50 -9.5t-40 -30t-22 -45.5t-6 -51v-130q0 -26 6 -51t22 -45.5t40 -30t50 -9.5z" />
    <glyph glyph-name="p" unicode="p" horiz-adv-x="500" 
d="M60 -205v735h80v-87q39 95 141 95q38 0 73 -16t56.5 -48t29.5 -69t8 -75v-130q0 -38 -8 -75t-29.5 -69t-56.5 -48t-73 -16q-102 0 -141 95v-292h-80zM251 64q25 0 49 9.5t40 30t22 45.5t6 51v130q0 26 -6 51t-22 45.5t-40 30t-49 9.5t-48.5 -10t-38 -31t-19.5 -45.5
t-5 -49.5v-130q0 -25 5 -49.5t19.5 -45.5t38 -31t48.5 -10z" />
    <glyph glyph-name="q" unicode="q" horiz-adv-x="500" 
d="M360 -205v292q-39 -95 -141 -95q-38 0 -73 16t-56.5 48t-29.5 69t-8 75v130q0 38 8 75t29.5 69t56.5 48t73 16q102 0 141 -95v87h80v-735h-80zM249 64q25 0 48.5 10t38 31t19.5 45.5t5 49.5v130q0 25 -5 49.5t-19.5 45.5t-38 31t-48.5 10t-49 -9.5t-40 -30t-22 -45.5
t-6 -51v-130q0 -26 6 -51t22 -45.5t40 -30t49 -9.5z" />
    <glyph glyph-name="r" unicode="r" horiz-adv-x="500" 
d="M120 0v530h80v-120q34 128 132 128q28 0 54.5 -11t42.5 -35t21 -52t5 -56h-80q0 82 -64 82q-24 0 -45.5 -12t-34.5 -33t-19.5 -44.5t-9 -47.5t-2.5 -48v-281h-80z" />
    <glyph glyph-name="s" unicode="s" horiz-adv-x="500" 
d="M250 -8q-34 0 -67 6.5t-61.5 25t-45 49t-16.5 63.5h80q0 -24 18.5 -42.5t42.5 -24t49 -5.5t50 6t43.5 26t18.5 45q0 35 -33 56.5t-67.5 28.5t-68.5 16t-65 27.5t-50 50t-19 66.5q0 46 28.5 85t72.5 53t90 14q34 0 67 -6.5t61.5 -25t45 -49t16.5 -63.5h-80
q0 24 -18.5 42.5t-42.5 24t-49 5.5t-50 -6t-43.5 -26t-18.5 -45q0 -35 33 -56.5t67.5 -28.5t68.5 -16t65 -27.5t50 -50t19 -66.5q0 -46 -28.5 -85t-72.5 -53t-90 -14z" />
    <glyph glyph-name="t" unicode="t" horiz-adv-x="500" 
d="M323 -8q-29 0 -57.5 9t-50 30t-34 48t-17 56.5t-4.5 58.5v264h-109v72h109v205h80v-205h161v-72h-161v-264q0 -21 3 -43t12 -42t28 -32.5t40 -12.5q19 0 36.5 8t27.5 23.5t14.5 34t4.5 37.5v5h80v-9q0 -34 -10 -66t-32.5 -57.5t-54.5 -36.5t-66 -11z" />
    <glyph glyph-name="u" unicode="u" horiz-adv-x="500" 
d="M220 -8q-30 0 -58.5 10t-49 32t-32 49.5t-16 57t-4.5 59.5v330h80v-330q0 -25 5 -49.5t19.5 -45.5t37.5 -31t48 -10t48 10t37.5 31t19.5 45.5t5 49.5v330h80v-530h-80v87q-39 -95 -140 -95z" />
    <glyph glyph-name="v" unicode="v" horiz-adv-x="500" 
d="M204 0l-155 530h81l73 -245q25 -84 35 -134q8 -37 12 -74q9 82 47 208l73 245h81l-155 -530h-92z" />
    <glyph glyph-name="w" unicode="w" horiz-adv-x="500" 
d="M116 0l-85 530h80l47 -410l52 357h80l52 -357l47 410h80l-85 -530h-80l-54 370l-54 -370h-80z" />
    <glyph glyph-name="x" unicode="x" horiz-adv-x="500" 
d="M46 0l159 265l-159 265h85l119 -191l119 191h85l-159 -265l159 -265h-85l-119 191l-119 -191h-85z" />
    <glyph glyph-name="y" unicode="y" horiz-adv-x="500" 
d="M141 -205q22 50 47 129l20 68l-171 538h89l125 -415l123 415h89l-199 -627l-5 -15l-29 -93h-89z" />
    <glyph glyph-name="z" unicode="z" horiz-adv-x="500" 
d="M60 0v72l284 386h-284v72h380v-72l-284 -386h284v-72h-380z" />
    <glyph glyph-name="braceleft" unicode="{" horiz-adv-x="500" 
d="M421 -153q-34 0 -67.5 4.5t-65.5 16.5t-59 33.5t-40 53t-13 65.5q0 32 10 62.5t25.5 59.5t15.5 61q0 20 -7.5 38t-23.5 30.5t-34.5 19.5t-37.5 10t-45 3v72q25 0 50 4t48 15.5t36.5 34t13.5 47.5q0 32 -15.5 61t-25.5 59.5t-10 62.5q0 34 13 65.5t40 53t59 33.5
t65.5 16.5t67.5 4.5v-72q-27 0 -54 -4t-52.5 -14.5t-42 -33t-16.5 -49.5q0 -32 15.5 -61t25.5 -59.5t10 -62.5q0 -91 -74 -137l3 -1q71 -46 71 -136q0 -32 -10 -62.5t-25.5 -59.5t-15.5 -61q0 -27 16.5 -49.5t42 -33t52.5 -14.5t54 -4v-72z" />
    <glyph glyph-name="bar" unicode="|" horiz-adv-x="500" 
d="M210 -143v966h80v-966h-80z" />
    <glyph glyph-name="braceright" unicode="}" horiz-adv-x="500" 
d="M79 -153v72q27 0 54 4t52.5 14.5t42 33t16.5 49.5q0 32 -15.5 61t-25.5 59.5t-10 62.5q0 91 74 137l-3 1q-71 46 -71 136q0 32 10 62.5t25.5 59.5t15.5 61q0 27 -16.5 49.5t-42 33t-52.5 14.5t-54 4v72q34 0 67.5 -4.5t65.5 -16.5t59 -33.5t40 -53t13 -65.5
q0 -32 -10 -62.5t-25.5 -59.5t-15.5 -61q0 -25 13.5 -47.5t36.5 -34t48 -15.5t50 -4v-72q-25 0 -50 -4t-48 -15.5t-36.5 -34t-13.5 -47.5q0 -32 15.5 -61t25.5 -59.5t10 -62.5q0 -34 -13 -65.5t-40 -53t-59 -33.5t-65.5 -16.5t-67.5 -4.5z" />
    <glyph glyph-name="mu" unicode="&#xb5;" horiz-adv-x="500" 
d="M60 -205v735h80v-330q0 -25 5 -49.5t19.5 -45.5t37.5 -31t48 -10t48 10t37.5 31t19.5 45.5t5 49.5v330h80v-530h-80v87q-39 -95 -140 -95q-47 0 -79 20l-2 1v-1q1 -69 1 -115v-102h-80z" />
    <glyph glyph-name="guillemotright" unicode="&#xbb;" horiz-adv-x="500" 
d="M106 84l-73 29q32 66 77 125.5t105 101.5l-1 1q-60 42 -105 101t-76 125l73 29q64 -159 173 -220v-72q-71 -39 -123 -122q-29 -47 -50 -98zM296 84l-73 29q32 66 77 125.5t105 101.5l-1 1q-60 42 -105 101t-76 125l73 29q64 -159 173 -220v-72q-71 -39 -123 -122
q-29 -47 -50 -98z" />
    <glyph glyph-name="multiply" unicode="&#xd7;" horiz-adv-x="500" 
d="M412 125l-380 380l56 50l380 -380zM88 125l-56 50l380 380l56 -50z" />
    <glyph glyph-name="dotlessi" unicode="&#x131;" horiz-adv-x="500" 
d="M75 0v72h142v386h-128v72h208v-458h128v-72h-350z" />
    <glyph glyph-name="uni0237" unicode="&#x237;" horiz-adv-x="500" 
d="M185 -213q-34 0 -66 11t-55 35.5t-33.5 56.5t-11.5 66h80q0 -18 5.5 -36t16.5 -32.5t28.5 -21.5t35.5 -7q22 0 41.5 12t29.5 32.5t13.5 42.5t3.5 44v468h-135v72h215v-540q0 -30 -5 -59.5t-18 -57t-35 -48t-51 -29.5t-59 -9z" />
    <glyph glyph-name="uni025B" unicode="&#x25b;" horiz-adv-x="500" 
d="M248 -8q-37 0 -73 7t-67.5 27.5t-47.5 54.5t-16 70q0 91 94 126q-78 33 -78 113q0 33 14.5 64.5t43.5 50.5t62.5 26t66.5 7t65.5 -6.5t61 -24.5t44.5 -48t16 -63h-80q0 23 -18 41t-41.5 23.5t-47.5 5.5q-18 0 -36.5 -3t-35.5 -12.5t-26 -26.5t-9 -35.5t10 -35.5t27 -26
t35.5 -12t37.5 -3h57v-72h-57q-22 0 -43 -4t-40.5 -14t-31 -29t-11.5 -40.5t10.5 -41t30 -30t40.5 -14t43 -3.5q26 0 52.5 5.5t47.5 24t22 45.5h80q0 -35 -18.5 -66.5t-49 -49.5t-65 -24.5t-69.5 -6.5z" />
    <glyph glyph-name="uni0307" unicode="&#x307;" horiz-adv-x="0" 
d="M-250 623q-17 0 -32.5 7t-23 22.5t-7.5 32.5t7.5 32.5t23 23t32.5 7.5t32.5 -7.5t22.5 -23t7 -32.5t-7 -32.5t-22.5 -22.5t-32.5 -7z" />
    <glyph glyph-name="uni03BC" unicode="&#x3bc;" horiz-adv-x="500" 
d="M60 -205v735h80v-330q0 -25 5 -49.5t19.5 -45.5t37.5 -31t48 -10t48 10t37.5 31t19.5 45.5t5 49.5v330h80v-530h-80v87q-39 -95 -140 -95q-47 0 -79 20l-2 1v-1q1 -69 1 -115v-102h-80z" />
    <glyph glyph-name="quotedblleft" unicode="&#x201c;" horiz-adv-x="500" 
d="M195 875l26 -42q-42 -28 -63 -60t-21 -79q3 1 10 1q22 0 40.5 -15t18.5 -41q0 -29 -16.5 -45.5t-42.5 -16.5q-34 0 -52.5 26t-18.5 74q0 68 30.5 116t88.5 82zM392 875l26 -42q-42 -28 -63 -60t-21 -79q3 1 9 1q23 0 41 -15t18 -41q0 -29 -16.5 -45.5t-42.5 -16.5
q-33 0 -51.5 26t-18.5 74q0 68 30.5 116t88.5 82z" />
    <glyph glyph-name="quotedblright" unicode="&#x201d;" horiz-adv-x="500" 
d="M109 579l-26 43q42 28 63.5 59.5t21.5 79.5q-3 -1 -10 -1q-23 0 -41 14.5t-18 41.5q0 29 16.5 45.5t42.5 16.5q33 0 51.5 -26t18.5 -74q0 -67 -30.5 -116t-88.5 -83zM305 579l-25 43q42 28 63 59.5t21 79.5q-3 -1 -10 -1q-22 0 -40.5 14.5t-18.5 41.5q0 29 17 45.5
t42 16.5q33 0 51.5 -26t18.5 -74q0 -67 -30.5 -116t-88.5 -83z" />
    <glyph glyph-name="approxequal" unicode="&#x2248;" horiz-adv-x="500" 
d="M323 344q-12 0 -24 3t-23 8t-21 12t-19 15t-18.5 16t-19 16.5t-21.5 8.5q-29 0 -85 -76l-64 42q77 106 149 106q12 0 24 -2.5t23 -8t21 -12.5t19 -15t18.5 -15.5t19 -16.5t21.5 -9q29 0 85 77l64 -43q-77 -106 -149 -106zM323 185q-12 0 -24 2.5t-23 8t-21 12.5t-19 15
t-18.5 15.5t-19 16.5t-21.5 9q-29 0 -85 -77l-64 43q77 106 149 106q12 0 24 -3t23 -8t21 -12t19 -15t18.5 -16t19 -16.5t21.5 -8.5q29 0 85 76l64 -42q-77 -106 -149 -106z" />
    <glyph glyph-name="uni2E9F" unicode="&#x2e9f;" 
d="M395 636l44 45q34 -16 71.5 -38t70.5 -44.5t54 -42.5l-45 -51q-20 21 -52.5 44.5t-70 46t-72.5 40.5zM615 225l-49 -49q-21 24 -55.5 51t-75 53t-79.5 45l46 44q39 -18 80 -43t76 -51t57 -50zM211 155h519q7 47 13 109t11 143h-501q-10 -69 -20.5 -133t-21.5 -119z
M769 720h-472q-7 -58 -16 -119.5t-18 -123.5h494q4 54 6.5 114.5t5.5 128.5zM940 407h-112q-4 -79 -10 -142t-11 -110h104v-68h-115q-8 -46 -17.5 -73t-22.5 -42q-17 -24 -36 -34t-47 -12q-26 -3 -67 -2t-83 4q-1 15 -7 34t-14 33q47 -4 85 -5t57 -1q14 0 24 3.5t19 15.5
q8 9 16 28.5t15 50.5h-597q14 65 28 147.5t28 172.5h-117v70h128q12 81 22.5 161t18.5 150h616v-17v-25q-3 -76 -6 -143.5t-7 -125.5h108v-70z" />
    <glyph glyph-name="uni2E9F" unicode="&#x6bcd;" 
d="M395 636l44 45q34 -16 71.5 -38t70.5 -44.5t54 -42.5l-45 -51q-20 21 -52.5 44.5t-70 46t-72.5 40.5zM615 225l-49 -49q-21 24 -55.5 51t-75 53t-79.5 45l46 44q39 -18 80 -43t76 -51t57 -50zM211 155h519q7 47 13 109t11 143h-501q-10 -69 -20.5 -133t-21.5 -119z
M769 720h-472q-7 -58 -16 -119.5t-18 -123.5h494q4 54 6.5 114.5t5.5 128.5zM940 407h-112q-4 -79 -10 -142t-11 -110h104v-68h-115q-8 -46 -17.5 -73t-22.5 -42q-17 -24 -36 -34t-47 -12q-26 -3 -67 -2t-83 4q-1 15 -7 34t-14 33q47 -4 85 -5t57 -1q14 0 24 3.5t19 15.5
q8 9 16 28.5t15 50.5h-597q14 65 28 147.5t28 172.5h-117v70h128q12 81 22.5 161t18.5 150h616v-17v-25q-3 -76 -6 -143.5t-7 -125.5h108v-70z" />
    <glyph glyph-name="uni2EA0" unicode="&#x2ea0;" 
d="M195 345h283q-7 36 -12.5 73.5t-7.5 77.5h-263v-151zM752 715h-557v-149h557v149zM900 275h-327q26 -79 63.5 -139.5t81.5 -94t88 -33.5q23 1 33 34t14 112q13 -11 31 -20.5t34 -14.5q-6 -73 -19 -113t-36 -55.5t-60 -15.5q-67 0 -126.5 43.5t-105.5 120.5t-75 176h-301
v-247l270 76q1 -16 3.5 -36.5t5.5 -32.5q-112 -33 -180.5 -53.5t-105 -32t-53 -18.5t-25.5 -13q-4 15 -15 36t-20 32q14 7 29 24.5t15 48.5v726h707v-289h-293q2 -40 8 -77.5t14 -73.5h345v-70z" />
    <glyph glyph-name="uni2EA0" unicode="&#x6c11;" 
d="M195 345h283q-7 36 -12.5 73.5t-7.5 77.5h-263v-151zM752 715h-557v-149h557v149zM900 275h-327q26 -79 63.5 -139.5t81.5 -94t88 -33.5q23 1 33 34t14 112q13 -11 31 -20.5t34 -14.5q-6 -73 -19 -113t-36 -55.5t-60 -15.5q-67 0 -126.5 43.5t-105.5 120.5t-75 176h-301
v-247l270 76q1 -16 3.5 -36.5t5.5 -32.5q-112 -33 -180.5 -53.5t-105 -32t-53 -18.5t-25.5 -13q-4 15 -15 36t-20 32q14 7 29 24.5t15 48.5v726h707v-289h-293q2 -40 8 -77.5t14 -73.5h345v-70z" />
    <glyph glyph-name="uni2EC5" unicode="&#x2ec5;" 
d="M181 781h635v-567h-78v493h-481v-493h-76v567zM453 614h77q-3 -113 -11.5 -207t-32 -170.5t-70 -136.5t-125 -104t-198.5 -73q-5 14 -18 33.5t-24 30.5q114 26 187 64.5t115.5 92t63 123t27 156t9.5 191.5zM517 299h73v-247q0 -22 11 -28.5t48 -6.5h166q24 0 36 10.5
t17 43t7 99.5q13 -10 33 -18t35 -12q-4 -77 -15.5 -119t-36.5 -57.5t-70 -15.5h-178q-72 0 -99 21t-27 82v248z" />
    <glyph glyph-name="uni2EC5" unicode="&#x89c1;" 
d="M181 781h635v-567h-78v493h-481v-493h-76v567zM453 614h77q-3 -113 -11.5 -207t-32 -170.5t-70 -136.5t-125 -104t-198.5 -73q-5 14 -18 33.5t-24 30.5q114 26 187 64.5t115.5 92t63 123t27 156t9.5 191.5zM517 299h73v-247q0 -22 11 -28.5t48 -6.5h166q24 0 36 10.5
t17 43t7 99.5q13 -10 33 -18t35 -12q-4 -77 -15.5 -119t-36.5 -57.5t-70 -15.5h-178q-72 0 -99 21t-27 82v248z" />
    <glyph glyph-name="uni2EC6" unicode="&#x2ec6;" 
d="M561 219h236v129h-236v-129zM260 219h227v129h-219q0 -30 -1.5 -62.5t-6.5 -66.5zM627 707h-279q-19 -25 -39.5 -50t-43.5 -50h282q22 22 43 48.5t37 51.5zM268 539v-126h219v126h-219zM797 413v126h-236v-126h236zM872 607v-588q0 -33 -9.5 -51t-32.5 -28
q-24 -9 -65.5 -11t-103.5 -2q-2 16 -10.5 37t-16.5 36q47 -1 87 -1h53q23 1 23 21v132h-236v-207h-74v207h-238q-15 -64 -44 -125.5t-79 -111.5q-7 11 -26 28.5t-30 24.5q55 56 81 123t34 136t8 130v179q-36 -31 -77 -62q-10 14 -26 29.5t-29 23.5q100 68 170.5 152.5
t107.5 159.5l82 -15q-7 -13 -15 -26.5t-16 -27.5h282l12 4l49 -35q-19 -32 -45.5 -66.5t-55.5 -65.5h240z" />
    <glyph glyph-name="uni2EC6" unicode="&#x89d2;" 
d="M561 219h236v129h-236v-129zM260 219h227v129h-219q0 -30 -1.5 -62.5t-6.5 -66.5zM627 707h-279q-19 -25 -39.5 -50t-43.5 -50h282q22 22 43 48.5t37 51.5zM268 539v-126h219v126h-219zM797 413v126h-236v-126h236zM872 607v-588q0 -33 -9.5 -51t-32.5 -28
q-24 -9 -65.5 -11t-103.5 -2q-2 16 -10.5 37t-16.5 36q47 -1 87 -1h53q23 1 23 21v132h-236v-207h-74v207h-238q-15 -64 -44 -125.5t-79 -111.5q-7 11 -26 28.5t-30 24.5q55 56 81 123t34 136t8 130v179q-36 -31 -77 -62q-10 14 -26 29.5t-29 23.5q100 68 170.5 152.5
t107.5 159.5l82 -15q-7 -13 -15 -26.5t-16 -27.5h282l12 4l49 -35q-19 -32 -45.5 -66.5t-55.5 -65.5h240z" />
    <glyph glyph-name="uni2EC9" unicode="&#x2ec9;" 
d="M464 642h76v-212q0 -51 -8 -104.5t-32 -107.5t-71 -106t-125 -99.5t-195 -88.5q-7 13 -21.5 31t-27.5 30q113 37 187.5 79.5t118 88.5t65 93.5t27.5 94.5t6 90v211zM530 109l41 51q57 -23 121.5 -53.5t123 -61.5t96.5 -58l-44 -60q-37 27 -94 59.5t-121.5 65t-122.5 57.5
zM181 784h643v-585h-77v516h-493v-518h-73v587z" />
    <glyph glyph-name="uni2EC9" unicode="&#x8d1d;" 
d="M464 642h76v-212q0 -51 -8 -104.5t-32 -107.5t-71 -106t-125 -99.5t-195 -88.5q-7 13 -21.5 31t-27.5 30q113 37 187.5 79.5t118 88.5t65 93.5t27.5 94.5t6 90v211zM530 109l41 51q57 -23 121.5 -53.5t123 -61.5t96.5 -58l-44 -60q-37 27 -94 59.5t-121.5 65t-122.5 57.5
zM181 784h643v-585h-77v516h-493v-518h-73v587z" />
    <glyph glyph-name="uni2ECB" unicode="&#x2ecb;" 
d="M938 185v-73h-354v-189h-77v189h-442v73h442v151h-229q-91 0 -107 -14q-4 12 -12 36.5t-16 40.5q17 4 33.5 24.5t35.5 53.5q11 17 32.5 55t46.5 88h-211v72h245q16 36 31.5 74.5t28.5 75.5l83 -24q-13 -31 -27 -63t-29 -63h508v-72h-543q-30 -58 -61.5 -112t-63.5 -101
h255v151h77v-151h271v-71h-271v-151h354z" />
    <glyph glyph-name="uni2ECB" unicode="&#x8f66;" 
d="M938 185v-73h-354v-189h-77v189h-442v73h442v151h-229q-91 0 -107 -14q-4 12 -12 36.5t-16 40.5q17 4 33.5 24.5t35.5 53.5q11 17 32.5 55t46.5 88h-211v72h245q16 36 31.5 74.5t28.5 75.5l83 -24q-13 -31 -27 -63t-29 -63h508v-72h-543q-30 -58 -61.5 -112t-63.5 -101
h255v151h77v-151h271v-71h-271v-151h354z" />
    <glyph glyph-name="uni2ED3" unicode="&#x2ed3;" 
d="M767 814l74 -32q-49 -57 -113 -109.5t-134 -96.5t-138 -77q-9 12 -27.5 30.5t-32.5 28.5q70 29 139 69t129 88t103 99zM940 374h-381q56 -128 158.5 -220t245.5 -133q-14 -11 -29 -31.5t-23 -36.5q-155 51 -261.5 159t-166.5 262h-156v-334l239 59q0 -16 2 -36.5t5 -33.5
q-102 -27 -164 -44t-95.5 -27t-49 -16.5t-24.5 -12.5q-4 14 -12.5 34t-17.5 32q12 6 26 19t14 42v318h-191v73h191v383h77v-383h613v-73z" />
    <glyph glyph-name="uni2ED3" unicode="&#x957f;" 
d="M767 814l74 -32q-49 -57 -113 -109.5t-134 -96.5t-138 -77q-9 12 -27.5 30.5t-32.5 28.5q70 29 139 69t129 88t103 99zM940 374h-381q56 -128 158.5 -220t245.5 -133q-14 -11 -29 -31.5t-23 -36.5q-155 51 -261.5 159t-166.5 262h-156v-334l239 59q0 -16 2 -36.5t5 -33.5
q-102 -27 -164 -44t-95.5 -27t-49 -16.5t-24.5 -12.5q-4 14 -12.5 34t-17.5 32q12 6 26 19t14 42v318h-191v73h191v383h77v-383h613v-73z" />
    <glyph glyph-name="uni2ED4" unicode="&#x2ed4;" 
d="M96 -77v713h74v-713h-74zM130 802l57 36q26 -27 53 -60t51 -64.5t39 -55.5l-61 -43q-13 25 -36.5 57.5t-50 66.5t-52.5 63zM908 800v-778q0 -37 -10.5 -56t-36.5 -29q-26 -9 -73 -11t-118 -1q-3 15 -10.5 36t-16.5 36q55 -2 102 -2t63 1q14 1 20 6.5t6 19.5v707h-475v71
h549z" />
    <glyph glyph-name="uni2ED4" unicode="&#x95e8;" 
d="M96 -77v713h74v-713h-74zM130 802l57 36q26 -27 53 -60t51 -64.5t39 -55.5l-61 -43q-13 25 -36.5 57.5t-50 66.5t-52.5 63zM908 800v-778q0 -37 -10.5 -56t-36.5 -29q-26 -9 -73 -11t-118 -1q-3 15 -10.5 36t-16.5 36q55 -2 102 -2t63 1q14 1 20 6.5t6 19.5v707h-475v71
h549z" />
    <glyph glyph-name="uni2ED8" unicode="&#x2ed8;" 
d="M275 140h457v72h-457v-72zM732 337h-457v-72h457v72zM806 394v-389q0 -31 -9 -46t-32 -23t-64 -9.5t-103 -1.5q-3 14 -10 31t-15 30q46 -1 86 -1h51q13 1 17.5 5t4.5 15v81h-457v-165h-73v473h604zM535 515h402v-59h-874v59h398v73h-300v57h300v66h-334v59h334v67h74v-67
h349v-59h-349v-66h307v-57h-307v-73z" />
    <glyph glyph-name="uni2ED8" unicode="&#x9752;" 
d="M275 140h457v72h-457v-72zM732 337h-457v-72h457v72zM806 394v-389q0 -31 -9 -46t-32 -23t-64 -9.5t-103 -1.5q-3 14 -10 31t-15 30q46 -1 86 -1h51q13 1 17.5 5t4.5 15v81h-457v-165h-73v473h604zM535 515h402v-59h-874v59h398v73h-300v57h300v66h-334v59h334v67h74v-67
h349v-59h-349v-66h307v-57h-307v-73z" />
    <glyph glyph-name="uni2EDA" unicode="&#x2eda;" 
d="M465 282v179h75v-180q0 -41 -9 -81.5t-35 -79t-75 -74.5t-127.5 -67t-194.5 -56q-6 12 -19.5 30.5t-25.5 29.5q111 23 185 50t119 57t68.5 62t31 65t7.5 65zM545 111l42 51q57 -25 121.5 -57t123 -65t96.5 -61l-46 -59q-36 28 -93.5 62.5t-121.5 68.5t-122 60zM77 782
h855v-70h-397q-13 -31 -27.5 -62t-28.5 -57h357v-462h-78v393h-509v-395h-74v464h229q12 26 24.5 58t21.5 61h-373v70z" />
    <glyph glyph-name="uni2EDA" unicode="&#x9875;" 
d="M465 282v179h75v-180q0 -41 -9 -81.5t-35 -79t-75 -74.5t-127.5 -67t-194.5 -56q-6 12 -19.5 30.5t-25.5 29.5q111 23 185 50t119 57t68.5 62t31 65t7.5 65zM545 111l42 51q57 -25 121.5 -57t123 -65t96.5 -61l-46 -59q-36 28 -93.5 62.5t-121.5 68.5t-122 60zM77 782
h855v-70h-397q-13 -31 -27.5 -62t-28.5 -57h357v-462h-78v393h-509v-395h-74v464h229q12 26 24.5 58t21.5 61h-373v70z" />
    <glyph glyph-name="uni2EDB" unicode="&#x2edb;" 
d="M609 646l65 -17q-24 -73 -54 -143.5t-67 -136.5q56 -71 102.5 -138.5t77.5 -121.5l-68 -40q-26 47 -65 107t-86 126q-48 -76 -103 -139.5t-114 -107.5q-10 14 -26 30.5t-30 26.5q62 42 120 107t107 144q-45 61 -92 120t-92 111l61 32q39 -45 80.5 -94.5t81.5 -101.5
q62 116 102 236zM162 789h670q-1 -176 -0.5 -319.5t6 -246.5t19.5 -158t39 -55q7 0 11.5 20.5t7 54.5t3.5 75q10 -13 24 -28.5t25 -23.5q-4 -65 -11.5 -103.5t-23 -54.5t-42.5 -16q-48 0 -75 49.5t-38.5 148t-14.5 245t-3 340.5h-522v-224q0 -62 -4.5 -136t-18 -151.5
t-40 -151t-69.5 -133.5q-10 12 -29 27.5t-33 22.5q41 57 65 123t35.5 136t15 137.5t3.5 125.5v296z" />
    <glyph glyph-name="uni2EDB" unicode="&#x98ce;" 
d="M609 646l65 -17q-24 -73 -54 -143.5t-67 -136.5q56 -71 102.5 -138.5t77.5 -121.5l-68 -40q-26 47 -65 107t-86 126q-48 -76 -103 -139.5t-114 -107.5q-10 14 -26 30.5t-30 26.5q62 42 120 107t107 144q-45 61 -92 120t-92 111l61 32q39 -45 80.5 -94.5t81.5 -101.5
q62 116 102 236zM162 789h670q-1 -176 -0.5 -319.5t6 -246.5t19.5 -158t39 -55q7 0 11.5 20.5t7 54.5t3.5 75q10 -13 24 -28.5t25 -23.5q-4 -65 -11.5 -103.5t-23 -54.5t-42.5 -16q-48 0 -75 49.5t-38.5 148t-14.5 245t-3 340.5h-522v-224q0 -62 -4.5 -136t-18 -151.5
t-40 -151t-69.5 -133.5q-10 12 -29 27.5t-33 22.5q41 57 65 123t35.5 136t15 137.5t3.5 125.5v296z" />
    <glyph glyph-name="uni2EDC" unicode="&#x2edc;" 
d="M940 318l-40 -58q-24 22 -61 48t-79.5 52.5t-85.5 50.5q12 -118 34 -204.5t58.5 -132.5t90.5 -46q21 0 30.5 44.5t12.5 128.5q13 -13 28.5 -25.5t28.5 -17.5q-5 -78 -16 -123t-31.5 -64t-56.5 -19q-79 0 -129.5 52t-79.5 149.5t-42 236t-17 312.5h-514v75h587
q1 -72 2.5 -138.5t5.5 -127.5q52 44 105.5 95.5t89.5 95.5l68 -36q-49 -51 -108 -105t-113 -96q43 -23 86.5 -48.5t82 -51t63.5 -47.5z" />
    <glyph glyph-name="uni2EDC" unicode="&#x98de;" 
d="M940 318l-40 -58q-24 22 -61 48t-79.5 52.5t-85.5 50.5q12 -118 34 -204.5t58.5 -132.5t90.5 -46q21 0 30.5 44.5t12.5 128.5q13 -13 28.5 -25.5t28.5 -17.5q-5 -78 -16 -123t-31.5 -64t-56.5 -19q-79 0 -129.5 52t-79.5 149.5t-42 236t-17 312.5h-514v75h587
q1 -72 2.5 -138.5t5.5 -127.5q52 44 105.5 95.5t89.5 95.5l68 -36q-49 -51 -108 -105t-113 -96q43 -23 86.5 -48.5t82 -51t63.5 -47.5z" />
    <glyph glyph-name="uni2EDD" unicode="&#x2edd;" 
d="M554 566h177q-134 72 -228 171q-93 -99 -216 -171h191q-10 20 -22.5 41.5t-26.5 38.5l64 19q17 -22 34.5 -50t26.5 -49zM291 276h416v89h-416v-89zM707 505h-416v-83h416v83zM496 842l67 -31q-4 -7 -9 -13l-10 -12q48 -52 117 -98t149 -81.5t160 -56.5q-13 -11 -27 -30
t-22 -34q-34 11 -69.5 24.5t-70.5 30.5v-318q9 7 17.5 13.5t15.5 12.5l55 -42q-39 -31 -84 -60.5t-89 -55.5q53 -31 100.5 -60.5t80.5 -54.5l-53 -51q-31 25 -76 54.5t-97.5 60.5t-107 60.5t-105.5 53.5l49 44q35 -16 72.5 -35t75.5 -39q35 20 70 44t66 47h-480v-195l243 45
q-1 -15 -1 -34.5t1 -30.5q-99 -20 -158.5 -32.5t-92 -20t-47 -12.5t-23.5 -10q-3 14 -11 33.5t-16 30.5q10 5 21 19t11 42v478q-31 -16 -63.5 -30.5t-65.5 -25.5q-8 13 -21 30.5t-26 30.5q91 29 178 75t158.5 105.5t117.5 128.5z" />
    <glyph glyph-name="uni2EDD" unicode="&#x98df;" 
d="M554 566h177q-134 72 -228 171q-93 -99 -216 -171h191q-10 20 -22.5 41.5t-26.5 38.5l64 19q17 -22 34.5 -50t26.5 -49zM291 276h416v89h-416v-89zM707 505h-416v-83h416v83zM496 842l67 -31q-4 -7 -9 -13l-10 -12q48 -52 117 -98t149 -81.5t160 -56.5q-13 -11 -27 -30
t-22 -34q-34 11 -69.5 24.5t-70.5 30.5v-318q9 7 17.5 13.5t15.5 12.5l55 -42q-39 -31 -84 -60.5t-89 -55.5q53 -31 100.5 -60.5t80.5 -54.5l-53 -51q-31 25 -76 54.5t-97.5 60.5t-107 60.5t-105.5 53.5l49 44q35 -16 72.5 -35t75.5 -39q35 20 70 44t66 47h-480v-195l243 45
q-1 -15 -1 -34.5t1 -30.5q-99 -20 -158.5 -32.5t-92 -20t-47 -12.5t-23.5 -10q-3 14 -11 33.5t-16 30.5q10 5 21 19t11 42v478q-31 -16 -63.5 -30.5t-65.5 -25.5q-8 13 -21 30.5t-26 30.5q91 29 178 75t158.5 105.5t117.5 128.5z" />
    <glyph glyph-name="uni2EDD" unicode="&#x2fb7;" 
d="M554 566h177q-134 72 -228 171q-93 -99 -216 -171h191q-10 20 -22.5 41.5t-26.5 38.5l64 19q17 -22 34.5 -50t26.5 -49zM291 276h416v89h-416v-89zM707 505h-416v-83h416v83zM496 842l67 -31q-4 -7 -9 -13l-10 -12q48 -52 117 -98t149 -81.5t160 -56.5q-13 -11 -27 -30
t-22 -34q-34 11 -69.5 24.5t-70.5 30.5v-318q9 7 17.5 13.5t15.5 12.5l55 -42q-39 -31 -84 -60.5t-89 -55.5q53 -31 100.5 -60.5t80.5 -54.5l-53 -51q-31 25 -76 54.5t-97.5 60.5t-107 60.5t-105.5 53.5l49 44q35 -16 72.5 -35t75.5 -39q35 20 70 44t66 47h-480v-195l243 45
q-1 -15 -1 -34.5t1 -30.5q-99 -20 -158.5 -32.5t-92 -20t-47 -12.5t-23.5 -10q-3 14 -11 33.5t-16 30.5q10 5 21 19t11 42v478q-31 -16 -63.5 -30.5t-65.5 -25.5q-8 13 -21 30.5t-26 30.5q91 29 178 75t158.5 105.5t117.5 128.5z" />
    <glyph glyph-name="uni2EE2" unicode="&#x2ee2;" 
d="M709 202v-71h-648v71h648zM741 393h174l-0.5 -13.5t-2.5 -21.5q-11 -130 -23 -211.5t-26.5 -126t-34.5 -63.5q-16 -17 -34.5 -23.5t-45.5 -8.5q-24 -1 -66.5 -1t-90.5 3q-1 17 -7.5 37t-15.5 35q48 -4 91 -5.5t62 -1.5q15 0 26 2t18 9q15 13 27 49t22.5 102.5t20.5 169.5
h-638q6 40 12 93t11.5 109.5t8.5 104.5l73 -5q-4 -55 -10.5 -117t-12.5 -116h388q7 51 13 106t12 108t10 97h-565v72h578l12 4l54 -6q-4 -52 -10.5 -117.5t-14 -133.5t-15.5 -130z" />
    <glyph glyph-name="uni2EE2" unicode="&#x9a6c;" 
d="M709 202v-71h-648v71h648zM741 393h174l-0.5 -13.5t-2.5 -21.5q-11 -130 -23 -211.5t-26.5 -126t-34.5 -63.5q-16 -17 -34.5 -23.5t-45.5 -8.5q-24 -1 -66.5 -1t-90.5 3q-1 17 -7.5 37t-15.5 35q48 -4 91 -5.5t62 -1.5q15 0 26 2t18 9q15 13 27 49t22.5 102.5t20.5 169.5
h-638q6 40 12 93t11.5 109.5t8.5 104.5l73 -5q-4 -55 -10.5 -117t-12.5 -116h388q7 51 13 106t12 108t10 97h-565v72h578l12 4l54 -6q-4 -52 -10.5 -117.5t-14 -133.5t-15.5 -130z" />
    <glyph glyph-name="uni2EE3" unicode="&#x2ee3;" 
d="M282 139h435v79h-435v-79zM717 350h-435v-77h435v77zM789 410v-408q0 -29 -8 -44.5t-30 -23.5q-23 -7 -61.5 -9t-95.5 -2q-2 14 -8.5 31.5t-14.5 30.5q43 -1 79 -1h47q11 1 15.5 5t4.5 14v80h-435v-160h-70v487h577zM292 620v-84h203v84h-203zM704 735h-412v-64h269v-135
h143v199zM777 536h141v-190h-71v125h-697v-125h-68v190h139v258h556v-258z" />
    <glyph glyph-name="uni2EE3" unicode="&#x9aa8;" 
d="M282 139h435v79h-435v-79zM717 350h-435v-77h435v77zM789 410v-408q0 -29 -8 -44.5t-30 -23.5q-23 -7 -61.5 -9t-95.5 -2q-2 14 -8.5 31.5t-14.5 30.5q43 -1 79 -1h47q11 1 15.5 5t4.5 14v80h-435v-160h-70v487h577zM292 620v-84h203v84h-203zM704 735h-412v-64h269v-135
h143v199zM777 536h141v-190h-71v125h-697v-125h-68v190h139v258h556v-258z" />
    <glyph glyph-name="uni2EE4" unicode="&#x2ee4;" 
d="M689 304l62 -18q-15 -38 -34.5 -75.5t-39.5 -69.5l124 17q-19 34 -39 61l45 19q26 -34 48 -75t31 -71l-47 -20q-2 8 -6 18t-9 21q-64 -10 -103 -17t-60.5 -11t-31.5 -7t-16 -6q-2 9 -8.5 28t-12.5 30q9 2 17 10t16 21l17.5 31.5t25.5 52.5t21 61zM231 388h208
q8 30 12 58.5t5 55.5h-225v-114zM231 675v-112h226v112h-226zM755 563v112h-225v-112h225zM755 388v114h-226q-1 -27 -4.5 -56t-9.5 -58h240zM832 324h-332q-22 -70 -68 -140.5t-124 -135.5t-199 -119q-10 12 -25.5 27t-30.5 26q109 48 182 104.5t117.5 117t67.5 120.5h-263
v415h241q15 25 29 52.5t22 49.5l81 -17q-13 -21 -26 -43t-26 -42h354v-415zM629 6h202q24 0 36 7.5t17 30.5t7 69q12 -10 31 -17t35 -11q-5 -57 -16.5 -88.5t-36 -43.5t-68.5 -12h-211q-54 0 -84 8.5t-42 30.5t-12 61v246h73v-246q0 -22 13 -28.5t56 -6.5z" />
    <glyph glyph-name="uni2EE4" unicode="&#x9b3c;" 
d="M689 304l62 -18q-15 -38 -34.5 -75.5t-39.5 -69.5l124 17q-19 34 -39 61l45 19q26 -34 48 -75t31 -71l-47 -20q-2 8 -6 18t-9 21q-64 -10 -103 -17t-60.5 -11t-31.5 -7t-16 -6q-2 9 -8.5 28t-12.5 30q9 2 17 10t16 21l17.5 31.5t25.5 52.5t21 61zM231 388h208
q8 30 12 58.5t5 55.5h-225v-114zM231 675v-112h226v112h-226zM755 563v112h-225v-112h225zM755 388v114h-226q-1 -27 -4.5 -56t-9.5 -58h240zM832 324h-332q-22 -70 -68 -140.5t-124 -135.5t-199 -119q-10 12 -25.5 27t-30.5 26q109 48 182 104.5t117.5 117t67.5 120.5h-263
v415h241q15 25 29 52.5t22 49.5l81 -17q-13 -21 -26 -43t-26 -42h354v-415zM629 6h202q24 0 36 7.5t17 30.5t7 69q12 -10 31 -17t35 -11q-5 -57 -16.5 -88.5t-36 -43.5t-68.5 -12h-211q-54 0 -84 8.5t-42 30.5t-12 61v246h73v-246q0 -22 13 -28.5t56 -6.5z" />
    <glyph glyph-name="uni2EE4" unicode="&#x2fc1;" 
d="M689 304l62 -18q-15 -38 -34.5 -75.5t-39.5 -69.5l124 17q-19 34 -39 61l45 19q26 -34 48 -75t31 -71l-47 -20q-2 8 -6 18t-9 21q-64 -10 -103 -17t-60.5 -11t-31.5 -7t-16 -6q-2 9 -8.5 28t-12.5 30q9 2 17 10t16 21l17.5 31.5t25.5 52.5t21 61zM231 388h208
q8 30 12 58.5t5 55.5h-225v-114zM231 675v-112h226v112h-226zM755 563v112h-225v-112h225zM755 388v114h-226q-1 -27 -4.5 -56t-9.5 -58h240zM832 324h-332q-22 -70 -68 -140.5t-124 -135.5t-199 -119q-10 12 -25.5 27t-30.5 26q109 48 182 104.5t117.5 117t67.5 120.5h-263
v415h241q15 25 29 52.5t22 49.5l81 -17q-13 -21 -26 -43t-26 -42h354v-415zM629 6h202q24 0 36 7.5t17 30.5t7 69q12 -10 31 -17t35 -11q-5 -57 -16.5 -88.5t-36 -43.5t-68.5 -12h-211q-54 0 -84 8.5t-42 30.5t-12 61v246h73v-246q0 -22 13 -28.5t56 -6.5z" />
    <glyph glyph-name="uni2EE5" unicode="&#x2ee5;" 
d="M597 689h-265q-23 -28 -48.5 -56.5t-54.5 -55.5h280q24 24 46.5 54t41.5 58zM772 386v128h-235v-128h235zM772 196v130h-235v-130h235zM241 386h224v128h-224v-128zM465 326h-224v-130h224v130zM169 132v392q-15 -12 -30 -23.5t-32 -22.5q-7 13 -22 30.5t-28 27.5
q68 44 123 96t96.5 106t66.5 102l81 -15q-10 -17 -20.5 -34.5t-23.5 -35.5h262l12 4l50 -32q-19 -37 -47 -76t-57 -74h246v-445h-677zM65 39h872v-71h-872v71z" />
    <glyph glyph-name="uni2EE5" unicode="&#x9c7c;" 
d="M597 689h-265q-23 -28 -48.5 -56.5t-54.5 -55.5h280q24 24 46.5 54t41.5 58zM772 386v128h-235v-128h235zM772 196v130h-235v-130h235zM241 386h224v128h-224v-128zM465 326h-224v-130h224v130zM169 132v392q-15 -12 -30 -23.5t-32 -22.5q-7 13 -22 30.5t-28 27.5
q68 44 123 96t96.5 106t66.5 102l81 -15q-10 -17 -20.5 -34.5t-23.5 -35.5h262l12 4l50 -32q-19 -37 -47 -76t-57 -74h246v-445h-677zM65 39h872v-71h-872v71z" />
    <glyph glyph-name="uni2EE6" unicode="&#x2ee6;" 
d="M724 188v-66h-671v66h671zM260 373h656l-0.5 -13t-1.5 -20q-8 -126 -17.5 -203.5t-21.5 -118.5t-28 -58q-15 -16 -31.5 -22.5t-39.5 -8.5q-19 -1 -54 -1t-73 2q-1 16 -7 34.5t-14 33.5q38 -4 71.5 -5t48.5 -1q13 0 21.5 2.5t15.5 9.5q12 11 21.5 44t18 95.5t15.5 161.5
h-653v436h220q11 24 21 51t17 48l85 -11q-21 -48 -47 -88h326l-0.5 -11.5t-1.5 -18.5q-7 -83 -14 -136t-16 -82.5t-22 -42.5q-11 -13 -24 -18t-31 -7q-14 -1 -38.5 -1t-53.5 1q-1 16 -6 34.5t-13 31.5q26 -2 47.5 -3t31.5 -1q20 0 30 10q11 11 19.5 51t17.5 125h-475v-300z
M574 521l-41 -51q-22 16 -56.5 36t-73 40t-72.5 36l41 45q33 -14 71 -33t73 -38t58 -35z" />
    <glyph glyph-name="uni2EE6" unicode="&#x9e1f;" 
d="M724 188v-66h-671v66h671zM260 373h656l-0.5 -13t-1.5 -20q-8 -126 -17.5 -203.5t-21.5 -118.5t-28 -58q-15 -16 -31.5 -22.5t-39.5 -8.5q-19 -1 -54 -1t-73 2q-1 16 -7 34.5t-14 33.5q38 -4 71.5 -5t48.5 -1q13 0 21.5 2.5t15.5 9.5q12 11 21.5 44t18 95.5t15.5 161.5
h-653v436h220q11 24 21 51t17 48l85 -11q-21 -48 -47 -88h326l-0.5 -11.5t-1.5 -18.5q-7 -83 -14 -136t-16 -82.5t-22 -42.5q-11 -13 -24 -18t-31 -7q-14 -1 -38.5 -1t-53.5 1q-1 16 -6 34.5t-13 31.5q26 -2 47.5 -3t31.5 -1q20 0 30 10q11 11 19.5 51t17.5 125h-475v-300z
M574 521l-41 -51q-22 16 -56.5 36t-73 40t-72.5 36l41 45q33 -14 71 -33t73 -38t58 -35z" />
    <glyph glyph-name="uni2EE8" unicode="&#x2ee8;" 
d="M692 265h-358q32 -43 75.5 -80t95.5 -66q57 29 105 66t82 80zM755 331l49 -30q-38 -68 -95.5 -122t-128.5 -96q163 -69 383 -89q-11 -13 -23.5 -33t-19.5 -36q-121 14 -226 43t-192 74q-94 -45 -200.5 -73.5t-213.5 -45.5q-4 15 -14 34.5t-19 31.5q97 11 193.5 35
t182.5 60q-46 32 -85.5 69.5t-71.5 81.5q-74 -55 -165 -97q-8 13 -23 28.5t-29 24.5q104 44 181.5 102t123.5 114h-307v63h407v85h-298v60h298v79h-357v63h357v79h73v-79h367v-63h-367v-79h312v-60h-312v-85h411v-63h-490q-16 -20 -34 -40t-38 -40h358z" />
    <glyph glyph-name="uni2EE8" unicode="&#x9ea6;" 
d="M692 265h-358q32 -43 75.5 -80t95.5 -66q57 29 105 66t82 80zM755 331l49 -30q-38 -68 -95.5 -122t-128.5 -96q163 -69 383 -89q-11 -13 -23.5 -33t-19.5 -36q-121 14 -226 43t-192 74q-94 -45 -200.5 -73.5t-213.5 -45.5q-4 15 -14 34.5t-19 31.5q97 11 193.5 35
t182.5 60q-46 32 -85.5 69.5t-71.5 81.5q-74 -55 -165 -97q-8 13 -23 28.5t-29 24.5q104 44 181.5 102t123.5 114h-307v63h407v85h-298v60h298v79h-357v63h357v79h73v-79h367v-63h-367v-79h312v-60h-312v-85h411v-63h-490q-16 -20 -34 -40t-38 -40h358z" />
    <glyph glyph-name="uni2EE9" unicode="&#x2ee9;" 
d="M354 89l67 -43q-40 -24 -93 -48t-108.5 -43.5t-106.5 -33.5q-8 11 -23 27.5t-28 26.5q51 12 106 31t104.5 41t81.5 42zM591 42l45 47q55 -18 111 -38.5t106 -40t86 -36.5l-55 -50q-51 25 -130 57t-163 61zM380 682v-96h243v96h-243zM768 391h-231v-88h231v88zM768 162v89
h-231v-89h231zM238 251v-89h224v89h-224zM238 391v-88h224v88h-224zM699 586h246v-68h-408v-72h305v-340h-676v340h296v72h-404v68h248v96h-176v67h176v88h74v-88h243v88h76v-88h179v-67h-179v-96z" />
    <glyph glyph-name="uni2EE9" unicode="&#x9ec4;" 
d="M354 89l67 -43q-40 -24 -93 -48t-108.5 -43.5t-106.5 -33.5q-8 11 -23 27.5t-28 26.5q51 12 106 31t104.5 41t81.5 42zM591 42l45 47q55 -18 111 -38.5t106 -40t86 -36.5l-55 -50q-51 25 -130 57t-163 61zM380 682v-96h243v96h-243zM768 391h-231v-88h231v88zM768 162v89
h-231v-89h231zM238 251v-89h224v89h-224zM238 391v-88h224v88h-224zM699 586h246v-68h-408v-72h305v-340h-676v340h296v72h-404v68h248v96h-176v67h176v88h74v-88h243v88h76v-88h179v-67h-179v-96z" />
    <glyph glyph-name="uni2EEC" unicode="&#x2eec;" 
d="M268 227v111h74v-113q0 -53 -10.5 -107t-44.5 -104t-105 -91q-9 13 -26 29t-31 25q64 35 94.5 77t39.5 86.5t9 86.5zM655 -77v414h75v-414h-75zM669 669h-350q70 -92 183 -152q52 30 94 68t73 84zM932 669h-176q-34 -58 -79.5 -104t-101.5 -83q81 -34 178.5 -56
t206.5 -31q-11 -13 -23 -32.5t-20 -35.5q-120 14 -224 42t-191 72q-89 -46 -194 -75t-220 -49q-6 14 -19 34t-23 33q108 14 205.5 37.5t178.5 59.5q-58 38 -105.5 85t-82.5 103h-176v65h422q-10 21 -23.5 44.5t-28.5 42.5l70 20q18 -25 37 -54.5t29 -52.5h360v-65z" />
    <glyph glyph-name="uni2EEC" unicode="&#x9f50;" 
d="M268 227v111h74v-113q0 -53 -10.5 -107t-44.5 -104t-105 -91q-9 13 -26 29t-31 25q64 35 94.5 77t39.5 86.5t9 86.5zM655 -77v414h75v-414h-75zM669 669h-350q70 -92 183 -152q52 30 94 68t73 84zM932 669h-176q-34 -58 -79.5 -104t-101.5 -83q81 -34 178.5 -56
t206.5 -31q-11 -13 -23 -32.5t-20 -35.5q-120 14 -224 42t-191 72q-89 -46 -194 -75t-220 -49q-6 14 -19 34t-23 33q108 14 205.5 37.5t178.5 59.5q-58 38 -105.5 85t-82.5 103h-176v65h422q-10 21 -23.5 44.5t-28.5 42.5l70 20q18 -25 37 -54.5t29 -52.5h360v-65z" />
    <glyph glyph-name="uni2EEE" unicode="&#x2eee;" 
d="M809 38v400h75v-510h-75v42h-684v466h75v-398h609zM484 449l69 -12q-7 -30 -16 -58t-20 -54q44 -31 93 -68t93 -73t73 -64l-50 -49q-26 26 -65.5 60t-84.5 70t-87 67q-37 -65 -89 -115.5t-116 -86.5q-9 9 -27 23.5t-30 21.5q101 50 165.5 134.5t91.5 203.5zM545 543h403
v-68h-886v68h152v242h73v-242h183v293h75v-106h316v-64h-316v-123z" />
    <glyph glyph-name="uni2EEE" unicode="&#x9f7f;" 
d="M809 38v400h75v-510h-75v42h-684v466h75v-398h609zM484 449l69 -12q-7 -30 -16 -58t-20 -54q44 -31 93 -68t93 -73t73 -64l-50 -49q-26 26 -65.5 60t-84.5 70t-87 67q-37 -65 -89 -115.5t-116 -86.5q-9 9 -27 23.5t-30 21.5q101 50 165.5 134.5t91.5 203.5zM545 543h403
v-68h-886v68h152v242h73v-242h183v293h75v-106h316v-64h-316v-123z" />
    <glyph glyph-name="uni2EF0" unicode="&#x2ef0;" 
d="M825 673l-50 -47q-19 21 -49.5 47t-64.5 52.5t-66 48.5l48 41q31 -21 65.5 -46.5t65.5 -50.5t51 -45zM659 21h178q20 0 30.5 9t15 34t6.5 72q14 -9 33.5 -17.5t35.5 -12.5q-4 -60 -15.5 -93.5t-35 -47t-65.5 -13.5h-190q-49 0 -76 10t-38 35t-11 70q-81 -56 -166 -96
q-9 13 -23 30t-28 28q115 50 217 126v374h-111q-18 -138 -54.5 -248t-101 -195t-166.5 -148q-7 12 -25 32t-30 31q96 53 156 128.5t94 175t50 224.5h-282v70h290q5 56 8.5 115t5.5 123l77 -3q-2 -63 -5.5 -121.5t-8.5 -113.5h516v-70h-339v-313q64 57 116.5 122.5
t90.5 136.5l67 -28q-50 -91 -120 -173.5t-154 -150.5v-55q0 -29 10.5 -38t47.5 -9z" />
    <glyph glyph-name="uni2EF0" unicode="&#x9f99;" 
d="M825 673l-50 -47q-19 21 -49.5 47t-64.5 52.5t-66 48.5l48 41q31 -21 65.5 -46.5t65.5 -50.5t51 -45zM659 21h178q20 0 30.5 9t15 34t6.5 72q14 -9 33.5 -17.5t35.5 -12.5q-4 -60 -15.5 -93.5t-35 -47t-65.5 -13.5h-190q-49 0 -76 10t-38 35t-11 70q-81 -56 -166 -96
q-9 13 -23 30t-28 28q115 50 217 126v374h-111q-18 -138 -54.5 -248t-101 -195t-166.5 -148q-7 12 -25 32t-30 31q96 53 156 128.5t94 175t50 224.5h-282v70h290q5 56 8.5 115t5.5 123l77 -3q-2 -63 -5.5 -121.5t-8.5 -113.5h516v-70h-339v-313q64 57 116.5 122.5
t90.5 136.5l67 -28q-50 -91 -120 -173.5t-154 -150.5v-55q0 -29 10.5 -38t47.5 -9z" />
    <glyph glyph-name="uni2EF3" unicode="&#x2ef3;" 
d="M223 217h233v125h-233v-125zM594 704h-263q-45 -60 -102 -117h267q26 24 51.5 55t46.5 62zM223 523v-122h233v122h-233zM767 401v122h-236v-122h236zM531 217h236v125h-236v-125zM604 9h213q27 0 41 11t20 41.5t9 89.5q14 -10 34 -17.5t36 -11.5q-5 -71 -18 -111
t-40 -56.5t-78 -16.5h-223q-54 0 -85 10.5t-44 38t-13 76.5v90h-233v-55h-76v413q-13 -10 -27 -21t-29 -22q-8 14 -23.5 30.5t-28.5 25.5q68 46 123 100t97 110t69 106l83 -16q-8 -13 -16.5 -27t-18.5 -28h264l15 5l50 -34q-22 -39 -51.5 -78.5t-61.5 -74.5h250v-434h-311
v-90q0 -34 13.5 -44t59.5 -10z" />
    <glyph glyph-name="uni2EF3" unicode="&#x9f9f;" 
d="M223 217h233v125h-233v-125zM594 704h-263q-45 -60 -102 -117h267q26 24 51.5 55t46.5 62zM223 523v-122h233v122h-233zM767 401v122h-236v-122h236zM531 217h236v125h-236v-125zM604 9h213q27 0 41 11t20 41.5t9 89.5q14 -10 34 -17.5t36 -11.5q-5 -71 -18 -111
t-40 -56.5t-78 -16.5h-223q-54 0 -85 10.5t-44 38t-13 76.5v90h-233v-55h-76v413q-13 -10 -27 -21t-29 -22q-8 14 -23.5 30.5t-28.5 25.5q68 46 123 100t97 110t69 106l83 -16q-8 -13 -16.5 -27t-18.5 -28h264l15 5l50 -34q-22 -39 -51.5 -78.5t-61.5 -74.5h250v-434h-311
v-90q0 -34 13.5 -44t59.5 -10z" />
    <glyph glyph-name="uni2F00" unicode="&#x2f00;" 
d="M48 430h908v-81h-908v81z" />
    <glyph glyph-name="uni2F00" unicode="&#x4e00;" 
d="M48 430h908v-81h-908v81z" />
    <glyph glyph-name="uni2F04" unicode="&#x2f04;" 
d="M299 39h464q36 0 55.5 16t28.5 60.5t12 129.5q16 -9 38 -16.5t38 -11.5q-7 -103 -25 -157.5t-54.5 -75t-99.5 -20.5h-449q-109 0 -161.5 37t-52.5 101q0 19 4.5 39.5t21 48.5t51.5 68t94 97.5t149.5 137t219.5 186.5h-534v75h639l18 5l52 -37q-5 -7 -15 -11
q-147 -119 -250.5 -207t-171.5 -150t-108.5 -103.5t-60 -68.5t-25 -44t-5.5 -30q0 -36 34.5 -52.5t92.5 -16.5z" />
    <glyph glyph-name="uni2F04" unicode="&#x4e59;" 
d="M299 39h464q36 0 55.5 16t28.5 60.5t12 129.5q16 -9 38 -16.5t38 -11.5q-7 -103 -25 -157.5t-54.5 -75t-99.5 -20.5h-449q-109 0 -161.5 37t-52.5 101q0 19 4.5 39.5t21 48.5t51.5 68t94 97.5t149.5 137t219.5 186.5h-534v75h639l18 5l52 -37q-5 -7 -15 -11
q-147 -119 -250.5 -207t-171.5 -150t-108.5 -103.5t-60 -68.5t-25 -44t-5.5 -30q0 -36 34.5 -52.5t92.5 -16.5z" />
    <glyph glyph-name="uni2F06" unicode="&#x2f06;" 
d="M144 693h713v-79h-713v79zM60 104h881v-81h-881v81z" />
    <glyph glyph-name="uni2F06" unicode="&#x4e8c;" 
d="M144 693h713v-79h-713v79zM60 104h881v-81h-881v81z" />
    <glyph glyph-name="uni2F08" unicode="&#x2f08;" 
d="M458 833h82q-1 -27 -2 -64t-5 -81q4 -30 13 -81.5t26.5 -116t47.5 -135t76 -138.5t111.5 -126t153.5 -97q-16 -13 -31 -30t-23 -33q-94 44 -162.5 108.5t-116 140.5t-78 153.5t-48.5 147.5q-17 -75 -47 -152.5t-76.5 -151t-113.5 -137.5t-159 -113q-10 15 -26.5 31
t-33.5 27q104 53 175 125t116 154.5t69.5 166.5t35 161.5t13 140t3.5 100.5z" />
    <glyph glyph-name="uni2F08" unicode="&#x4eba;" 
d="M458 833h82q-1 -27 -2 -64t-5 -81q4 -30 13 -81.5t26.5 -116t47.5 -135t76 -138.5t111.5 -126t153.5 -97q-16 -13 -31 -30t-23 -33q-94 44 -162.5 108.5t-116 140.5t-78 153.5t-48.5 147.5q-17 -75 -47 -152.5t-76.5 -151t-113.5 -137.5t-159 -113q-10 15 -26.5 31
t-33.5 27q104 53 175 125t116 154.5t69.5 166.5t35 161.5t13 140t3.5 100.5z" />
    <glyph glyph-name="uni2F09" unicode="&#x2f09;" 
d="M629 796h75v-736q0 -35 7 -45t31 -10h104q18 0 27 17.5t12.5 63t5.5 127.5q34 -25 70 -34q-4 -91 -13.5 -144.5t-31.5 -77t-65 -23.5h-118q-40 0 -63 11t-32 38.5t-9 77.5v735zM261 795h74v-322q0 -76 -8 -151t-32.5 -146.5t-74 -135.5t-132.5 -118q-7 12 -23 30t-29 28
q76 48 121 106t67.5 122t29.5 131t7 134v322z" />
    <glyph glyph-name="uni2F09" unicode="&#x513f;" 
d="M629 796h75v-736q0 -35 7 -45t31 -10h104q18 0 27 17.5t12.5 63t5.5 127.5q34 -25 70 -34q-4 -91 -13.5 -144.5t-31.5 -77t-65 -23.5h-118q-40 0 -63 11t-32 38.5t-9 77.5v735zM261 795h74v-322q0 -76 -8 -151t-32.5 -146.5t-74 -135.5t-132.5 -118q-7 12 -23 30t-29 28
q76 48 121 106t67.5 122t29.5 131t7 134v322z" />
    <glyph glyph-name="uni2F0A" unicode="&#x2f0a;" 
d="M297 751l45 64q79 -57 133.5 -124t94.5 -140t76 -146.5t77 -144t97.5 -132.5t139.5 -112q-10 -14 -21.5 -39.5t-15.5 -42.5q-85 48 -144.5 112.5t-103 139t-81 152.5t-78.5 153q-57 -195 -155 -333.5t-249 -227.5q-10 12 -31 31t-36 29q167 86 265 237t146 362
q-32 46 -71 87t-88 75z" />
    <glyph glyph-name="uni2F0A" unicode="&#x5165;" 
d="M297 751l45 64q79 -57 133.5 -124t94.5 -140t76 -146.5t77 -144t97.5 -132.5t139.5 -112q-10 -14 -21.5 -39.5t-15.5 -42.5q-85 48 -144.5 112.5t-103 139t-81 152.5t-78.5 153q-57 -195 -155 -333.5t-249 -227.5q-10 12 -31 31t-36 29q167 86 265 237t146 362
q-32 46 -71 87t-88 75z" />
    <glyph glyph-name="uni2F0B" unicode="&#x2f0b;" 
d="M307 739l80 -6q-10 -110 -27.5 -223.5t-50 -220.5t-85.5 -200t-135 -161q-8 12 -24.5 29t-27.5 27q77 63 126 150t78 188t44 207.5t22 209.5zM659 762q1 -18 4.5 -67.5t14.5 -119.5t31.5 -150.5t54.5 -162.5t84.5 -155t121.5 -127q-41 -22 -64 -51q-72 57 -123.5 134
t-86 163.5t-56 171.5t-32.5 159t-15.5 127t-6.5 73z" />
    <glyph glyph-name="uni2F0B" unicode="&#x516b;" 
d="M307 739l80 -6q-10 -110 -27.5 -223.5t-50 -220.5t-85.5 -200t-135 -161q-8 12 -24.5 29t-27.5 27q77 63 126 150t78 188t44 207.5t22 209.5zM659 762q1 -18 4.5 -67.5t14.5 -119.5t31.5 -150.5t54.5 -162.5t84.5 -155t121.5 -127q-41 -22 -64 -51q-72 57 -123.5 134
t-86 163.5t-56 171.5t-32.5 159t-15.5 127t-6.5 73z" />
    <glyph glyph-name="uni2F0F" unicode="&#x2f0f;" 
d="M758 18h95q15 0 22 16t10.5 57t5.5 116q14 -11 34.5 -20t36.5 -14q-4 -84 -13 -134t-30 -71.5t-61 -21.5h-111q-38 0 -59.5 10.5t-30.5 37.5t-9 76v636h-316v-232q0 -65 -8 -138.5t-31 -148t-68.5 -143t-120.5 -123.5q-8 12 -26 30t-31 26q71 52 113 113.5t62.5 127
t27 131.5t6.5 126v304h468v-710q0 -32 6.5 -41.5t27.5 -9.5z" />
    <glyph glyph-name="uni2F0F" unicode="&#x51e0;" 
d="M758 18h95q15 0 22 16t10.5 57t5.5 116q14 -11 34.5 -20t36.5 -14q-4 -84 -13 -134t-30 -71.5t-61 -21.5h-111q-38 0 -59.5 10.5t-30.5 37.5t-9 76v636h-316v-232q0 -65 -8 -138.5t-31 -148t-68.5 -143t-120.5 -123.5q-8 12 -26 30t-31 26q71 52 113 113.5t62.5 127
t27 131.5t6.5 126v304h468v-710q0 -32 6.5 -41.5t27.5 -9.5z" />
    <glyph glyph-name="uni2F11" unicode="&#x2f11;" 
d="M89 729h815v-16.5t-1 -25.5q-6 -182 -12 -308.5t-14 -207.5t-19 -126.5t-28 -65.5q-19 -23 -39.5 -32.5t-49.5 -12.5q-28 -3 -74.5 -2t-94.5 4q-1 17 -8 40t-18 39q55 -4 101 -5t66 -1q30 -1 45 16q19 18 31.5 85.5t21 199.5t14.5 345h-352q-4 -79 -13.5 -162t-31.5 -165
t-62 -158t-104.5 -140t-159.5 -111q-9 15 -24.5 33t-31.5 30q91 42 152 100.5t98 128t56.5 145t27.5 152t11 147.5h-302v74z" />
    <glyph glyph-name="uni2F11" unicode="&#x5200;" 
d="M89 729h815v-16.5t-1 -25.5q-6 -182 -12 -308.5t-14 -207.5t-19 -126.5t-28 -65.5q-19 -23 -39.5 -32.5t-49.5 -12.5q-28 -3 -74.5 -2t-94.5 4q-1 17 -8 40t-18 39q55 -4 101 -5t66 -1q30 -1 45 16q19 18 31.5 85.5t21 199.5t14.5 345h-352q-4 -79 -13.5 -162t-31.5 -165
t-62 -158t-104.5 -140t-159.5 -111q-9 15 -24.5 33t-31.5 30q91 42 152 100.5t98 128t56.5 145t27.5 152t11 147.5h-302v74z" />
    <glyph glyph-name="uni2F12" unicode="&#x2f12;" 
d="M488 619h416l-0.5 -15.5t-1.5 -23.5q-8 -154 -16.5 -261.5t-18.5 -178t-22.5 -110.5t-29.5 -59q-17 -21 -36.5 -29t-48.5 -11q-26 -2 -70 -1t-90 4q-1 17 -7.5 38.5t-17.5 37.5q51 -4 94.5 -5.5t62.5 -1.5q16 0 26.5 3t19.5 12q18 17 32 74t25 167t20 286h-341
q-5 -78 -23.5 -160t-58 -164t-109.5 -159t-179 -143q-9 14 -26 32t-31 27q102 60 167.5 130t103.5 144t55.5 148.5t23.5 144.5h-320v74h324v22v21v173h77v-173v-21v-22z" />
    <glyph glyph-name="uni2F12" unicode="&#xf98a;" 
d="M488 619h416l-0.5 -15.5t-1.5 -23.5q-8 -154 -16.5 -261.5t-18.5 -178t-22.5 -110.5t-29.5 -59q-17 -21 -36.5 -29t-48.5 -11q-26 -2 -70 -1t-90 4q-1 17 -7.5 38.5t-17.5 37.5q51 -4 94.5 -5.5t62.5 -1.5q16 0 26.5 3t19.5 12q18 17 32 74t25 167t20 286h-341
q-5 -78 -23.5 -160t-58 -164t-109.5 -159t-179 -143q-9 14 -26 32t-31 27q102 60 167.5 130t103.5 144t55.5 148.5t23.5 144.5h-320v74h324v22v21v173h77v-173v-21v-22z" />
    <glyph glyph-name="uni2F12" unicode="&#x529b;" 
d="M488 619h416l-0.5 -15.5t-1.5 -23.5q-8 -154 -16.5 -261.5t-18.5 -178t-22.5 -110.5t-29.5 -59q-17 -21 -36.5 -29t-48.5 -11q-26 -2 -70 -1t-90 4q-1 17 -7.5 38.5t-17.5 37.5q51 -4 94.5 -5.5t62.5 -1.5q16 0 26.5 3t19.5 12q18 17 32 74t25 167t20 286h-341
q-5 -78 -23.5 -160t-58 -164t-109.5 -159t-179 -143q-9 14 -26 32t-31 27q102 60 167.5 130t103.5 144t55.5 148.5t23.5 144.5h-320v74h324v22v21v173h77v-173v-21v-22z" />
    <glyph glyph-name="uni2F17" unicode="&#x2f17;" 
d="M949 465v-76h-408v-465h-79v465h-403v76h403v370h79v-370h408z" />
    <glyph glyph-name="uni2F17" unicode="&#x5341;" 
d="M949 465v-76h-408v-465h-79v465h-403v76h403v370h79v-370h408z" />
    <glyph glyph-name="uni2F18" unicode="&#x2f18;" 
d="M897 317l-48 -72q-32 22 -78.5 49t-100.5 55.5t-109.5 56.5t-105.5 52v-533h-84v910h84v-339l24 32q50 -22 107.5 -49t115.5 -55.5t108.5 -56t86.5 -50.5z" />
    <glyph glyph-name="uni2F18" unicode="&#x535c;" 
d="M897 317l-48 -72q-32 22 -78.5 49t-100.5 55.5t-109.5 56.5t-105.5 52v-533h-84v910h84v-339l24 32q50 -22 107.5 -49t115.5 -55.5t108.5 -56t86.5 -50.5z" />
    <glyph glyph-name="uni2F1A" unicode="&#x2f1a;" 
d="M932 766v-76h-707v-220q0 -60 -4 -130.5t-16 -144t-34.5 -142.5t-59.5 -126q-10 10 -31.5 23.5t-35.5 19.5q36 54 56.5 118t30.5 130.5t13 131t3 120.5v296h785z" />
    <glyph glyph-name="uni2F1A" unicode="&#x5382;" 
d="M932 766v-76h-707v-220q0 -60 -4 -130.5t-16 -144t-34.5 -142.5t-59.5 -126q-10 10 -31.5 23.5t-35.5 19.5q36 54 56.5 118t30.5 130.5t13 131t3 120.5v296h785z" />
    <glyph glyph-name="uni2F1C" unicode="&#x2f1c;" 
d="M762 692h-509q41 -127 103 -236.5t147 -196.5q86 83 152.5 190t106.5 243zM805 769l50 -23q-43 -172 -119.5 -305.5t-179.5 -232.5q83 -71 184.5 -124t223.5 -83q-13 -12 -27 -32t-22 -35q-127 35 -230 90t-186 131q-91 -76 -194.5 -130.5t-216.5 -91.5q-6 14 -20 35.5
t-27 32.5q112 33 214.5 84t190.5 122q-91 97 -156.5 219t-112.5 266h-76v73h692z" />
    <glyph glyph-name="uni2F1C" unicode="&#x53c8;" 
d="M762 692h-509q41 -127 103 -236.5t147 -196.5q86 83 152.5 190t106.5 243zM805 769l50 -23q-43 -172 -119.5 -305.5t-179.5 -232.5q83 -71 184.5 -124t223.5 -83q-13 -12 -27 -32t-22 -35q-127 35 -230 90t-186 131q-91 -76 -194.5 -130.5t-216.5 -91.5q-6 14 -20 35.5
t-27 32.5q112 33 214.5 84t190.5 122q-91 97 -156.5 219t-112.5 266h-76v73h692z" />
    <glyph glyph-name="uni2F1D" unicode="&#x2f1d;" 
d="M206 108h588v551h-588v-551zM131 733h742v-780h-79v80h-588v-85h-75v785z" />
    <glyph glyph-name="uni2F1D" unicode="&#x53e3;" 
d="M206 108h588v551h-588v-551zM131 733h742v-780h-79v80h-588v-85h-75v785z" />
    <glyph glyph-name="uni2F1F" unicode="&#x2f1f;" 
d="M537 40h409v-73h-890v73h403v403h-340v73h340v317h78v-317h345v-73h-345v-403z" />
    <glyph glyph-name="uni2F1F" unicode="&#x571f;" 
d="M537 40h409v-73h-890v73h403v403h-340v73h340v317h78v-317h345v-73h-345v-403z" />
    <glyph glyph-name="uni2F20" unicode="&#x2f20;" 
d="M946 447h-409v-395h356v-73h-781v73h347v395h-403v73h403v313h78v-313h409v-73z" />
    <glyph glyph-name="uni2F20" unicode="&#x58eb;" 
d="M946 447h-409v-395h356v-73h-781v73h347v395h-403v73h403v313h78v-313h409v-73z" />
    <glyph glyph-name="uni2F23" unicode="&#x2f23;" 
d="M835 682l54 -24q-40 -156 -110.5 -277.5t-165.5 -211.5t-207 -151.5t-234 -98.5q-7 16 -20 37.5t-25 33.5q120 32 231.5 92t202.5 149q-29 29 -70 61t-86.5 63.5t-88.5 56.5l53 48q42 -23 87 -53t86.5 -60.5t72.5 -58.5q56 66 101 145t74 172h-382q-56 -79 -123 -145.5
t-139 -116.5q-10 11 -30.5 29t-34.5 28q119 72 215 186t152 251l78 -22q-16 -36 -33.5 -70t-37.5 -67h366z" />
    <glyph glyph-name="uni2F23" unicode="&#x5915;" 
d="M835 682l54 -24q-40 -156 -110.5 -277.5t-165.5 -211.5t-207 -151.5t-234 -98.5q-7 16 -20 37.5t-25 33.5q120 32 231.5 92t202.5 149q-29 29 -70 61t-86.5 63.5t-88.5 56.5l53 48q42 -23 87 -53t86.5 -60.5t72.5 -58.5q56 66 101 145t74 172h-382q-56 -79 -123 -145.5
t-139 -116.5q-10 11 -30.5 29t-34.5 28q119 72 215 186t152 251l78 -22q-16 -36 -33.5 -70t-37.5 -67h366z" />
    <glyph glyph-name="uni2F24" unicode="&#x2f24;" 
d="M939 475h-377q35 -110 90 -204.5t131 -165t172 -110.5q-13 -13 -29.5 -33t-26.5 -37q-144 68 -241.5 196.5t-156.5 298.5q-24 -96 -71 -188.5t-126.5 -171.5t-201.5 -135q-8 15 -24 32.5t-32 28.5q124 54 202.5 132.5t122.5 170.5t64 186h-369v76h381q11 79 12.5 152
t2.5 132h80q-1 -60 -3 -132.5t-13 -151.5h413v-76z" />
    <glyph glyph-name="uni2F24" unicode="&#x5927;" 
d="M939 475h-377q35 -110 90 -204.5t131 -165t172 -110.5q-13 -13 -29.5 -33t-26.5 -37q-144 68 -241.5 196.5t-156.5 298.5q-24 -96 -71 -188.5t-126.5 -171.5t-201.5 -135q-8 15 -24 32.5t-32 28.5q124 54 202.5 132.5t122.5 170.5t64 186h-369v76h381q11 79 12.5 152
t2.5 132h80q-1 -60 -3 -132.5t-13 -151.5h413v-76z" />
    <glyph glyph-name="uni2F25" unicode="&#x2f25;" 
d="M669 520h-280q-24 -59 -49 -114t-48 -102q58 -22 114.5 -46t111.5 -50q54 59 90.5 136.5t60.5 175.5zM941 520h-190q-24 -109 -62 -195.5t-94 -152.5q95 -46 178.5 -92.5t145.5 -89.5l-60 -66q-62 44 -144.5 92.5t-178.5 96.5q-78 -67 -187.5 -111t-258.5 -69
q-6 18 -17 39t-23 34q134 20 234 55.5t172 90.5q-66 32 -136 61.5t-141 56.5q30 51 61.5 115.5t62.5 134.5h-240v78h272q26 64 48 127.5t38 120.5l79 -12q-16 -55 -36 -115.5t-43 -120.5h520v-78z" />
    <glyph glyph-name="uni2F25" unicode="&#x5973;" 
d="M669 520h-280q-24 -59 -49 -114t-48 -102q58 -22 114.5 -46t111.5 -50q54 59 90.5 136.5t60.5 175.5zM941 520h-190q-24 -109 -62 -195.5t-94 -152.5q95 -46 178.5 -92.5t145.5 -89.5l-60 -66q-62 44 -144.5 92.5t-178.5 96.5q-78 -67 -187.5 -111t-258.5 -69
q-6 18 -17 39t-23 34q134 20 234 55.5t172 90.5q-66 32 -136 61.5t-141 56.5q30 51 61.5 115.5t62.5 134.5h-240v78h272q26 64 48 127.5t38 120.5l79 -12q-16 -55 -36 -115.5t-43 -120.5h520v-78z" />
    <glyph glyph-name="uni2F26" unicode="&#x2f26;" 
d="M950 394v-74h-408v-298q0 -37 -11 -56.5t-40 -27.5q-28 -10 -76 -12t-120 -2q-4 17 -13 38.5t-19 37.5q61 -2 110.5 -2t65.5 1q15 1 21 6t6 18v297h-412v74h412v144q62 29 130 72t120 86h-563v73h644l16 4l56 -42q-42 -42 -96.5 -84t-114 -80t-116.5 -67v-106h408z" />
    <glyph glyph-name="uni2F26" unicode="&#x5b50;" 
d="M950 394v-74h-408v-298q0 -37 -11 -56.5t-40 -27.5q-28 -10 -76 -12t-120 -2q-4 17 -13 38.5t-19 37.5q61 -2 110.5 -2t65.5 1q15 1 21 6t6 18v297h-412v74h412v144q62 29 130 72t120 86h-563v73h644l16 4l56 -42q-42 -42 -96.5 -84t-114 -80t-116.5 -67v-106h408z" />
    <glyph glyph-name="uni2F28" unicode="&#x2f28;" 
d="M169 415l63 37q37 -37 74 -81t66.5 -88t45.5 -80l-66 -42q-16 35 -45 79.5t-65 90.5t-73 84zM945 625v-73h-234v-517q0 -46 -13.5 -67.5t-44.5 -30.5q-31 -10 -87 -12.5t-137 -2.5q-4 17 -13.5 41.5t-19.5 41.5q69 -2 127 -2.5t78 0.5q18 1 25 7.5t7 23.5v518h-578v73
h578v211h78v-211h234z" />
    <glyph glyph-name="uni2F28" unicode="&#x5bf8;" 
d="M169 415l63 37q37 -37 74 -81t66.5 -88t45.5 -80l-66 -42q-16 35 -45 79.5t-65 90.5t-73 84zM945 625v-73h-234v-517q0 -46 -13.5 -67.5t-44.5 -30.5q-31 -10 -87 -12.5t-137 -2.5q-4 17 -13.5 41.5t-19.5 41.5q69 -2 127 -2.5t78 0.5q18 1 25 7.5t7 23.5v518h-578v73
h578v211h78v-211h234z" />
    <glyph glyph-name="uni2F29" unicode="&#x2f29;" 
d="M465 822h79v-795q0 -41 -12 -60.5t-38 -29.5q-27 -9 -74 -11.5t-117 -1.5q-4 16 -13 38.5t-18 38.5q55 -2 102.5 -2t61.5 1q29 0 29 27v795zM704 570l70 27q44 -70 84.5 -149.5t70.5 -155.5t42 -136l-78 -33q-12 59 -40.5 136t-67 158.5t-81.5 152.5zM204 590l82 -15
q-16 -73 -41 -152.5t-59.5 -153t-79.5 -129.5q-13 10 -34 21.5t-36 17.5q45 53 78 123t55.5 145.5t34.5 142.5z" />
    <glyph glyph-name="uni2F29" unicode="&#x5c0f;" 
d="M465 822h79v-795q0 -41 -12 -60.5t-38 -29.5q-27 -9 -74 -11.5t-117 -1.5q-4 16 -13 38.5t-18 38.5q55 -2 102.5 -2t61.5 1q29 0 29 27v795zM704 570l70 27q44 -70 84.5 -149.5t70.5 -155.5t42 -136l-78 -33q-12 59 -40.5 136t-67 158.5t-81.5 152.5zM204 590l82 -15
q-16 -73 -41 -152.5t-59.5 -153t-79.5 -129.5q-13 10 -34 21.5t-36 17.5q45 53 78 123t55.5 145.5t34.5 142.5z" />
    <glyph glyph-name="uni2F2B" unicode="&#x2f2b;" 
d="M795 531v174h-541v-174h541zM871 780v-324h-617q-1 -85 -11.5 -177.5t-40.5 -180.5t-90 -161q-10 10 -29.5 24.5t-33.5 22.5q44 54 69.5 117.5t38.5 131t17 133.5t4 124v290h693z" />
    <glyph glyph-name="uni2F2B" unicode="&#x5c38;" 
d="M795 531v174h-541v-174h541zM871 780v-324h-617q-1 -85 -11.5 -177.5t-40.5 -180.5t-90 -161q-10 10 -29.5 24.5t-33.5 22.5q44 54 69.5 117.5t38.5 131t17 133.5t4 124v290h693z" />
    <glyph glyph-name="uni2F2D" unicode="&#x2f2d;" 
d="M814 631h76v-704h-76v74h-703v629h76v-554h274v749h76v-749h277v555z" />
    <glyph glyph-name="uni2F2D" unicode="&#x5c71;" 
d="M814 631h76v-704h-76v74h-703v629h76v-554h274v749h76v-749h277v555z" />
    <glyph glyph-name="uni2F2F" unicode="&#x2f2f;" 
d="M538 74h409v-74h-892v74h402v574h-350v76h790v-76h-359v-574z" />
    <glyph glyph-name="uni2F2F" unicode="&#x5de5;" 
d="M538 74h409v-74h-892v74h402v574h-350v76h790v-76h-359v-574z" />
    <glyph glyph-name="uni2F30" unicode="&#x2f30;" 
d="M362 18h382q40 0 64 7t37.5 26.5t20.5 55.5t12 93q16 -10 37 -18.5t37 -11.5q-6 -66 -17 -110t-33.5 -69t-60.5 -35.5t-98 -10.5h-377q-79 0 -125 11t-65.5 41t-19.5 86v371h594v249h-607v75h683v-460h-76v63h-519v-298q0 -27 10.5 -41t38.5 -19t82 -5z" />
    <glyph glyph-name="uni2F30" unicode="&#x5df1;" 
d="M362 18h382q40 0 64 7t37.5 26.5t20.5 55.5t12 93q16 -10 37 -18.5t37 -11.5q-6 -66 -17 -110t-33.5 -69t-60.5 -35.5t-98 -10.5h-377q-79 0 -125 11t-65.5 41t-19.5 86v371h594v249h-607v75h683v-460h-76v63h-519v-298q0 -27 10.5 -41t38.5 -19t82 -5z" />
    <glyph glyph-name="uni2F31" unicode="&#x2f31;" 
d="M891 633v-474q0 -34 -9.5 -53t-35.5 -28q-27 -9 -73 -11t-114 -2q-3 17 -12 37.5t-17 35.5q56 -1 101.5 -1.5t59.5 0.5t19.5 5.5t5.5 17.5v400h-275v-639h-79v639h-263v-498h-77v571h340v204h79v-204h350z" />
    <glyph glyph-name="uni2F31" unicode="&#x5dfe;" 
d="M891 633v-474q0 -34 -9.5 -53t-35.5 -28q-27 -9 -73 -11t-114 -2q-3 17 -12 37.5t-17 35.5q56 -1 101.5 -1.5t59.5 0.5t19.5 5.5t5.5 17.5v400h-275v-639h-79v639h-263v-498h-77v571h340v204h79v-204h350z" />
    <glyph glyph-name="uni2F32" unicode="&#x2f32;" 
d="M944 433v-76h-407v-432h-81v432h-399v76h399v257h-348v75h790v-75h-361v-257h407z" />
    <glyph glyph-name="uni2F32" unicode="&#x5e72;" 
d="M944 433v-76h-407v-432h-81v432h-399v76h399v257h-348v75h790v-75h-361v-257h407z" />
    <glyph glyph-name="uni2F34" unicode="&#x2f34;" 
d="M937 686v-73h-714v-213q0 -55 -4.5 -118.5t-17 -129.5t-36 -127.5t-62.5 -112.5q-10 12 -28.5 29.5t-32.5 24.5q47 63 69 138.5t28 152.5t6 143v286h372q-7 29 -20.5 67t-27.5 69l75 16q17 -34 32 -74t22 -69l-35 -9h374z" />
    <glyph glyph-name="uni2F34" unicode="&#x5e7f;" 
d="M937 686v-73h-714v-213q0 -55 -4.5 -118.5t-17 -129.5t-36 -127.5t-62.5 -112.5q-10 12 -28.5 29.5t-32.5 24.5q47 63 69 138.5t28 152.5t6 143v286h372q-7 29 -20.5 67t-27.5 69l75 16q17 -34 32 -74t22 -69l-35 -9h374z" />
    <glyph glyph-name="uni2F38" unicode="&#x2f38;" 
d="M225 319h662l-1 -14t-3 -22q-13 -98 -27.5 -162t-31 -101.5t-37.5 -55.5q-19 -19 -41 -24.5t-57 -7.5q-28 -1 -79 -0.5t-109 4.5q-1 18 -9.5 39.5t-20.5 38.5q41 -4 80.5 -6t71 -3t46.5 -1q20 0 32.5 2t22.5 9q23 17 40.5 72t33.5 162h-665q9 40 19.5 92t20 106.5
t15.5 103.5h569v149h-614v73h688v-295h-578q-7 -40 -13.5 -81t-14.5 -78z" />
    <glyph glyph-name="uni2F38" unicode="&#x5f13;" 
d="M225 319h662l-1 -14t-3 -22q-13 -98 -27.5 -162t-31 -101.5t-37.5 -55.5q-19 -19 -41 -24.5t-57 -7.5q-28 -1 -79 -0.5t-109 4.5q-1 18 -9.5 39.5t-20.5 38.5q41 -4 80.5 -6t71 -3t46.5 -1q20 0 32.5 2t22.5 9q23 17 40.5 72t33.5 162h-665q9 40 19.5 92t20 106.5
t15.5 103.5h569v149h-614v73h688v-295h-578q-7 -40 -13.5 -81t-14.5 -78z" />
    <glyph glyph-name="uni2F3C" unicode="&#x2f3c;" 
d="M344 753l49 49q47 -32 98.5 -71.5t97 -78.5t73.5 -71l-53 -55q-27 31 -71.5 71t-95.5 81.5t-98 74.5zM759 484l69 27q29 -59 55.5 -126.5t47.5 -132t31 -116.5l-73 -29q-10 52 -30 117.5t-46 133.5t-54 126zM138 485l72 -14q-8 -58 -21 -129.5t-29.5 -140.5t-37.5 -122
l-74 31q22 51 39.5 116t30.5 133t20 126zM297 560h75v-493q0 -34 13 -44.5t56 -10.5h191q31 0 46.5 16t22 60.5t10.5 130.5q14 -10 34 -19t36 -14q-5 -94 -18 -147.5t-42 -75t-85 -21.5h-201q-54 0 -84 11t-42 38.5t-12 76.5v492z" />
    <glyph glyph-name="uni2F3C" unicode="&#x5fc3;" 
d="M344 753l49 49q47 -32 98.5 -71.5t97 -78.5t73.5 -71l-53 -55q-27 31 -71.5 71t-95.5 81.5t-98 74.5zM759 484l69 27q29 -59 55.5 -126.5t47.5 -132t31 -116.5l-73 -29q-10 52 -30 117.5t-46 133.5t-54 126zM138 485l72 -14q-8 -58 -21 -129.5t-29.5 -140.5t-37.5 -122
l-74 31q22 51 39.5 116t30.5 133t20 126zM297 560h75v-493q0 -34 13 -44.5t56 -10.5h191q31 0 46.5 16t22 60.5t10.5 130.5q14 -10 34 -19t36 -14q-5 -94 -18 -147.5t-42 -75t-85 -21.5h-201q-54 0 -84 11t-42 38.5t-12 76.5v492z" />
    <glyph glyph-name="uni2F3E" unicode="&#x2f3e;" 
d="M247 414h521v199h-520v-146v-26t-1 -27zM528 683h315v-404h-75v65h-523q-5 -71 -20 -147t-44.5 -148t-79.5 -131q-9 10 -29 24.5t-34 20.5q45 55 72 119.5t40.5 131.5t17.5 132t4 121v216h323q-9 29 -24 68t-30 72l72 19q17 -34 34.5 -75t26.5 -70z" />
    <glyph glyph-name="uni2F3E" unicode="&#x6237;" 
d="M247 414h521v199h-520v-146v-26t-1 -27zM528 683h315v-404h-75v65h-523q-5 -71 -20 -147t-44.5 -148t-79.5 -131q-9 10 -29 24.5t-34 20.5q45 55 72 119.5t40.5 131.5t17.5 132t4 121v216h323q-9 29 -24 68t-30 72l72 19q17 -34 34.5 -75t26.5 -70z" />
    <glyph glyph-name="uni2F3F" unicode="&#x2f3f;" 
d="M949 322v-73h-410v-222q0 -40 -12.5 -59t-40.5 -28t-77.5 -11.5t-128.5 -1.5q-4 16 -13.5 37.5t-18.5 36.5q63 -2 115.5 -2t69.5 1q17 0 24 6t7 22v221h-411v73h411v162h-344v71h344v154q-82 -9 -165.5 -14.5t-160.5 -9.5q-2 15 -8 34t-11 32q89 4 184 11t186.5 17.5
t170.5 24t135 31.5l56 -59q-64 -19 -143.5 -33.5t-168.5 -25.5v-162h354v-71h-354v-162h410z" />
    <glyph glyph-name="uni2F3F" unicode="&#x624b;" 
d="M949 322v-73h-410v-222q0 -40 -12.5 -59t-40.5 -28t-77.5 -11.5t-128.5 -1.5q-4 16 -13.5 37.5t-18.5 36.5q63 -2 115.5 -2t69.5 1q17 0 24 6t7 22v221h-411v73h411v162h-344v71h344v154q-82 -9 -165.5 -14.5t-160.5 -9.5q-2 15 -8 34t-11 32q89 4 184 11t186.5 17.5
t170.5 24t135 31.5l56 -59q-64 -19 -143.5 -33.5t-168.5 -25.5v-162h354v-71h-354v-162h410z" />
    <glyph glyph-name="uni2F40" unicode="&#x2f40;" 
d="M728 385h-440q75 -142 216 -233q71 45 128 102.5t96 130.5zM785 461l51 -32q-43 -102 -110 -180t-153 -137q82 -42 178.5 -70t208.5 -42q-12 -13 -25 -34t-21 -38q-121 19 -224.5 53t-188.5 85q-93 -52 -200 -86.5t-220 -56.5q-5 15 -17.5 36.5t-23.5 34.5
q107 17 206.5 46t186.5 72q-142 103 -223 265l22 8h-106v73h334v153h-379v73h379v152h76v-152h381v-73h-381v-153h234z" />
    <glyph glyph-name="uni2F40" unicode="&#x652f;" 
d="M728 385h-440q75 -142 216 -233q71 45 128 102.5t96 130.5zM785 461l51 -32q-43 -102 -110 -180t-153 -137q82 -42 178.5 -70t208.5 -42q-12 -13 -25 -34t-21 -38q-121 19 -224.5 53t-188.5 85q-93 -52 -200 -86.5t-220 -56.5q-5 15 -17.5 36.5t-23.5 34.5
q107 17 206.5 46t186.5 72q-142 103 -223 265l22 8h-106v73h334v153h-379v73h379v152h76v-152h381v-73h-381v-153h234z" />
    <glyph glyph-name="uni2F42" unicode="&#x2f42;" 
d="M578 689l-81 -26q-9 31 -30 75.5t-44 81.5l77 22q23 -35 45.5 -78t32.5 -75zM709 588h-424q39 -95 93.5 -179.5t124.5 -155.5q67 68 118 151t88 184zM950 588h-157q-43 -118 -101 -214t-133 -173q83 -70 184 -122t220 -81q-13 -13 -27.5 -33t-23.5 -36q-243 69 -410 219
q-84 -73 -187.5 -128t-228.5 -95q-7 14 -21 35t-25 34q246 70 408 207q-77 80 -136.5 177t-103.5 210h-154v73h896v-73z" />
    <glyph glyph-name="uni2F42" unicode="&#x6587;" 
d="M578 689l-81 -26q-9 31 -30 75.5t-44 81.5l77 22q23 -35 45.5 -78t32.5 -75zM709 588h-424q39 -95 93.5 -179.5t124.5 -155.5q67 68 118 151t88 184zM950 588h-157q-43 -118 -101 -214t-133 -173q83 -70 184 -122t220 -81q-13 -13 -27.5 -33t-23.5 -36q-243 69 -410 219
q-84 -73 -187.5 -128t-228.5 -95q-7 14 -21 35t-25 34q246 70 408 207q-77 80 -136.5 177t-103.5 210h-154v73h896v-73z" />
    <glyph glyph-name="uni2F43" unicode="&#x2f43;" 
d="M520 646l-44 -63q-26 20 -66 44.5t-84.5 49t-85.5 43.5l43 56q40 -17 84.5 -40t85.5 -46.5t67 -43.5zM433 415l-45 -64q-29 21 -73.5 46t-93.5 50t-94 44l43 55q44 -17 93.5 -40t95 -47t74.5 -44zM941 246l-240 -35v-287h-77v276l-551 -80l-11 72l562 81v563h77v-552
l230 33z" />
    <glyph glyph-name="uni2F43" unicode="&#x6597;" 
d="M520 646l-44 -63q-26 20 -66 44.5t-84.5 49t-85.5 43.5l43 56q40 -17 84.5 -40t85.5 -46.5t67 -43.5zM433 415l-45 -64q-29 21 -73.5 46t-93.5 50t-94 44l43 55q44 -17 93.5 -40t95 -47t74.5 -44zM941 246l-240 -35v-287h-77v276l-551 -80l-11 72l562 81v563h77v-552
l230 33z" />
    <glyph glyph-name="uni2F44" unicode="&#x2f44;" 
d="M929 479v-74h-267v-475h-79v475h-331q-3 -78 -14.5 -165t-38.5 -170t-75 -151q-10 11 -31 25t-35 21q41 57 65 123.5t36 136.5t15.5 137t3.5 125v265q81 4 167 10.5t168 16t153 21.5t123 27l64 -60q-78 -22 -177.5 -38.5t-208 -26.5t-213.5 -15v-201v-7h675z" />
    <glyph glyph-name="uni2F44" unicode="&#x65a4;" 
d="M929 479v-74h-267v-475h-79v475h-331q-3 -78 -14.5 -165t-38.5 -170t-75 -151q-10 11 -31 25t-35 21q41 57 65 123.5t36 136.5t15.5 137t3.5 125v265q81 4 167 10.5t168 16t153 21.5t123 27l64 -60q-78 -22 -177.5 -38.5t-208 -26.5t-213.5 -15v-201v-7h675z" />
    <glyph glyph-name="uni2F45" unicode="&#x2f45;" 
d="M932 592h-509q-2 -40 -5.5 -79.5t-8.5 -79.5h426l-0.5 -14t-2.5 -22q-9 -140 -20 -227.5t-24.5 -134t-33.5 -66.5q-18 -19 -37.5 -26t-48.5 -9q-26 -1 -71.5 -0.5t-95.5 3.5q-1 17 -8.5 37.5t-18.5 35.5q54 -4 101 -5.5t67 -1.5q17 0 27.5 2t19.5 9q15 13 26.5 52
t21.5 111t18 184h-357q-16 -88 -49 -170t-92 -151t-153 -119q-9 14 -24.5 31.5t-29.5 27.5q96 48 152.5 117t85 151t39.5 170.5t15 173.5h-270v72h436q-9 30 -28.5 73t-38.5 77l70 28q21 -35 41.5 -76t31.5 -72l-70 -30h418v-72z" />
    <glyph glyph-name="uni2F45" unicode="&#x65b9;" 
d="M932 592h-509q-2 -40 -5.5 -79.5t-8.5 -79.5h426l-0.5 -14t-2.5 -22q-9 -140 -20 -227.5t-24.5 -134t-33.5 -66.5q-18 -19 -37.5 -26t-48.5 -9q-26 -1 -71.5 -0.5t-95.5 3.5q-1 17 -8.5 37.5t-18.5 35.5q54 -4 101 -5.5t67 -1.5q17 0 27.5 2t19.5 9q15 13 26.5 52
t21.5 111t18 184h-357q-16 -88 -49 -170t-92 -151t-153 -119q-9 14 -24.5 31.5t-29.5 27.5q96 48 152.5 117t85 151t39.5 170.5t15 173.5h-270v72h436q-9 30 -28.5 73t-38.5 77l70 28q21 -35 41.5 -76t31.5 -72l-70 -30h418v-72z" />
    <glyph glyph-name="uni2F46" unicode="&#x2f46;" 
d="M648 19h174q25 0 37 11.5t17.5 45.5t8.5 102q13 -10 34 -18.5t37 -12.5q-5 -79 -17 -122.5t-38 -60.5t-74 -17h-186q-51 0 -79.5 10t-39.5 35.5t-11 69.5v341h-21q-20 -96 -64.5 -186.5t-124.5 -166t-208 -127.5q-8 14 -22 32.5t-28 28.5q118 45 192.5 110t117 144.5
t63.5 164.5h-360v73h373q9 56 12.5 112t5.5 109h-329v72h772v-72h-370q-1 -53 -5.5 -109t-12.5 -112h445v-73h-359v-341q0 -26 11 -34.5t49 -8.5z" />
    <glyph glyph-name="uni2F46" unicode="&#x65e0;" 
d="M648 19h174q25 0 37 11.5t17.5 45.5t8.5 102q13 -10 34 -18.5t37 -12.5q-5 -79 -17 -122.5t-38 -60.5t-74 -17h-186q-51 0 -79.5 10t-39.5 35.5t-11 69.5v341h-21q-20 -96 -64.5 -186.5t-124.5 -166t-208 -127.5q-8 14 -22 32.5t-28 28.5q118 45 192.5 110t117 144.5
t63.5 164.5h-360v73h373q9 56 12.5 112t5.5 109h-329v72h772v-72h-370q-1 -53 -5.5 -109t-12.5 -112h445v-73h-359v-341q0 -26 11 -34.5t49 -8.5z" />
    <glyph glyph-name="uni2F47" unicode="&#x2f47;" 
d="M255 73h496v279h-496v-279zM751 695h-496v-270h496v270zM180 768h649v-829h-78v61h-496v-65h-75v833z" />
    <glyph glyph-name="uni2F47" unicode="&#x65e5;" 
d="M255 73h496v279h-496v-279zM751 695h-496v-270h496v270zM180 768h649v-829h-78v61h-496v-65h-75v833z" />
    <glyph glyph-name="uni2F49" unicode="&#x2f49;" 
d="M273 306h468v168h-457q0 -39 -2.5 -81.5t-8.5 -86.5zM741 711h-457v-166h457v166zM818 784v-752q0 -39 -12 -60t-40 -30q-28 -10 -79.5 -12t-131.5 -2q-4 16 -13 38.5t-18 38.5q42 -1 80 -1.5t66.5 -0.5h39.5q17 1 24 7.5t7 22.5v200h-480q-19 -85 -59 -166t-113 -145
q-7 12 -25.5 29t-29.5 25q60 53 95 115t52 129t22.5 132.5t5.5 125.5v306h609z" />
    <glyph glyph-name="uni2F49" unicode="&#x6708;" 
d="M273 306h468v168h-457q0 -39 -2.5 -81.5t-8.5 -86.5zM741 711h-457v-166h457v166zM818 784v-752q0 -39 -12 -60t-40 -30q-28 -10 -79.5 -12t-131.5 -2q-4 16 -13 38.5t-18 38.5q42 -1 80 -1.5t66.5 -0.5h39.5q17 1 24 7.5t7 22.5v200h-480q-19 -85 -59 -166t-113 -145
q-7 12 -25.5 29t-29.5 25q60 53 95 115t52 129t22.5 132.5t5.5 125.5v306h609z" />
    <glyph glyph-name="uni2F4A" unicode="&#x2f4a;" 
d="M931 518h-361q45 -84 109 -165.5t138 -148t149 -108.5q-13 -11 -30 -29.5t-27 -34.5q-68 43 -135 107t-127 141t-109 160v-517h-77v516q-47 -85 -107 -162.5t-127.5 -140.5t-138.5 -106q-10 14 -26.5 32.5t-29.5 29.5q77 42 150.5 109t136.5 149t107 168h-356v73h391v245
h77v-245h393v-73z" />
    <glyph glyph-name="uni2F4A" unicode="&#x6728;" 
d="M931 518h-361q45 -84 109 -165.5t138 -148t149 -108.5q-13 -11 -30 -29.5t-27 -34.5q-68 43 -135 107t-127 141t-109 160v-517h-77v516q-47 -85 -107 -162.5t-127.5 -140.5t-138.5 -106q-10 14 -26.5 32.5t-29.5 29.5q77 42 150.5 109t136.5 149t107 168h-356v73h391v245
h77v-245h393v-73z" />
    <glyph glyph-name="uni2F4B" unicode="&#x2f4b;" 
d="M822 600h-548q-30 -66 -66 -124t-75 -102q-12 9 -34 24t-36 23q49 50 90 117t73 145.5t53 161.5l78 -16q-11 -40 -24 -79t-28 -77h548l15 4l57 -21q-17 -52 -39.5 -106.5t-47 -103.5t-49.5 -86l-66 29q26 40 53 97t46 114zM534 547v-61q0 -35 -3 -74q46 -163 148 -272.5
t275 -150.5q-12 -12 -26 -31.5t-22 -35.5q-151 42 -247.5 134t-152.5 230q-22 -64 -68.5 -129.5t-129.5 -125t-213 -109.5q-6 13 -20.5 31t-27.5 29q115 43 190.5 93.5t120 105t66 108.5t28 105t6.5 94v59h76z" />
    <glyph glyph-name="uni2F4B" unicode="&#x6b20;" 
d="M822 600h-548q-30 -66 -66 -124t-75 -102q-12 9 -34 24t-36 23q49 50 90 117t73 145.5t53 161.5l78 -16q-11 -40 -24 -79t-28 -77h548l15 4l57 -21q-17 -52 -39.5 -106.5t-47 -103.5t-49.5 -86l-66 29q26 40 53 97t46 114zM534 547v-61q0 -35 -3 -74q46 -163 148 -272.5
t275 -150.5q-12 -12 -26 -31.5t-22 -35.5q-151 42 -247.5 134t-152.5 230q-22 -64 -68.5 -129.5t-129.5 -125t-213 -109.5q-6 13 -20.5 31t-27.5 29q115 43 190.5 93.5t120 105t66 108.5t28 105t6.5 94v59h76z" />
    <glyph glyph-name="uni2F4C" unicode="&#x2f4c;" 
d="M576 46h369v-73h-892v73h138v571h76v-571h232v787h77v-331h324v-73h-324v-383z" />
    <glyph glyph-name="uni2F4C" unicode="&#x6b62;" 
d="M576 46h369v-73h-892v73h138v571h76v-571h232v787h77v-331h324v-73h-324v-383z" />
    <glyph glyph-name="uni2F50" unicode="&#x2f50;" 
d="M210 52l244 76q-1 -18 0.5 -39.5t4.5 -35.5q-102 -33 -163.5 -54t-94.5 -33.5t-48 -20t-24 -14.5q-4 14 -15.5 34t-21.5 30q12 8 26.5 26.5t14.5 50.5v754h77v-297h247v-73h-247v-404zM664 21h139q25 0 37.5 19t18 69t8.5 142q14 -10 34.5 -20t36.5 -15
q-4 -99 -15.5 -157.5t-37.5 -84t-77 -25.5h-152q-48 0 -74.5 12t-37 43t-10.5 86v742h77v-375q71 44 138.5 96.5t112.5 98.5l62 -64q-64 -55 -147.5 -109.5t-165.5 -100.5v-291q0 -42 9.5 -54t43.5 -12z" />
    <glyph glyph-name="uni2F50" unicode="&#x6bd4;" 
d="M210 52l244 76q-1 -18 0.5 -39.5t4.5 -35.5q-102 -33 -163.5 -54t-94.5 -33.5t-48 -20t-24 -14.5q-4 14 -15.5 34t-21.5 30q12 8 26.5 26.5t14.5 50.5v754h77v-297h247v-73h-247v-404zM664 21h139q25 0 37.5 19t18 69t8.5 142q14 -10 34.5 -20t36.5 -15
q-4 -99 -15.5 -157.5t-37.5 -84t-77 -25.5h-152q-48 0 -74.5 12t-37 43t-10.5 86v742h77v-375q71 44 138.5 96.5t112.5 98.5l62 -64q-64 -55 -147.5 -109.5t-165.5 -100.5v-291q0 -42 9.5 -54t43.5 -12z" />
    <glyph glyph-name="uni2F51" unicode="&#x2f51;" 
d="M559 13h249q30 0 45 11.5t21.5 42t10.5 87.5q14 -10 35 -18t38 -13q-6 -69 -20 -108.5t-43.5 -56.5t-84.5 -17h-255q-60 0 -94 12t-47.5 42t-13.5 85v133l-326 -43l-11 70l337 44v155l-295 -41l-11 70l306 42v152q-153 -29 -302 -47q-2 14 -9 33t-13 31q93 12 189 28.5
t187.5 35.5t170 41t136.5 46l63 -58q-71 -28 -160 -52t-186 -44v-155l380 53l10 -69l-390 -55v-156l447 58l10 -69l-457 -60v-145q0 -40 15.5 -52.5t67.5 -12.5z" />
    <glyph glyph-name="uni2F51" unicode="&#x6bdb;" 
d="M559 13h249q30 0 45 11.5t21.5 42t10.5 87.5q14 -10 35 -18t38 -13q-6 -69 -20 -108.5t-43.5 -56.5t-84.5 -17h-255q-60 0 -94 12t-47.5 42t-13.5 85v133l-326 -43l-11 70l337 44v155l-295 -41l-11 70l306 42v152q-153 -29 -302 -47q-2 14 -9 33t-13 31q93 12 189 28.5
t187.5 35.5t170 41t136.5 46l63 -58q-71 -28 -160 -52t-186 -44v-155l380 53l10 -69l-390 -55v-156l447 58l10 -69l-457 -60v-145q0 -40 15.5 -52.5t67.5 -12.5z" />
    <glyph glyph-name="uni2F52" unicode="&#x2f52;" 
d="M246 450h296q-7 57 -11 118.5t-6 125.5q-69 -9 -140 -15.5t-139 -11.5v-217zM943 377h-316q20 -112 51 -195.5t72.5 -129t92.5 -45.5q23 0 33.5 34t15.5 117q12 -12 30 -22t33 -15q-6 -73 -19 -113.5t-36.5 -57t-61.5 -16.5q-76 0 -132 56.5t-94 156.5t-60 230h-306v-325
l281 78q0 -16 1.5 -36t4.5 -33q-114 -33 -182.5 -53.5t-105 -32t-52.5 -18t-25 -12.5q-4 13 -13.5 32.5t-17.5 29.5q11 7 23 22t12 45v654q84 6 173.5 15.5t176.5 21t163.5 26t133.5 30.5l39 -66q-54 -15 -120 -27.5t-138 -23.5q1 -67 5.5 -131t11.5 -123h326v-73z" />
    <glyph glyph-name="uni2F52" unicode="&#x6c0f;" 
d="M246 450h296q-7 57 -11 118.5t-6 125.5q-69 -9 -140 -15.5t-139 -11.5v-217zM943 377h-316q20 -112 51 -195.5t72.5 -129t92.5 -45.5q23 0 33.5 34t15.5 117q12 -12 30 -22t33 -15q-6 -73 -19 -113.5t-36.5 -57t-61.5 -16.5q-76 0 -132 56.5t-94 156.5t-60 230h-306v-325
l281 78q0 -16 1.5 -36t4.5 -33q-114 -33 -182.5 -53.5t-105 -32t-52.5 -18t-25 -12.5q-4 13 -13.5 32.5t-17.5 29.5q11 7 23 22t12 45v654q84 6 173.5 15.5t176.5 21t163.5 26t133.5 30.5l39 -66q-54 -15 -120 -27.5t-138 -23.5q1 -67 5.5 -131t11.5 -123h326v-73z" />
    <glyph glyph-name="uni2F53" unicode="&#x2f53;" 
d="M924 661h-660q-36 -70 -78.5 -130t-87.5 -107q-10 10 -31 24t-34 21q72 66 131 163.5t95 206.5l73 -19q-8 -24 -17.5 -48t-20.5 -47h630v-64zM850 525h-594v63h594v-63zM156 447h613q3 -85 10 -165.5t19.5 -145t33 -102t49.5 -37.5q14 0 19.5 36.5t6.5 98.5
q11 -11 25.5 -23t26.5 -20q-4 -88 -21 -126.5t-61 -38.5q-49 0 -82 35t-53 97.5t-30.5 146t-15.5 179.5h-540v65z" />
    <glyph glyph-name="uni2F53" unicode="&#x6c14;" 
d="M924 661h-660q-36 -70 -78.5 -130t-87.5 -107q-10 10 -31 24t-34 21q72 66 131 163.5t95 206.5l73 -19q-8 -24 -17.5 -48t-20.5 -47h630v-64zM850 525h-594v63h594v-63zM156 447h613q3 -85 10 -165.5t19.5 -145t33 -102t49.5 -37.5q14 0 19.5 36.5t6.5 98.5
q11 -11 25.5 -23t26.5 -20q-4 -88 -21 -126.5t-61 -38.5q-49 0 -82 35t-53 97.5t-30.5 146t-15.5 179.5h-540v65z" />
    <glyph glyph-name="uni2F54" unicode="&#x2f54;" 
d="M360 585l48 -19q-36 -195 -118 -332.5t-188 -211.5q-8 12 -26.5 30t-32.5 26q95 62 167.5 172t108.5 258h-244v74h270zM814 650l67 -48q-33 -38 -71.5 -79t-77.5 -78.5t-74 -67.5q64 -92 143.5 -166.5t169.5 -116.5q-13 -11 -29 -30.5t-26 -36.5q-77 41 -145.5 105
t-126 144.5t-103.5 170.5v-422q0 -37 -9.5 -56.5t-31.5 -29.5t-60.5 -13t-95.5 -3q-2 17 -10.5 41t-17.5 40q43 -1 78 -1.5t46 -0.5q13 1 18 5.5t5 17.5v809h78v-240q34 -85 80 -162q34 31 69 69t67.5 76.5t56.5 72.5z" />
    <glyph glyph-name="uni2F54" unicode="&#x6c34;" 
d="M360 585l48 -19q-36 -195 -118 -332.5t-188 -211.5q-8 12 -26.5 30t-32.5 26q95 62 167.5 172t108.5 258h-244v74h270zM814 650l67 -48q-33 -38 -71.5 -79t-77.5 -78.5t-74 -67.5q64 -92 143.5 -166.5t169.5 -116.5q-13 -11 -29 -30.5t-26 -36.5q-77 41 -145.5 105
t-126 144.5t-103.5 170.5v-422q0 -37 -9.5 -56.5t-31.5 -29.5t-60.5 -13t-95.5 -3q-2 17 -10.5 41t-17.5 40q43 -1 78 -1.5t46 -0.5q13 1 18 5.5t5 17.5v809h78v-240q34 -85 80 -162q34 31 69 69t67.5 76.5t56.5 72.5z" />
    <glyph glyph-name="uni2F55" unicode="&#x2f55;" 
d="M830 636l79 -32q-22 -47 -47.5 -98t-52 -98t-50.5 -83l-63 27q23 38 48.5 87.5t48 101t37.5 95.5zM214 637l72 -24q-12 -49 -30 -103t-42.5 -103t-56.5 -86l-70 35q31 36 55.5 83t42.5 98.5t29 99.5zM520 449h2q44 -176 149 -292.5t286 -159.5q-11 -13 -25.5 -33
t-22.5 -36q-160 46 -260.5 145t-156.5 250q-26 -85 -73 -160.5t-123.5 -136.5t-190.5 -104q-7 14 -21.5 31.5t-28.5 29.5q124 45 201.5 111.5t119.5 149t59.5 177.5t20.5 197t4 207h80q-1 -96 -3.5 -191.5t-16.5 -184.5z" />
    <glyph glyph-name="uni2F55" unicode="&#x706b;" 
d="M830 636l79 -32q-22 -47 -47.5 -98t-52 -98t-50.5 -83l-63 27q23 38 48.5 87.5t48 101t37.5 95.5zM214 637l72 -24q-12 -49 -30 -103t-42.5 -103t-56.5 -86l-70 35q31 36 55.5 83t42.5 98.5t29 99.5zM520 449h2q44 -176 149 -292.5t286 -159.5q-11 -13 -25.5 -33
t-22.5 -36q-160 46 -260.5 145t-156.5 250q-26 -85 -73 -160.5t-123.5 -136.5t-190.5 -104q-7 14 -21.5 31.5t-28.5 29.5q124 45 201.5 111.5t119.5 149t59.5 177.5t20.5 197t4 207h80q-1 -96 -3.5 -191.5t-16.5 -184.5z" />
    <glyph glyph-name="uni2F56" unicode="&#x2f56;" 
d="M803 806l68 -54q-17 -5 -35.5 -10t-38.5 -10q5 -123 15.5 -236.5t29.5 -211.5t50.5 -174.5t79.5 -124.5q-13 -10 -29 -28.5t-25 -34.5q-69 76 -107 194.5t-56 271t-26 330.5q-94 -20 -196 -35v-739h-73v729q-52 -7 -104.5 -13.5t-104.5 -11.5v-147q0 -63 -5.5 -137
t-20.5 -151.5t-43.5 -151t-75.5 -135.5q-9 10 -28 22t-32 18q45 59 72 127.5t40.5 140t17.5 140t4 127.5v203q84 8 171.5 19t171 24t155.5 28t125 31z" />
    <glyph glyph-name="uni2F56" unicode="&#x722a;" 
d="M803 806l68 -54q-17 -5 -35.5 -10t-38.5 -10q5 -123 15.5 -236.5t29.5 -211.5t50.5 -174.5t79.5 -124.5q-13 -10 -29 -28.5t-25 -34.5q-69 76 -107 194.5t-56 271t-26 330.5q-94 -20 -196 -35v-739h-73v729q-52 -7 -104.5 -13.5t-104.5 -11.5v-147q0 -63 -5.5 -137
t-20.5 -151.5t-43.5 -151t-75.5 -135.5q-9 10 -28 22t-32 18q45 59 72 127.5t40.5 140t17.5 140t4 127.5v203q84 8 171.5 19t171 24t155.5 28t125 31z" />
    <glyph glyph-name="uni2F57" unicode="&#x2f57;" 
d="M939 526l-69 -48q-26 43 -71.5 98t-99 111t-104.5 102l63 40q51 -45 105 -99t101 -107.5t75 -96.5zM325 827l76 -28q-36 -61 -83 -121t-98 -112.5t-100 -93.5q-8 12 -26 32t-32 32q49 36 97.5 82.5t91.5 100t74 108.5zM675 560l78 -23q-71 -201 -194 -335
q80 -70 180.5 -120.5t221.5 -79.5q-13 -13 -28.5 -34.5t-24.5 -38.5q-124 32 -225 86t-182 129q-82 -75 -185.5 -129.5t-228.5 -93.5q-7 14 -22 36.5t-27 35.5q126 34 228 85t182 122q-61 68 -108 151t-83 177l73 22q60 -169 174 -293q112 124 171 303z" />
    <glyph glyph-name="uni2F57" unicode="&#x7236;" 
d="M939 526l-69 -48q-26 43 -71.5 98t-99 111t-104.5 102l63 40q51 -45 105 -99t101 -107.5t75 -96.5zM325 827l76 -28q-36 -61 -83 -121t-98 -112.5t-100 -93.5q-8 12 -26 32t-32 32q49 36 97.5 82.5t91.5 100t74 108.5zM675 560l78 -23q-71 -201 -194 -335
q80 -70 180.5 -120.5t221.5 -79.5q-13 -13 -28.5 -34.5t-24.5 -38.5q-124 32 -225 86t-182 129q-82 -75 -185.5 -129.5t-228.5 -93.5q-7 14 -22 36.5t-27 35.5q126 34 228 85t182 122q-61 68 -108 151t-83 177l73 22q60 -169 174 -293q112 124 171 303z" />
    <glyph glyph-name="uni2F5A" unicode="&#x2f5a;" 
d="M259 504v-24q0 -34 -1 -67.5t-3 -67.5h491v-421h-79v345h-420q-12 -94 -45 -182.5t-102 -164.5q-9 14 -26.5 31t-30.5 27q63 71 93 153.5t38.5 170.5t8.5 175v331h76v-231h283v256h78v-256h280v-75h-641z" />
    <glyph glyph-name="uni2F5A" unicode="&#x7247;" 
d="M259 504v-24q0 -34 -1 -67.5t-3 -67.5h491v-421h-79v345h-420q-12 -94 -45 -182.5t-102 -164.5q-9 14 -26.5 31t-30.5 27q63 71 93 153.5t38.5 170.5t8.5 175v331h76v-231h283v256h78v-256h280v-75h-641z" />
    <glyph glyph-name="uni2F5B" unicode="&#x2f5b;" 
d="M935 442v-72h-225v-350q0 -36 -10.5 -54.5t-33.5 -27.5q-24 -9 -65 -12t-106 -2q-3 15 -11.5 37t-17.5 37q50 -1 91 -1.5t54 0.5t18.5 6t5.5 18v341q-66 -81 -154.5 -154.5t-187 -132t-193.5 -96.5q-10 14 -24 32.5t-28 31.5q89 32 181 82.5t175.5 113.5t145.5 131h-414
q14 39 28.5 90.5t28 105.5t23.5 101l73 -9q-12 -51 -26.5 -108.5t-29.5 -107.5h402v270h-512v72h765v-72h-178v-270h225z" />
    <glyph glyph-name="uni2F5B" unicode="&#x7259;" 
d="M935 442v-72h-225v-350q0 -36 -10.5 -54.5t-33.5 -27.5q-24 -9 -65 -12t-106 -2q-3 15 -11.5 37t-17.5 37q50 -1 91 -1.5t54 0.5t18.5 6t5.5 18v341q-66 -81 -154.5 -154.5t-187 -132t-193.5 -96.5q-10 14 -24 32.5t-28 31.5q89 32 181 82.5t175.5 113.5t145.5 131h-414
q14 39 28.5 90.5t28 105.5t23.5 101l73 -9q-12 -51 -26.5 -108.5t-29.5 -107.5h402v270h-512v72h765v-72h-178v-270h225z" />
    <glyph glyph-name="uni2F5C" unicode="&#x2f5c;" 
d="M947 345v-73h-397v-348h-77v348h-417v73h417v237h-244q-23 -47 -49.5 -88.5t-53.5 -75.5q-12 8 -33.5 20t-35.5 19q59 63 105 157.5t73 195.5l75 -15q-10 -36 -22.5 -71t-26.5 -69h212v182h77v-182h341v-73h-341v-237h397z" />
    <glyph glyph-name="uni2F5C" unicode="&#x725b;" 
d="M947 345v-73h-397v-348h-77v348h-417v73h417v237h-244q-23 -47 -49.5 -88.5t-53.5 -75.5q-12 8 -33.5 20t-35.5 19q59 63 105 157.5t73 195.5l75 -15q-10 -36 -22.5 -71t-26.5 -69h212v182h77v-182h341v-73h-341v-237h397z" />
    <glyph glyph-name="uni2F5D" unicode="&#x2f5d;" 
d="M877 646l-55 -49q-19 24 -51.5 54t-70.5 59.5t-74 53.5l51 45q36 -22 74.5 -51t72 -58t53.5 -54zM944 469h-384q34 -111 89.5 -205t133.5 -163t181 -107q-14 -12 -30.5 -32.5t-25.5 -37.5q-151 65 -249 189t-156 294q-23 -96 -70 -186.5t-127 -166t-204 -129.5
q-8 16 -24.5 34t-32.5 30q128 51 207 127t122 167t62 186h-379v75h391q10 77 11 151t2 140h80q-1 -67 -3 -140.5t-11 -150.5h417v-75z" />
    <glyph glyph-name="uni2F5D" unicode="&#x72ac;" 
d="M877 646l-55 -49q-19 24 -51.5 54t-70.5 59.5t-74 53.5l51 45q36 -22 74.5 -51t72 -58t53.5 -54zM944 469h-384q34 -111 89.5 -205t133.5 -163t181 -107q-14 -12 -30.5 -32.5t-25.5 -37.5q-151 65 -249 189t-156 294q-23 -96 -70 -186.5t-127 -166t-204 -129.5
q-8 16 -24.5 34t-32.5 30q128 51 207 127t122 167t62 186h-379v75h391q10 77 11 151t2 140h80q-1 -67 -3 -140.5t-11 -150.5h417v-75z" />
    <glyph glyph-name="uni2F5F" unicode="&#x2f5f;" 
d="M533 36h413v-73h-890v73h399v317h-308v73h308v272h-350v73h792v-73h-364v-272h325v-73h-325v-317zM624 264l53 42q31 -28 66 -61t67 -64t52 -55l-56 -49q-20 24 -51 56.5t-65.5 67t-65.5 63.5z" />
    <glyph glyph-name="uni2F5F" unicode="&#x7389;" 
d="M533 36h413v-73h-890v73h399v317h-308v73h308v272h-350v73h792v-73h-364v-272h325v-73h-325v-317zM624 264l53 42q31 -28 66 -61t67 -64t52 -55l-56 -49q-20 24 -51 56.5t-65.5 67t-65.5 63.5z" />
    <glyph glyph-name="uni2F60" unicode="&#x2f60;" 
d="M796 823l61 -59q-19 -4 -40 -8.5t-43 -7.5q7 -124 19.5 -240t33.5 -216.5t54.5 -179.5t82.5 -129q-13 -10 -29 -29t-25 -33q-70 78 -111 200.5t-62 279t-31 334.5q-90 -15 -189 -27v-159q0 -73 -4.5 -156t-23.5 -168t-63 -165l199 42q-16 38 -32 77t-32 73l59 19
q24 -50 48.5 -107t45 -110t32.5 -92l-64 -24q-5 21 -14.5 47.5t-20.5 57.5q-87 -19 -140 -31.5t-82 -20t-42 -12.5t-20 -10q-5 13 -21.5 34t-25.5 31q48 58 74.5 123t37.5 132.5t13.5 134.5t2.5 128v147q-49 -4 -97 -9t-95 -10v-138q0 -66 -5.5 -145.5t-20.5 -163.5
t-45 -163.5t-80 -146.5q-10 11 -29 26t-31 21q47 64 74.5 137.5t41.5 150t18 149.5t4 135v196h1q81 6 166.5 15.5t168.5 20.5t155 23.5t126 25.5z" />
    <glyph glyph-name="uni2F60" unicode="&#x74dc;" 
d="M796 823l61 -59q-19 -4 -40 -8.5t-43 -7.5q7 -124 19.5 -240t33.5 -216.5t54.5 -179.5t82.5 -129q-13 -10 -29 -29t-25 -33q-70 78 -111 200.5t-62 279t-31 334.5q-90 -15 -189 -27v-159q0 -73 -4.5 -156t-23.5 -168t-63 -165l199 42q-16 38 -32 77t-32 73l59 19
q24 -50 48.5 -107t45 -110t32.5 -92l-64 -24q-5 21 -14.5 47.5t-20.5 57.5q-87 -19 -140 -31.5t-82 -20t-42 -12.5t-20 -10q-5 13 -21.5 34t-25.5 31q48 58 74.5 123t37.5 132.5t13.5 134.5t2.5 128v147q-49 -4 -97 -9t-95 -10v-138q0 -66 -5.5 -145.5t-20.5 -163.5
t-45 -163.5t-80 -146.5q-10 11 -29 26t-31 21q47 64 74.5 137.5t41.5 150t18 149.5t4 135v196h1q81 6 166.5 15.5t168.5 20.5t155 23.5t126 25.5z" />
    <glyph glyph-name="uni2F61" unicode="&#x2f61;" 
d="M767 10h82q14 0 21 13.5t10.5 52t4.5 114.5q13 -11 33 -19.5t35 -12.5q-3 -85 -12 -132.5t-29 -67t-57 -19.5h-99q-54 0 -74 23t-20 89v426h-318q-13 -82 -27 -167t-27 -160t-25 -128l341 48q-2 -16 -2.5 -36.5t-0.5 -32.5q-114 -17 -191 -29t-125 -19.5t-74.5 -12.5
t-39.5 -8.5t-21 -7.5q-4 17 -14 44t-18 43q22 5 41.5 16t27.5 41q5 13 13 52.5t18.5 96t21.5 122.5t22 132.5t20.5 126t16.5 101.5h-228v72h849v-72h-540q-5 -31 -11.5 -69.5t-14.5 -81.5h380v-496q0 -27 6 -34.5t25 -7.5zM367 360l59 38q33 -29 67.5 -64t65.5 -68.5
t50 -60.5l-63 -44q-18 27 -47.5 62t-64 71t-67.5 66z" />
    <glyph glyph-name="uni2F61" unicode="&#x74e6;" 
d="M767 10h82q14 0 21 13.5t10.5 52t4.5 114.5q13 -11 33 -19.5t35 -12.5q-3 -85 -12 -132.5t-29 -67t-57 -19.5h-99q-54 0 -74 23t-20 89v426h-318q-13 -82 -27 -167t-27 -160t-25 -128l341 48q-2 -16 -2.5 -36.5t-0.5 -32.5q-114 -17 -191 -29t-125 -19.5t-74.5 -12.5
t-39.5 -8.5t-21 -7.5q-4 17 -14 44t-18 43q22 5 41.5 16t27.5 41q5 13 13 52.5t18.5 96t21.5 122.5t22 132.5t20.5 126t16.5 101.5h-228v72h849v-72h-540q-5 -31 -11.5 -69.5t-14.5 -81.5h380v-496q0 -27 6 -34.5t25 -7.5zM367 360l59 38q33 -29 67.5 -64t65.5 -68.5
t50 -60.5l-63 -44q-18 27 -47.5 62t-64 71t-67.5 66z" />
    <glyph glyph-name="uni2F62" unicode="&#x2f62;" 
d="M687 357v216h-373v-216h373zM314 65h373v219h-373v-219zM948 646v-73h-182v-644h-79v63h-373v-69h-77v650h-184v73h184v185h77v-185h373v185h79v-185h182z" />
    <glyph glyph-name="uni2F62" unicode="&#x7518;" 
d="M687 357v216h-373v-216h373zM314 65h373v219h-373v-219zM948 646v-73h-182v-644h-79v63h-373v-69h-77v650h-184v73h184v185h77v-185h373v185h79v-185h182z" />
    <glyph glyph-name="uni2F63" unicode="&#x2f63;" 
d="M540 27h405v-72h-886v72h405v254h-297v72h297v218h-235q-49 -96 -104 -163q-11 9 -32 23t-36 21q62 66 109 164t76 204l75 -16q-12 -41 -25.5 -81.5t-30.5 -78.5h203v192h76v-192h358v-73h-358v-218h321v-72h-321v-254z" />
    <glyph glyph-name="uni2F63" unicode="&#x751f;" 
d="M540 27h405v-72h-886v72h405v254h-297v72h297v218h-235q-49 -96 -104 -163q-11 9 -32 23t-36 21q62 66 109 164t76 204l75 -16q-12 -41 -25.5 -81.5t-30.5 -78.5h203v192h76v-192h358v-73h-358v-218h321v-72h-321v-254z" />
    <glyph glyph-name="uni2F64" unicode="&#x2f64;" 
d="M542 299h269v166h-269v-166zM225 299h243v166h-239v-59q0 -25 -1 -52t-3 -55zM468 695h-239v-160h239v160zM811 535v160h-269v-160h269zM884 766v-742q0 -36 -10.5 -54.5t-34.5 -28.5q-25 -9 -70 -11t-116 -1q-2 15 -9.5 36t-15.5 36q53 -2 98 -2h58q15 1 21 6.5t6 19.5
v203h-269v-295h-74v295h-250q-11 -83 -39.5 -164.5t-85.5 -145.5q-8 11 -26.5 26.5t-30.5 22.5q55 62 80.5 137.5t32.5 154t7 147.5v360h728z" />
    <glyph glyph-name="uni2F64" unicode="&#x7528;" 
d="M542 299h269v166h-269v-166zM225 299h243v166h-239v-59q0 -25 -1 -52t-3 -55zM468 695h-239v-160h239v160zM811 535v160h-269v-160h269zM884 766v-742q0 -36 -10.5 -54.5t-34.5 -28.5q-25 -9 -70 -11t-116 -1q-2 15 -9.5 36t-15.5 36q53 -2 98 -2h58q15 1 21 6.5t6 19.5
v203h-269v-295h-74v295h-250q-11 -83 -39.5 -164.5t-85.5 -145.5q-8 11 -26.5 26.5t-30.5 22.5q55 62 80.5 137.5t32.5 154t7 147.5v360h728z" />
    <glyph glyph-name="uni2F65" unicode="&#x2f65;" 
d="M531 67h297v281h-297v-281zM173 348v-281h284v281h-284zM457 695h-284v-273h284v273zM828 422v273h-297v-273h297zM100 767h804v-835h-76v61h-655v-61h-73v835z" />
    <glyph glyph-name="uni2F65" unicode="&#x7530;" 
d="M531 67h297v281h-297v-281zM173 348v-281h284v281h-284zM457 695h-284v-273h284v273zM828 422v273h-297v-273h297zM100 767h804v-835h-76v61h-655v-61h-73v835z" />
    <glyph glyph-name="uni2F69" unicode="&#x2f69;" 
d="M220 70h558v233h-558v-233zM778 603h-558v-227h558v227zM472 677h383v-749h-77v68h-558v-73h-73v754h244q17 38 31.5 83t23.5 80l92 -17q-30 -76 -66 -146z" />
    <glyph glyph-name="uni2F69" unicode="&#x767d;" 
d="M220 70h558v233h-558v-233zM778 603h-558v-227h558v227zM472 677h383v-749h-77v68h-558v-73h-73v754h244q17 38 31.5 83t23.5 80l92 -17q-30 -76 -66 -146z" />
    <glyph glyph-name="uni2F6A" unicode="&#x2f6a;" 
d="M754 377h-371q33 -67 79.5 -125t105.5 -103q60 44 107.5 100.5t78.5 127.5zM224 455v-8h265v182h-265v-174zM806 450l49 -28q-35 -101 -92 -179.5t-131 -136.5q136 -84 324 -116q-12 -13 -25.5 -33t-21.5 -36q-100 21 -186 55t-157 83q-74 -48 -159.5 -80.5t-176.5 -54.5
q-6 15 -19 35.5t-24 32.5q86 17 166.5 46t150.5 69q-126 107 -198 270h-83q-3 -72 -15.5 -152.5t-39.5 -157.5t-76 -140q-9 11 -27.5 26.5t-31.5 22.5q40 52 63.5 113t35.5 125t15.5 126t3.5 116v245h338v137h76v-137h288l14 3l56 -15q-21 -56 -45 -113t-47 -96l-68 21
q14 25 28.5 59t28.5 69h-255v-182h227z" />
    <glyph glyph-name="uni2F6A" unicode="&#x76ae;" 
d="M754 377h-371q33 -67 79.5 -125t105.5 -103q60 44 107.5 100.5t78.5 127.5zM224 455v-8h265v182h-265v-174zM806 450l49 -28q-35 -101 -92 -179.5t-131 -136.5q136 -84 324 -116q-12 -13 -25.5 -33t-21.5 -36q-100 21 -186 55t-157 83q-74 -48 -159.5 -80.5t-176.5 -54.5
q-6 15 -19 35.5t-24 32.5q86 17 166.5 46t150.5 69q-126 107 -198 270h-83q-3 -72 -15.5 -152.5t-39.5 -157.5t-76 -140q-9 11 -27.5 26.5t-31.5 22.5q40 52 63.5 113t35.5 125t15.5 126t3.5 116v245h338v137h76v-137h288l14 3l56 -15q-21 -56 -45 -113t-47 -96l-68 21
q14 25 28.5 59t28.5 69h-255v-182h227z" />
    <glyph glyph-name="uni2F6C" unicode="&#x2f6c;" 
d="M234 70h523v164h-523v-164zM757 469h-523v-164h523v164zM757 702h-523v-162h523v162zM161 774h673v-845h-77v68h-523v-68h-73v845z" />
    <glyph glyph-name="uni2F6C" unicode="&#x76ee;" 
d="M234 70h523v164h-523v-164zM757 469h-523v-164h523v164zM757 702h-523v-162h523v162zM161 774h673v-845h-77v68h-523v-68h-73v845z" />
    <glyph glyph-name="uni2F6D" unicode="&#x2f6d;" 
d="M886 471l59 -26q-48 -75 -103.5 -148t-110.5 -122l-59 35q37 35 77.5 84.5t74.5 100.5h-264v-383q0 -34 -10.5 -52t-37.5 -26q-26 -9 -72 -10.5t-114 -1.5q-4 16 -12 35.5t-16 35.5q54 -2 100 -2.5t62 0.5q14 1 19 5.5t5 16.5v337q-52 -65 -117.5 -123.5t-137 -105.5
t-141.5 -78q-9 14 -23.5 32t-26.5 29q73 27 146 72t138 101.5t113 117.5h-375v72h494q-40 25 -88.5 50t-99 48t-97.5 40l49 52q46 -16 96 -37.5t97 -44.5q47 28 97.5 65t90.5 73h-545v70h619l17 5l55 -44q-55 -53 -126 -107t-139 -97q27 -15 51 -30t43 -29l-13 -14h212z" />
    <glyph glyph-name="uni2F6D" unicode="&#x77db;" 
d="M886 471l59 -26q-48 -75 -103.5 -148t-110.5 -122l-59 35q37 35 77.5 84.5t74.5 100.5h-264v-383q0 -34 -10.5 -52t-37.5 -26q-26 -9 -72 -10.5t-114 -1.5q-4 16 -12 35.5t-16 35.5q54 -2 100 -2.5t62 0.5q14 1 19 5.5t5 16.5v337q-52 -65 -117.5 -123.5t-137 -105.5
t-141.5 -78q-9 14 -23.5 32t-26.5 29q73 27 146 72t138 101.5t113 117.5h-375v72h494q-40 25 -88.5 50t-99 48t-97.5 40l49 52q46 -16 96 -37.5t97 -44.5q47 28 97.5 65t90.5 73h-545v70h619l17 5l55 -44q-55 -53 -126 -107t-139 -97q27 -15 51 -30t43 -29l-13 -14h212z" />
    <glyph glyph-name="uni2F6F" unicode="&#x2f6f;" 
d="M795 356h-475v-291h475v291zM933 687h-495q-23 -66 -53 -132t-67 -128h554v-503h-77v69h-475v-70h-74v396q-72 -97 -166 -169q-8 13 -24 30t-28 27q78 58 140.5 136t109.5 167t76 177h-285v73h864v-73z" />
    <glyph glyph-name="uni2F6F" unicode="&#x77f3;" 
d="M795 356h-475v-291h475v291zM933 687h-495q-23 -66 -53 -132t-67 -128h554v-503h-77v69h-475v-70h-74v396q-72 -97 -166 -169q-8 13 -24 30t-28 27q78 58 140.5 136t109.5 167t76 177h-285v73h864v-73z" />
    <glyph glyph-name="uni2F70" unicode="&#x2f70;" 
d="M850 762v-73h-698v73h698zM237 351l76 -20q-37 -91 -92 -175.5t-115 -141.5q-10 9 -31.5 23.5t-35.5 21.5q62 53 113.5 130t84.5 162zM682 322l68 28q37 -46 72.5 -101t64.5 -108t43 -95l-73 -32q-14 41 -41.5 94.5t-62 109.5t-71.5 104zM63 521h875v-73h-397v-428
q0 -35 -10.5 -54t-36.5 -28t-71 -11t-110 -2q-3 17 -11 39t-16 38q51 -1 94.5 -1.5t56.5 0.5q14 0 19.5 4.5t5.5 16.5v426h-399v73z" />
    <glyph glyph-name="uni2F70" unicode="&#x793a;" 
d="M850 762v-73h-698v73h698zM237 351l76 -20q-37 -91 -92 -175.5t-115 -141.5q-10 9 -31.5 23.5t-35.5 21.5q62 53 113.5 130t84.5 162zM682 322l68 28q37 -46 72.5 -101t64.5 -108t43 -95l-73 -32q-14 41 -41.5 94.5t-62 109.5t-71.5 104zM63 521h875v-73h-397v-428
q0 -35 -10.5 -54t-36.5 -28t-71 -11t-110 -2q-3 17 -11 39t-16 38q51 -1 94.5 -1.5t56.5 0.5q14 0 19.5 4.5t5.5 16.5v426h-399v73z" />
    <glyph glyph-name="uni2F72" unicode="&#x2f72;" 
d="M940 415h-358q46 -68 108 -133.5t132.5 -119t139.5 -87.5q-13 -12 -29.5 -30.5t-27.5 -34.5q-65 37 -131 92t-126.5 121.5t-109.5 137.5v-436h-78v433q-47 -72 -107 -137.5t-126 -119.5t-131 -91q-9 15 -25.5 33.5t-29.5 30.5q69 34 139 87.5t131.5 119t105.5 134.5h-354
v74h397v190q-170 -21 -334 -32q-1 15 -8 35.5t-13 33.5q92 7 188.5 16.5t189.5 22t173.5 28t139.5 33.5l62 -65q-67 -18 -148.5 -33.5t-171.5 -29.5v-199h402v-74z" />
    <glyph glyph-name="uni2F72" unicode="&#x79be;" 
d="M940 415h-358q46 -68 108 -133.5t132.5 -119t139.5 -87.5q-13 -12 -29.5 -30.5t-27.5 -34.5q-65 37 -131 92t-126.5 121.5t-109.5 137.5v-436h-78v433q-47 -72 -107 -137.5t-126 -119.5t-131 -91q-9 15 -25.5 33.5t-29.5 30.5q69 34 139 87.5t131.5 119t105.5 134.5h-354
v74h397v190q-170 -21 -334 -32q-1 15 -8 35.5t-13 33.5q92 7 188.5 16.5t189.5 22t173.5 28t139.5 33.5l62 -65q-67 -18 -148.5 -33.5t-171.5 -29.5v-199h402v-74z" />
    <glyph glyph-name="uni2F73" unicode="&#x2f73;" 
d="M163 579v-163h-73v235h408q-15 32 -41.5 77.5t-52.5 83.5l70 24q27 -37 55.5 -81.5t42.5 -76.5l-71 -27h414v-235h-75v163h-677zM321 425l76 -16q-39 -156 -110 -279t-172 -203q-9 11 -28 28.5t-31 27.5q98 71 164.5 185.5t100.5 256.5zM617 403l69 21q27 -87 68.5 -171
t94 -153t109.5 -113q-13 -10 -30 -28t-27 -33q-59 51 -113 126t-97.5 165.5t-73.5 185.5z" />
    <glyph glyph-name="uni2F73" unicode="&#x7a74;" 
d="M163 579v-163h-73v235h408q-15 32 -41.5 77.5t-52.5 83.5l70 24q27 -37 55.5 -81.5t42.5 -76.5l-71 -27h414v-235h-75v163h-677zM321 425l76 -16q-39 -156 -110 -279t-172 -203q-9 11 -28 28.5t-31 27.5q98 71 164.5 185.5t100.5 256.5zM617 403l69 21q27 -87 68.5 -171
t94 -153t109.5 -113q-13 -10 -30 -28t-27 -33q-59 51 -113 126t-97.5 165.5t-73.5 185.5z" />
    <glyph glyph-name="uni2F74" unicode="&#x2f74;" 
d="M553 682l-76 -22q-6 32 -20 78t-28 84l72 19q15 -38 30 -82.5t22 -76.5zM903 648v-73h-803v73h803zM411 102l-79 -19q-7 57 -22 130t-34 149t-38 141l74 18q20 -67 39 -142t35 -147t25 -130zM621 40h322v-74h-886v74h484q20 48 41 108.5t41 125.5t37 128.5t29 118.5
l84 -16q-20 -74 -46 -158t-53 -164t-53 -143z" />
    <glyph glyph-name="uni2F74" unicode="&#x7acb;" 
d="M553 682l-76 -22q-6 32 -20 78t-28 84l72 19q15 -38 30 -82.5t22 -76.5zM903 648v-73h-803v73h803zM411 102l-79 -19q-7 57 -22 130t-34 149t-38 141l74 18q20 -67 39 -142t35 -147t25 -130zM621 40h322v-74h-886v74h484q20 48 41 108.5t41 125.5t37 128.5t29 118.5
l84 -16q-20 -74 -46 -158t-53 -164t-53 -143z" />
    <glyph glyph-name="uni2F75" unicode="&#x2f75;" 
d="M500 561h-178v-637h-73v637h-48q-23 -55 -49.5 -103.5t-55.5 -87.5q-10 9 -31.5 23t-35.5 22q41 51 75.5 118.5t61.5 145.5t45 158l76 -16q-12 -48 -26 -95t-31 -92h270v-73zM957 634v-73h-151v-539q0 -36 -9 -55t-33 -27q-24 -10 -65.5 -12.5t-100.5 -2.5
q-3 17 -10 39.5t-15 38.5q46 -1 85 -1.5t52 0.5t17 5t4 15v539h-146q-23 -54 -49.5 -102.5t-55.5 -87.5q-10 10 -30 24t-34 21q61 76 106 188t71 233l74 -15q-11 -49 -24.5 -96t-30.5 -92h345z" />
    <glyph glyph-name="uni2F75" unicode="&#x7af9;" 
d="M500 561h-178v-637h-73v637h-48q-23 -55 -49.5 -103.5t-55.5 -87.5q-10 9 -31.5 23t-35.5 22q41 51 75.5 118.5t61.5 145.5t45 158l76 -16q-12 -48 -26 -95t-31 -92h270v-73zM957 634v-73h-151v-539q0 -36 -9 -55t-33 -27q-24 -10 -65.5 -12.5t-100.5 -2.5
q-3 17 -10 39.5t-15 38.5q46 -1 85 -1.5t52 0.5t17 5t4 15v539h-146q-23 -54 -49.5 -102.5t-55.5 -87.5q-10 10 -30 24t-34 21q61 76 106 188t71 233l74 -15q-11 -49 -24.5 -96t-30.5 -92h345z" />
    <glyph glyph-name="uni2F76" unicode="&#x2f76;" 
d="M811 786l80 -32q-24 -42 -52 -87t-56.5 -86.5t-53.5 -73.5l-64 29q25 33 52.5 76.5t52 89.5t41.5 84zM328 547l-72 -32q-11 31 -32 71.5t-48 83.5t-56 79l67 28q28 -35 56 -76t50.5 -81.5t34.5 -72.5zM937 380h-340q45 -67 105 -132t128 -118.5t133 -87.5
q-13 -11 -29.5 -30t-26.5 -34q-65 40 -132.5 98t-128.5 128t-109 143v-424h-77v422q-46 -76 -106.5 -147t-127 -129.5t-133.5 -99.5q-9 14 -25 32t-28 30q66 36 133 91t126.5 121.5t101.5 136.5h-339v73h398v382h77v-382h400v-73z" />
    <glyph glyph-name="uni2F76" unicode="&#x7c73;" 
d="M811 786l80 -32q-24 -42 -52 -87t-56.5 -86.5t-53.5 -73.5l-64 29q25 33 52.5 76.5t52 89.5t41.5 84zM328 547l-72 -32q-11 31 -32 71.5t-48 83.5t-56 79l67 28q28 -35 56 -76t50.5 -81.5t34.5 -72.5zM937 380h-340q45 -67 105 -132t128 -118.5t133 -87.5
q-13 -11 -29.5 -30t-26.5 -34q-65 40 -132.5 98t-128.5 128t-109 143v-424h-77v422q-46 -76 -106.5 -147t-127 -129.5t-133.5 -99.5q-9 14 -25 32t-28 30q66 36 133 91t126.5 121.5t101.5 136.5h-339v73h398v382h77v-382h400v-73z" />
    <glyph glyph-name="uni2F79" unicode="&#x2f79;" 
d="M506 207l-49 -48q-14 27 -33.5 59.5t-42.5 67.5q-30 -70 -67 -129.5t-82 -107.5q-8 8 -27 21t-31 20q52 50 92 116.5t68 145.5q-68 98 -138 183l46 41q29 -34 59 -72t58 -76q14 50 25 102t20 107l68 -7q-12 -73 -28 -140.5t-36 -129.5q29 -42 54.5 -81.5t43.5 -71.5z
M797 172l-52 -43q-15 32 -35.5 71t-46.5 81q-30 -71 -67.5 -131t-84.5 -109q-10 8 -28 21t-31 20q56 50 96.5 118.5t70.5 150.5q-67 98 -136 184l48 37q29 -33 57 -69.5t55 -74.5q14 49 24.5 100.5t18.5 106.5l67 -7q-11 -73 -26.5 -140.5t-35.5 -129.5q33 -50 60.5 -98
t45.5 -88zM911 776v-754q0 -35 -10.5 -54t-34.5 -29q-24 -9 -66 -11.5t-110 -1.5q-3 16 -11.5 37t-16.5 37q50 -2 93 -2h57q26 1 26 24v684h-672v-781h-74v851h819z" />
    <glyph glyph-name="uni2F79" unicode="&#x7f51;" 
d="M506 207l-49 -48q-14 27 -33.5 59.5t-42.5 67.5q-30 -70 -67 -129.5t-82 -107.5q-8 8 -27 21t-31 20q52 50 92 116.5t68 145.5q-68 98 -138 183l46 41q29 -34 59 -72t58 -76q14 50 25 102t20 107l68 -7q-12 -73 -28 -140.5t-36 -129.5q29 -42 54.5 -81.5t43.5 -71.5z
M797 172l-52 -43q-15 32 -35.5 71t-46.5 81q-30 -71 -67.5 -131t-84.5 -109q-10 8 -28 21t-31 20q56 50 96.5 118.5t70.5 150.5q-67 98 -136 184l48 37q29 -33 57 -69.5t55 -74.5q14 49 24.5 100.5t18.5 106.5l67 -7q-11 -73 -26.5 -140.5t-35.5 -129.5q33 -50 60.5 -98
t45.5 -88zM911 776v-754q0 -35 -10.5 -54t-34.5 -29q-24 -9 -66 -11.5t-110 -1.5q-3 16 -11.5 37t-16.5 37q50 -2 93 -2h57q26 1 26 24v684h-672v-781h-74v851h819z" />
    <glyph glyph-name="uni2F7A" unicode="&#x2f7a;" 
d="M943 227v-72h-406v-232h-76v232h-402v72h402v152h-301v71h301v143h-350v72h203q-12 31 -34.5 72t-46.5 74l66 26q27 -35 52 -77t37 -72l-54 -23h291q23 38 46 87t37 87l78 -21q-20 -39 -42 -79t-42 -74h194v-72h-359v-143h299v-71h-299v-152h406z" />
    <glyph glyph-name="uni2F7A" unicode="&#x7f8a;" 
d="M943 227v-72h-406v-232h-76v232h-402v72h402v152h-301v71h301v143h-350v72h203q-12 31 -34.5 72t-46.5 74l66 26q27 -35 52 -77t37 -72l-54 -23h291q23 38 46 87t37 87l78 -21q-20 -39 -42 -79t-42 -74h194v-72h-359v-143h299v-71h-299v-152h406z" />
    <glyph glyph-name="uni2F7B" unicode="&#x2f7b;" 
d="M453 785v-755q0 -37 -9.5 -56.5t-34.5 -28.5q-25 -10 -69.5 -12t-106.5 -2q-3 15 -11 38t-16 38q49 -2 92.5 -2.5t56.5 0.5q14 1 19.5 6t5.5 19v245q-82 -48 -163 -94t-148 -81l-30 66q42 21 97.5 50t118.5 62.5t125 67.5v367h-313v72h386zM82 582l59 34
q27 -28 55.5 -60.5t53.5 -63t41 -54.5l-61 -41q-15 24 -40 56.5t-53.5 66.5t-54.5 62zM905 785v-754q0 -38 -10.5 -58.5t-36.5 -28.5q-26 -10 -73.5 -12t-115.5 -2q-2 15 -10 38t-17 39q53 -3 100 -3t63 1q14 1 20 6.5t6 20.5v263q-81 -47 -161 -93.5t-145 -82.5l-37 66
q42 21 98 50.5t119 64t126 69.5v344h-319v72h393zM523 587l57 37q28 -28 57.5 -60.5t55 -62.5t41.5 -53l-60 -44q-16 24 -41.5 56.5t-54 66t-55.5 60.5z" />
    <glyph glyph-name="uni2F7B" unicode="&#x7fbd;" 
d="M453 785v-755q0 -37 -9.5 -56.5t-34.5 -28.5q-25 -10 -69.5 -12t-106.5 -2q-3 15 -11 38t-16 38q49 -2 92.5 -2.5t56.5 0.5q14 1 19.5 6t5.5 19v245q-82 -48 -163 -94t-148 -81l-30 66q42 21 97.5 50t118.5 62.5t125 67.5v367h-313v72h386zM82 582l59 34
q27 -28 55.5 -60.5t53.5 -63t41 -54.5l-61 -41q-15 24 -40 56.5t-53.5 66.5t-54.5 62zM905 785v-754q0 -38 -10.5 -58.5t-36.5 -28.5q-26 -10 -73.5 -12t-115.5 -2q-2 15 -10 38t-17 39q53 -3 100 -3t63 1q14 1 20 6.5t6 20.5v263q-81 -47 -161 -93.5t-145 -82.5l-37 66
q42 21 98 50.5t119 64t126 69.5v344h-319v72h393zM523 587l57 37q28 -28 57.5 -60.5t55 -62.5t41.5 -53l-60 -44q-16 24 -41.5 56.5t-54 66t-55.5 60.5z" />
    <glyph glyph-name="uni2F7C" unicode="&#x2f7c;" 
d="M470 497h76q40 32 78 65.5t72 69.5h-226v-135zM946 427h-373q-41 -32 -85 -62.5t-90 -58.5v-103q68 18 134.5 39t125 43.5t100.5 43.5l63 -53q-56 -26 -126.5 -50.5t-146.5 -46t-150 -39.5v-89q0 -28 17 -36.5t74 -8.5h268q33 0 50 10t24 39.5t10 87.5q14 -10 34.5 -17
t36.5 -11q-6 -71 -20 -109.5t-44.5 -53t-87.5 -14.5h-273q-64 0 -99.5 9.5t-50 34t-14.5 69.5v211q-56 -32 -115 -60t-119 -53q-9 13 -25 32t-28 31q110 41 215 95.5t200 119.5h-396v70h340v135h-253v70h253v135h75v-135h248v-47q32 35 61 70.5t56 72.5l67 -34
q-52 -73 -114 -140t-130 -127h288v-70z" />
    <glyph glyph-name="uni2F7C" unicode="&#xf934;" 
d="M470 497h76q40 32 78 65.5t72 69.5h-226v-135zM946 427h-373q-41 -32 -85 -62.5t-90 -58.5v-103q68 18 134.5 39t125 43.5t100.5 43.5l63 -53q-56 -26 -126.5 -50.5t-146.5 -46t-150 -39.5v-89q0 -28 17 -36.5t74 -8.5h268q33 0 50 10t24 39.5t10 87.5q14 -10 34.5 -17
t36.5 -11q-6 -71 -20 -109.5t-44.5 -53t-87.5 -14.5h-273q-64 0 -99.5 9.5t-50 34t-14.5 69.5v211q-56 -32 -115 -60t-119 -53q-9 13 -25 32t-28 31q110 41 215 95.5t200 119.5h-396v70h340v135h-253v70h253v135h75v-135h248v-47q32 35 61 70.5t56 72.5l67 -34
q-52 -73 -114 -140t-130 -127h288v-70z" />
    <glyph glyph-name="uni2F7C" unicode="&#x8001;" 
d="M470 497h76q40 32 78 65.5t72 69.5h-226v-135zM946 427h-373q-41 -32 -85 -62.5t-90 -58.5v-103q68 18 134.5 39t125 43.5t100.5 43.5l63 -53q-56 -26 -126.5 -50.5t-146.5 -46t-150 -39.5v-89q0 -28 17 -36.5t74 -8.5h268q33 0 50 10t24 39.5t10 87.5q14 -10 34.5 -17
t36.5 -11q-6 -71 -20 -109.5t-44.5 -53t-87.5 -14.5h-273q-64 0 -99.5 9.5t-50 34t-14.5 69.5v211q-56 -32 -115 -60t-119 -53q-9 13 -25 32t-28 31q110 41 215 95.5t200 119.5h-396v70h340v135h-253v70h253v135h75v-135h248v-47q32 35 61 70.5t56 72.5l67 -34
q-52 -73 -114 -140t-130 -127h288v-70z" />
    <glyph glyph-name="uni2F7D" unicode="&#x2f7d;" 
d="M947 710h-414q-10 -37 -22.5 -75t-23.5 -70h409v-548q0 -32 -8 -49t-30 -26t-60 -11t-92 -2q-3 15 -10.5 35t-15.5 34q43 -1 77 -1t45 1t15.5 5t4.5 15v477h-170v-539h-73v539h-165v-539h-73v539h-158v-572h-75v642h301q10 33 19 71.5t16 73.5h-387v74h890v-74z" />
    <glyph glyph-name="uni2F7D" unicode="&#x800c;" 
d="M947 710h-414q-10 -37 -22.5 -75t-23.5 -70h409v-548q0 -32 -8 -49t-30 -26t-60 -11t-92 -2q-3 15 -10.5 35t-15.5 34q43 -1 77 -1t45 1t15.5 5t4.5 15v477h-170v-539h-73v539h-165v-539h-73v539h-158v-572h-75v642h301q10 33 19 71.5t16 73.5h-387v74h890v-74z" />
    <glyph glyph-name="uni2F7F" unicode="&#x2f7f;" 
d="M301 269v-151q92 6 194 12.5t206 13.5v125h-400zM701 705h-400v-146h400v146zM301 489v-150h400v150h-400zM945 162l-2 -72l-164 -12v-154h-78v148q-120 -9 -236 -17t-218.5 -15t-185.5 -13l-9 77q38 2 81.5 4.5t90.5 4.5v592h-155v73h865v-73h-155v-555z" />
    <glyph glyph-name="uni2F7F" unicode="&#x8033;" 
d="M301 269v-151q92 6 194 12.5t206 13.5v125h-400zM701 705h-400v-146h400v146zM301 489v-150h400v150h-400zM945 162l-2 -72l-164 -12v-154h-78v148q-120 -9 -236 -17t-218.5 -15t-185.5 -13l-9 77q38 2 81.5 4.5t90.5 4.5v592h-155v73h865v-73h-155v-555z" />
    <glyph glyph-name="uni2F81" unicode="&#x2f81;" 
d="M770 102l-54 -55q-24 25 -62 56.5t-81 65t-85 63.5q-34 -57 -89.5 -104.5t-143.5 -80.5q-6 14 -19 30t-26 26q92 31 144.5 79t79.5 105.5t39 116.5h76q-6 -28 -13 -55.5t-18 -54.5q43 -29 91 -63.5t91 -68t70 -60.5zM901 690v-671q0 -35 -9 -54.5t-33 -28.5
q-25 -10 -69.5 -12t-106.5 -2q-2 16 -8.5 38t-14.5 37q49 -2 90 -2h55q14 1 18.5 6t4.5 18v598h-304q-3 -10 -6 -19.5t-6 -19.5q46 -26 96 -57t95 -61.5t75 -55.5l-50 -58q-27 23 -67 52.5t-86 60.5t-91 58q-32 -58 -86 -104.5t-138 -78.5q-7 14 -20.5 30t-25.5 26
q101 37 154 94t78 133h-274v-693h-73v766h364q6 33 10 69t6 74h78q-3 -38 -7 -73.5t-10 -69.5h361z" />
    <glyph glyph-name="uni2F81" unicode="&#x8089;" 
d="M770 102l-54 -55q-24 25 -62 56.5t-81 65t-85 63.5q-34 -57 -89.5 -104.5t-143.5 -80.5q-6 14 -19 30t-26 26q92 31 144.5 79t79.5 105.5t39 116.5h76q-6 -28 -13 -55.5t-18 -54.5q43 -29 91 -63.5t91 -68t70 -60.5zM901 690v-671q0 -35 -9 -54.5t-33 -28.5
q-25 -10 -69.5 -12t-106.5 -2q-2 16 -8.5 38t-14.5 37q49 -2 90 -2h55q14 1 18.5 6t4.5 18v598h-304q-3 -10 -6 -19.5t-6 -19.5q46 -26 96 -57t95 -61.5t75 -55.5l-50 -58q-27 23 -67 52.5t-86 60.5t-91 58q-32 -58 -86 -104.5t-138 -78.5q-7 14 -20.5 30t-25.5 26
q101 37 154 94t78 133h-274v-693h-73v766h364q6 33 10 69t6 74h78q-3 -38 -7 -73.5t-10 -69.5h361z" />
    <glyph glyph-name="uni2F82" unicode="&#x2f82;" 
d="M203 230v-189h284v189h-284zM487 715h-284v-176h284v176zM762 302v166h-559v-166h559zM564 41h360v-73h-798v820h773v-73h-335v-176h275v-309h-275v-189z" />
    <glyph glyph-name="uni2F82" unicode="&#x81e3;" 
d="M203 230v-189h284v189h-284zM487 715h-284v-176h284v176zM762 302v166h-559v-166h559zM564 41h360v-73h-798v820h773v-73h-335v-176h275v-309h-275v-189z" />
    <glyph glyph-name="uni2F83" unicode="&#x2f83;" 
d="M240 48h533v148h-533v-148zM773 411h-533v-145h533v145zM773 630h-533v-149h533v149zM491 701h359v-774h-77v51h-533v-56h-74v779h251q11 33 22 70.5t17 66.5l85 -11q-11 -32 -24 -64.5t-26 -61.5z" />
    <glyph glyph-name="uni2F83" unicode="&#x81ea;" 
d="M240 48h533v148h-533v-148zM773 411h-533v-145h533v145zM773 630h-533v-149h533v149zM491 701h359v-774h-77v51h-533v-56h-74v779h251q11 33 22 70.5t17 66.5l85 -11q-11 -32 -24 -64.5t-26 -61.5z" />
    <glyph glyph-name="uni2F84" unicode="&#x2f84;" 
d="M906 436l-63 -45q-26 34 -64 72q-162 -8 -270 -13t-174.5 -9t-103 -6.5t-54 -5.5t-28.5 -7q-3 13 -10 36t-14 38q14 2 31.5 14.5t37.5 32.5q13 10 37.5 34.5t54.5 59.5t58 74h-264v70h833v-70h-472q-44 -58 -91.5 -110.5t-94.5 -95.5l462 19q-31 28 -62.5 55t-61.5 50
l59 38q45 -33 93.5 -74t91.5 -82t69 -75zM536 32h409v-70h-887v70h403v184h-316v69h316v130h75v-130h325v-69h-325v-184z" />
    <glyph glyph-name="uni2F84" unicode="&#x81f3;" 
d="M906 436l-63 -45q-26 34 -64 72q-162 -8 -270 -13t-174.5 -9t-103 -6.5t-54 -5.5t-28.5 -7q-3 13 -10 36t-14 38q14 2 31.5 14.5t37.5 32.5q13 10 37.5 34.5t54.5 59.5t58 74h-264v70h833v-70h-472q-44 -58 -91.5 -110.5t-94.5 -95.5l462 19q-31 28 -62.5 55t-61.5 50
l59 38q45 -33 93.5 -74t91.5 -82t69 -75zM536 32h409v-70h-887v70h403v184h-316v69h316v130h75v-130h325v-69h-325v-184z" />
    <glyph glyph-name="uni2F86" unicode="&#x2f86;" 
d="M757 33v213h-506v-213h506zM947 473h-411v-158h299v-388h-78v37h-506v-47h-75v398h285v158h-405v70h405v156q-79 -8 -160 -12.5t-155 -6.5q-1 14 -7 32t-11 31q87 3 180 9t182 16.5t164 26t126 36.5l64 -55q-60 -23 -139.5 -40t-168.5 -28v-165h411v-70z" />
    <glyph glyph-name="uni2F86" unicode="&#x820c;" 
d="M757 33v213h-506v-213h506zM947 473h-411v-158h299v-388h-78v37h-506v-47h-75v398h285v158h-405v70h405v156q-79 -8 -160 -12.5t-155 -6.5q-1 14 -7 32t-11 31q87 3 180 9t182 16.5t164 26t126 36.5l64 -55q-60 -23 -139.5 -40t-168.5 -28v-165h411v-70z" />
    <glyph glyph-name="uni2F88" unicode="&#x2f88;" 
d="M383 243l50 41q33 -20 67 -45.5t63 -52.5t47 -50l-52 -46q-17 23 -45.5 50.5t-62.5 54.5t-67 48zM391 576l49 39q31 -19 63 -44t59.5 -50.5t43.5 -47.5l-52 -44q-16 22 -42.5 48t-58 52t-62.5 47zM284 399h436v251h-436v-225v-26zM947 399v-70h-152v-304q0 -34 -9 -52.5
t-32 -28.5q-22 -9 -63 -11t-103 -2q-2 16 -9 36.5t-15 36.5q45 -1 83 -1.5t50 -0.5q14 1 18.5 5.5t4.5 17.5v304h-439q-5 -70 -23 -143.5t-56 -142t-103 -123.5q-8 11 -25.5 27.5t-30.5 23.5q60 51 94 110.5t50 123t21 124.5h-152v70h155v27v293h206q12 28 23.5 61t18.5 59
l88 -11q-13 -28 -27 -56.5t-28 -52.5h303v-320h152z" />
    <glyph glyph-name="uni2F88" unicode="&#x821f;" 
d="M383 243l50 41q33 -20 67 -45.5t63 -52.5t47 -50l-52 -46q-17 23 -45.5 50.5t-62.5 54.5t-67 48zM391 576l49 39q31 -19 63 -44t59.5 -50.5t43.5 -47.5l-52 -44q-16 22 -42.5 48t-58 52t-62.5 47zM284 399h436v251h-436v-225v-26zM947 399v-70h-152v-304q0 -34 -9 -52.5
t-32 -28.5q-22 -9 -63 -11t-103 -2q-2 16 -9 36.5t-15 36.5q45 -1 83 -1.5t50 -0.5q14 1 18.5 5.5t4.5 17.5v304h-439q-5 -70 -23 -143.5t-56 -142t-103 -123.5q-8 11 -25.5 27.5t-30.5 23.5q60 51 94 110.5t50 123t21 124.5h-152v70h155v27v293h206q12 28 23.5 61t18.5 59
l88 -11q-13 -28 -27 -56.5t-28 -52.5h303v-320h152z" />
    <glyph glyph-name="uni2F8A" unicode="&#x2f8a;" 
d="M598 683h-261q-24 -32 -51.5 -62.5t-56.5 -59.5h264q28 26 55.5 58.5t49.5 63.5zM785 318v174h-239v-174h239zM244 492v-174h230v174h-230zM373 8h389q50 0 74.5 12.5t35 47t16.5 99.5q14 -9 34.5 -16.5t36.5 -10.5q-8 -77 -25.5 -121t-57 -61.5t-114.5 -17.5h-384
q-78 0 -123 12t-64 43t-19 88v426q-22 -19 -44 -36t-45 -33q-4 13 -17.5 35t-22.5 35q61 37 119.5 88.5t108.5 113t84 128.5l66 -25q-17 -31 -37 -65h263l15 4l49 -35q-26 -40 -59.5 -81t-68.5 -77h275v-358h-73v44h-541v-165q0 -29 10 -45.5t37.5 -22.5t81.5 -6z" />
    <glyph glyph-name="uni2F8A" unicode="&#x8272;" 
d="M598 683h-261q-24 -32 -51.5 -62.5t-56.5 -59.5h264q28 26 55.5 58.5t49.5 63.5zM785 318v174h-239v-174h239zM244 492v-174h230v174h-230zM373 8h389q50 0 74.5 12.5t35 47t16.5 99.5q14 -9 34.5 -16.5t36.5 -10.5q-8 -77 -25.5 -121t-57 -61.5t-114.5 -17.5h-384
q-78 0 -123 12t-64 43t-19 88v426q-22 -19 -44 -36t-45 -33q-4 13 -17.5 35t-22.5 35q61 37 119.5 88.5t108.5 113t84 128.5l66 -25q-17 -31 -37 -65h263l15 4l49 -35q-26 -40 -59.5 -81t-68.5 -77h275v-358h-73v44h-541v-165q0 -29 10 -45.5t37.5 -22.5t81.5 -6z" />
    <glyph glyph-name="uni2F8D" unicode="&#x2f8d;" 
d="M206 364h247v240h-247v-240zM779 604h-247v-240h247v240zM950 -51l-73 -34q-10 21 -24 46t-31 51q-136 -9 -272.5 -17.5t-261 -15.5t-224.5 -12l-10 79q80 3 183 7.5t216 9.5v228h-322v386h322v161h79v-161h325v-386h-325v-224q60 3 121.5 6.5t122.5 6.5q-22 32 -46.5 62
t-47.5 58l69 29q38 -42 76.5 -92.5t71.5 -99.5t51 -88z" />
    <glyph glyph-name="uni2F8D" unicode="&#x866b;" 
d="M206 364h247v240h-247v-240zM779 604h-247v-240h247v240zM950 -51l-73 -34q-10 21 -24 46t-31 51q-136 -9 -272.5 -17.5t-261 -15.5t-224.5 -12l-10 79q80 3 183 7.5t216 9.5v228h-322v386h322v161h79v-161h325v-386h-325v-224q60 3 121.5 6.5t122.5 6.5q-22 32 -46.5 62
t-47.5 58l69 29q38 -42 76.5 -92.5t71.5 -99.5t51 -88z" />
    <glyph glyph-name="uni2F8E" unicode="&#x2f8e;" 
d="M217 571v-521h143v521h-143zM574 50v521h-146v-521h146zM790 571h-146v-521h146v521zM865 50h92v-72h-913v72h100v592h228q20 44 40 98t32 97l86 -21q-18 -43 -38.5 -88.5t-40.5 -85.5h414v-592z" />
    <glyph glyph-name="uni2F8E" unicode="&#x8840;" 
d="M217 571v-521h143v521h-143zM574 50v521h-146v-521h146zM790 571h-146v-521h146v521zM865 50h92v-72h-913v72h100v592h228q20 44 40 98t32 97l86 -21q-18 -43 -38.5 -88.5t-40.5 -85.5h414v-592z" />
    <glyph glyph-name="uni2F8F" unicode="&#x2f8f;" 
d="M923 776v-70h-488v70h488zM268 837l71 -28q-32 -44 -75 -89t-89.5 -86t-91.5 -73q-8 12 -21 30.5t-23 28.5q42 28 85 65t81 77t63 75zM309 624l69 -26q-23 -38 -51 -76t-59 -75v-526h-74v444q-28 -29 -56.5 -55.5t-56.5 -48.5q-8 11 -24.5 31t-27.5 31q52 37 103 85.5
t97 104t80 111.5zM952 503v-71h-151v-413q0 -34 -9.5 -53t-34.5 -28q-25 -8 -69.5 -9.5t-118.5 -1.5q-2 15 -9 35.5t-15 36.5q53 -1 97.5 -1.5t58.5 0.5t19.5 5t5.5 17v412h-334v71h560z" />
    <glyph glyph-name="uni2F8F" unicode="&#xfa08;" 
d="M923 776v-70h-488v70h488zM268 837l71 -28q-32 -44 -75 -89t-89.5 -86t-91.5 -73q-8 12 -21 30.5t-23 28.5q42 28 85 65t81 77t63 75zM309 624l69 -26q-23 -38 -51 -76t-59 -75v-526h-74v444q-28 -29 -56.5 -55.5t-56.5 -48.5q-8 11 -24.5 31t-27.5 31q52 37 103 85.5
t97 104t80 111.5zM952 503v-71h-151v-413q0 -34 -9.5 -53t-34.5 -28q-25 -8 -69.5 -9.5t-118.5 -1.5q-2 15 -9 35.5t-15 36.5q53 -1 97.5 -1.5t58.5 0.5t19.5 5t5.5 17v412h-334v71h560z" />
    <glyph glyph-name="uni2F8F" unicode="&#x884c;" 
d="M923 776v-70h-488v70h488zM268 837l71 -28q-32 -44 -75 -89t-89.5 -86t-91.5 -73q-8 12 -21 30.5t-23 28.5q42 28 85 65t81 77t63 75zM309 624l69 -26q-23 -38 -51 -76t-59 -75v-526h-74v444q-28 -29 -56.5 -55.5t-56.5 -48.5q-8 11 -24.5 31t-27.5 31q52 37 103 85.5
t97 104t80 111.5zM952 503v-71h-151v-413q0 -34 -9.5 -53t-34.5 -28q-25 -8 -69.5 -9.5t-118.5 -1.5q-2 15 -9 35.5t-15 36.5q53 -1 97.5 -1.5t58.5 0.5t19.5 5t5.5 17v412h-334v71h560z" />
    <glyph glyph-name="uni2F90" unicode="&#x2f90;" 
d="M850 518l63 -45q-49 -53 -109.5 -109t-115.5 -100q47 -73 113.5 -134t160.5 -117q-14 -11 -29.5 -29.5t-22.5 -35.5q-97 62 -166 129t-115.5 143t-76.5 163.5t-50 190.5q-69 -92 -166 -172v-361l271 84q2 -16 7.5 -35.5t9.5 -32.5q-94 -30 -157 -50t-103 -33.5t-62.5 -22
t-34 -14.5t-19.5 -11q-5 12 -17.5 30.5t-22.5 28.5q15 8 34 30t19 56v272q-43 -30 -89 -56.5t-93 -49.5q-6 14 -19 33t-22 30q77 35 149.5 82.5t135 104t107.5 116.5h-366v72h429q-8 29 -25.5 69.5t-36.5 73.5l74 23q21 -34 40 -74t27 -69l-66 -23h431v-72h-369
q15 -79 35.5 -148.5t50.5 -130.5q52 44 105.5 96t90.5 98z" />
    <glyph glyph-name="uni2F90" unicode="&#x8863;" 
d="M850 518l63 -45q-49 -53 -109.5 -109t-115.5 -100q47 -73 113.5 -134t160.5 -117q-14 -11 -29.5 -29.5t-22.5 -35.5q-97 62 -166 129t-115.5 143t-76.5 163.5t-50 190.5q-69 -92 -166 -172v-361l271 84q2 -16 7.5 -35.5t9.5 -32.5q-94 -30 -157 -50t-103 -33.5t-62.5 -22
t-34 -14.5t-19.5 -11q-5 12 -17.5 30.5t-22.5 28.5q15 8 34 30t19 56v272q-43 -30 -89 -56.5t-93 -49.5q-6 14 -19 33t-22 30q77 35 149.5 82.5t135 104t107.5 116.5h-366v72h429q-8 29 -25.5 69.5t-36.5 73.5l74 23q21 -34 40 -74t27 -69l-66 -23h431v-72h-369
q15 -79 35.5 -148.5t50.5 -130.5q52 44 105.5 96t90.5 98z" />
    <glyph glyph-name="uni2F94" unicode="&#x2f94;" 
d="M736 172h-470v-143h470v143zM193 -76v312h618v-309h-75v39h-470v-42h-73zM202 330v62h598v-62h-598zM800 541v-62h-598v62h598zM549 687h398v-65h-889v65h446q-16 29 -40.5 65t-49.5 64l70 22q30 -31 58.5 -70t41.5 -69z" />
    <glyph glyph-name="uni2F94" unicode="&#x8a00;" 
d="M736 172h-470v-143h470v143zM193 -76v312h618v-309h-75v39h-470v-42h-73zM202 330v62h598v-62h-598zM800 541v-62h-598v62h598zM549 687h398v-65h-889v65h446q-16 29 -40.5 65t-49.5 64l70 22q30 -31 58.5 -70t41.5 -69z" />
    <glyph glyph-name="uni2F95" unicode="&#x2f95;" 
d="M920 589l-63 -48q-28 33 -73.5 74.5t-97 84.5t-99.5 78l59 41q46 -34 98 -75t99 -81.5t77 -73.5zM337 811l73 -28q-35 -46 -80 -91t-92.5 -84t-92.5 -68q-10 10 -28.5 26.5t-32.5 25.5q46 27 92.5 62t88.5 75.5t72 81.5zM256 321h484q-68 45 -130.5 99.5t-111.5 114.5
q-49 -60 -111 -114.5t-131 -99.5zM299 29h408v226h-408v-226zM496 659l62 -41q-4 -7 -8.5 -14t-9.5 -14q47 -59 116 -115t149 -101t158 -70q-13 -13 -30 -33t-26 -37q-63 25 -122 60v-370h-78v39h-408v-41h-74v379q-34 -19 -68 -36.5t-69 -31.5q-7 17 -20.5 37.5t-24.5 34.5
q91 30 178.5 85t159 125t115.5 144z" />
    <glyph glyph-name="uni2F95" unicode="&#x8c37;" 
d="M920 589l-63 -48q-28 33 -73.5 74.5t-97 84.5t-99.5 78l59 41q46 -34 98 -75t99 -81.5t77 -73.5zM337 811l73 -28q-35 -46 -80 -91t-92.5 -84t-92.5 -68q-10 10 -28.5 26.5t-32.5 25.5q46 27 92.5 62t88.5 75.5t72 81.5zM256 321h484q-68 45 -130.5 99.5t-111.5 114.5
q-49 -60 -111 -114.5t-131 -99.5zM299 29h408v226h-408v-226zM496 659l62 -41q-4 -7 -8.5 -14t-9.5 -14q47 -59 116 -115t149 -101t158 -70q-13 -13 -30 -33t-26 -37q-63 25 -122 60v-370h-78v39h-408v-41h-74v379q-34 -19 -68 -36.5t-69 -31.5q-7 17 -20.5 37.5t-24.5 34.5
q91 30 178.5 85t159 125t115.5 144z" />
    <glyph glyph-name="uni2F96" unicode="&#x2f96;" 
d="M913 785v-69h-831v69h831zM732 356v185h-484v-185h484zM812 611v-325h-639v325h639zM393 66l-72 -22q-6 26 -18 61t-27 71.5t-31 68.5l69 18q16 -31 31.5 -67t28.5 -70t19 -60zM643 28h295v-70h-878v70h506q20 34 40.5 75t38.5 82.5t30 76.5l81 -20q-25 -52 -54.5 -109.5
t-58.5 -104.5z" />
    <glyph glyph-name="uni2F96" unicode="&#x8c46;" 
d="M913 785v-69h-831v69h831zM732 356v185h-484v-185h484zM812 611v-325h-639v325h639zM393 66l-72 -22q-6 26 -18 61t-27 71.5t-31 68.5l69 18q16 -31 31.5 -67t28.5 -70t19 -60zM643 28h295v-70h-878v70h506q20 34 40.5 75t38.5 82.5t30 76.5l81 -20q-25 -52 -54.5 -109.5
t-58.5 -104.5z" />
    <glyph glyph-name="uni2F9A" unicode="&#x2f9a;" 
d="M195 359l75 -20q-18 -44 -44 -91t-58 -90t-67 -76q-10 10 -27.5 22.5t-29.5 19.5q33 30 62.5 70t52.5 83t36 82zM932 432h-265v-417q0 -32 -8.5 -50t-31.5 -26q-22 -10 -59.5 -12t-93.5 -2q-3 16 -11 37t-16 37q43 -1 77.5 -1t45.5 1q12 0 16 3.5t4 13.5v416h-157v-66
q0 -51 -7 -108.5t-28.5 -115.5t-65.5 -113.5t-119 -103.5q-9 14 -25.5 30t-30.5 25q69 43 109.5 92.5t60 100.5t25.5 101t6 94v64h-282v72h386v140h-294v72h294v118h78v-118h297v-72h-297v-140h392v-72zM732 334l65 26q31 -39 61.5 -85.5t56 -90.5t39.5 -79l-69 -32
q-14 35 -39 80.5t-54.5 93t-59.5 87.5z" />
    <glyph glyph-name="uni2F9A" unicode="&#x8d64;" 
d="M195 359l75 -20q-18 -44 -44 -91t-58 -90t-67 -76q-10 10 -27.5 22.5t-29.5 19.5q33 30 62.5 70t52.5 83t36 82zM932 432h-265v-417q0 -32 -8.5 -50t-31.5 -26q-22 -10 -59.5 -12t-93.5 -2q-3 16 -11 37t-16 37q43 -1 77.5 -1t45.5 1q12 0 16 3.5t4 13.5v416h-157v-66
q0 -51 -7 -108.5t-28.5 -115.5t-65.5 -113.5t-119 -103.5q-9 14 -25.5 30t-30.5 25q69 43 109.5 92.5t60 100.5t25.5 101t6 94v64h-282v72h386v140h-294v72h294v118h78v-118h297v-72h-297v-140h392v-72zM732 334l65 26q31 -39 61.5 -85.5t56 -90.5t39.5 -79l-69 -32
q-14 35 -39 80.5t-54.5 93t-59.5 87.5z" />
    <glyph glyph-name="uni2F9B" unicode="&#x2f9b;" 
d="M535 219v-195q43 -9 90 -12.5t96 -3.5h44h71t73 0.5t50 0.5q-7 -13 -15.5 -35t-11.5 -38h-214q-106 0 -195 16.5t-159 62.5t-120 133q-25 -67 -61.5 -126t-88.5 -101q-10 11 -27 26t-28 23q60 47 97.5 116t58 147t27.5 151l76 -10q-4 -33 -11 -67t-15 -69
q32 -76 79.5 -121.5t108.5 -70.5v397h-394v70h394v137h-308v69h308v115h75v-115h324v-69h-324v-137h398v-70h-398v-156h332v-68h-332z" />
    <glyph glyph-name="uni2F9B" unicode="&#x8d70;" 
d="M535 219v-195q43 -9 90 -12.5t96 -3.5h44h71t73 0.5t50 0.5q-7 -13 -15.5 -35t-11.5 -38h-214q-106 0 -195 16.5t-159 62.5t-120 133q-25 -67 -61.5 -126t-88.5 -101q-10 11 -27 26t-28 23q60 47 97.5 116t58 147t27.5 151l76 -10q-4 -33 -11 -67t-15 -69
q32 -76 79.5 -121.5t108.5 -70.5v397h-394v70h394v137h-308v69h308v115h75v-115h324v-69h-324v-137h398v-70h-398v-156h332v-68h-332z" />
    <glyph glyph-name="uni2F9C" unicode="&#x2f9c;" 
d="M244 716v-196h530v196h-530zM543 226v-203q40 -8 83.5 -11.5t90.5 -3.5h44.5h72.5t75 0.5t51 0.5q-8 -13 -16 -34.5t-11 -37.5h-220q-106 0 -192.5 16.5t-153 62.5t-114.5 132q-25 -67 -62.5 -125.5t-90.5 -99.5q-9 11 -25 27t-27 23q59 46 96 112.5t57 142.5t27 147
l79 -9q-4 -31 -10.5 -62t-14.5 -63q30 -79 77 -126t109 -71v405h-297v339h680v-339h-308v-154h335v-69h-335z" />
    <glyph glyph-name="uni2F9C" unicode="&#x8db3;" 
d="M244 716v-196h530v196h-530zM543 226v-203q40 -8 83.5 -11.5t90.5 -3.5h44.5h72.5t75 0.5t51 0.5q-8 -13 -16 -34.5t-11 -37.5h-220q-106 0 -192.5 16.5t-153 62.5t-114.5 132q-25 -67 -62.5 -125.5t-90.5 -99.5q-9 11 -25 27t-27 23q59 46 96 112.5t57 142.5t27 147
l79 -9q-4 -31 -10.5 -62t-14.5 -63q30 -79 77 -126t109 -71v405h-297v339h680v-339h-308v-154h335v-69h-335z" />
    <glyph glyph-name="uni2F9D" unicode="&#x2f9d;" 
d="M286 284h398l17 15v82h-415v-97zM701 673h-415v-87h415v87zM286 529v-91h415v91h-415zM872 488l64 -31q-35 -51 -76 -97t-87 -88v-243q0 -38 -10.5 -57.5t-37.5 -29.5q-28 -9 -77 -11.5t-125 -2.5q-3 16 -10.5 37.5t-15.5 37.5q59 -2 109.5 -2h66.5q16 2 22 8t6 20v183
q-130 -101 -285.5 -174t-324.5 -123q-6 13 -20 32.5t-25 29.5q154 40 294.5 100t258.5 142h-517v65h131v455h205q12 25 23 51.5t18 48.5l84 -13q-11 -22 -23 -44.5t-24 -42.5h277v-373q27 29 52 59.5t47 62.5z" />
    <glyph glyph-name="uni2F9D" unicode="&#x8eab;" 
d="M286 284h398l17 15v82h-415v-97zM701 673h-415v-87h415v87zM286 529v-91h415v91h-415zM872 488l64 -31q-35 -51 -76 -97t-87 -88v-243q0 -38 -10.5 -57.5t-37.5 -29.5q-28 -9 -77 -11.5t-125 -2.5q-3 16 -10.5 37.5t-15.5 37.5q59 -2 109.5 -2h66.5q16 2 22 8t6 20v183
q-130 -101 -285.5 -174t-324.5 -123q-6 13 -20 32.5t-25 29.5q154 40 294.5 100t258.5 142h-517v65h131v455h205q12 25 23 51.5t18 48.5l84 -13q-11 -22 -23 -44.5t-24 -42.5h277v-373q27 29 52 59.5t47 62.5z" />
    <glyph glyph-name="uni2F9F" unicode="&#x2f9f;" 
d="M880 709v-69h-751v69h349q-11 27 -24.5 56.5t-27.5 54.5l68 22q17 -31 35 -67t30 -66h321zM943 385h-408v-156h366v-71h-366v-235h-75v235h-354v71h354v156h-402v70h256q-8 32 -26 76.5t-38 81.5l68 21q22 -38 42 -83.5t27 -77.5l-49 -18h273q20 40 40 91t31 91l77 -19
q-16 -40 -35.5 -83.5t-37.5 -79.5h257v-70z" />
    <glyph glyph-name="uni2F9F" unicode="&#x8f9b;" 
d="M880 709v-69h-751v69h349q-11 27 -24.5 56.5t-27.5 54.5l68 22q17 -31 35 -67t30 -66h321zM943 385h-408v-156h366v-71h-366v-235h-75v235h-354v71h354v156h-402v70h256q-8 32 -26 76.5t-38 81.5l68 21q22 -38 42 -83.5t27 -77.5l-49 -18h273q20 40 40 91t31 91l77 -19
q-16 -40 -35.5 -83.5t-37.5 -79.5h257v-70z" />
    <glyph glyph-name="uni2FA0" unicode="&#x2fa0;" 
d="M846 333l65 -43q-43 -37 -95.5 -75.5t-100.5 -70.5q49 -47 110 -82.5t135 -55.5q-12 -11 -26 -30t-22 -34q-151 49 -249.5 155t-149.5 261h-119v-326l210 60q-1 -15 0 -35t2 -32q-87 -28 -140 -45t-82 -27.5t-42.5 -16.5t-20.5 -12q-5 13 -17.5 32t-21.5 29q13 8 25 26
t12 51v296h-103q-4 -74 -15.5 -152.5t-34 -152.5t-60.5 -136q-10 10 -31.5 22t-35.5 18q36 58 57 126t31.5 140t13.5 140.5t3 128.5v293h774v-73h-699v-220v-32t-1 -33h727v-69h-362q35 -95 92 -169q45 33 92 71.5t79 72.5zM859 539h-566v69h566v-69z" />
    <glyph glyph-name="uni2FA0" unicode="&#x8fb0;" 
d="M846 333l65 -43q-43 -37 -95.5 -75.5t-100.5 -70.5q49 -47 110 -82.5t135 -55.5q-12 -11 -26 -30t-22 -34q-151 49 -249.5 155t-149.5 261h-119v-326l210 60q-1 -15 0 -35t2 -32q-87 -28 -140 -45t-82 -27.5t-42.5 -16.5t-20.5 -12q-5 13 -17.5 32t-21.5 29q13 8 25 26
t12 51v296h-103q-4 -74 -15.5 -152.5t-34 -152.5t-60.5 -136q-10 10 -31.5 22t-35.5 18q36 58 57 126t31.5 140t13.5 140.5t3 128.5v293h774v-73h-699v-220v-32t-1 -33h727v-69h-362q35 -95 92 -169q45 33 92 71.5t79 72.5zM859 539h-566v69h566v-69z" />
    <glyph glyph-name="uni2FA5" unicode="&#x2fa5;" 
d="M230 542v-127h238v127h-238zM230 730v-124h238v124h-238zM781 606v124h-242v-124h242zM781 415v127h-242v-127h242zM543 22h400v-70h-885v70h406v142h-339v70h339v114h-307v449h700v-449h-314v-114h347v-70h-347v-142z" />
    <glyph glyph-name="uni2FA5" unicode="&#xf9e9;" 
d="M230 542v-127h238v127h-238zM230 730v-124h238v124h-238zM781 606v124h-242v-124h242zM781 415v127h-242v-127h242zM543 22h400v-70h-885v70h406v142h-339v70h339v114h-307v449h700v-449h-314v-114h347v-70h-347v-142z" />
    <glyph glyph-name="uni2FA5" unicode="&#x91cc;" 
d="M230 542v-127h238v127h-238zM230 730v-124h238v124h-238zM781 606v124h-242v-124h242zM781 415v127h-242v-127h242zM543 22h400v-70h-885v70h406v142h-339v70h339v114h-307v449h700v-449h-314v-114h347v-70h-347v-142z" />
    <glyph glyph-name="uni2FA6" unicode="&#x2fa6;" 
d="M267 539h477q-67 40 -130.5 88.5t-112.5 99.5q-99 -108 -234 -188zM756 470h-220v-136h349v-68h-349v-244h394v-69h-859v69h388v244h-343v68h343v136h-216v55q-38 -21 -78 -39.5t-81 -32.5q-8 15 -22 34.5t-28 32.5q93 31 181.5 79t162.5 110.5t121 136.5l68 -32
q-11 -18 -25 -36q50 -53 120.5 -103t150.5 -90.5t156 -64.5q-13 -11 -28.5 -30.5t-23.5 -33.5q-79 29 -161 76v-62zM683 36l-56 24q18 25 37.5 57t37 65.5t29.5 61.5l71 -27q-28 -47 -60 -96.5t-59 -84.5zM200 219l62 25q29 -42 56 -92.5t39 -86.5l-65 -27q-7 23 -21.5 54.5
t-33 65t-37.5 61.5z" />
    <glyph glyph-name="uni2FA6" unicode="&#x91d1;" 
d="M267 539h477q-67 40 -130.5 88.5t-112.5 99.5q-99 -108 -234 -188zM756 470h-220v-136h349v-68h-349v-244h394v-69h-859v69h388v244h-343v68h343v136h-216v55q-38 -21 -78 -39.5t-81 -32.5q-8 15 -22 34.5t-28 32.5q93 31 181.5 79t162.5 110.5t121 136.5l68 -32
q-11 -18 -25 -36q50 -53 120.5 -103t150.5 -90.5t156 -64.5q-13 -11 -28.5 -30.5t-23.5 -33.5q-79 29 -161 76v-62zM683 36l-56 24q18 25 37.5 57t37 65.5t29.5 61.5l71 -27q-28 -47 -60 -96.5t-59 -84.5zM200 219l62 25q29 -42 56 -92.5t39 -86.5l-65 -27q-7 23 -21.5 54.5
t-33 65t-37.5 61.5z" />
    <glyph glyph-name="uni2FAA" unicode="&#x2faa;" 
d="M535 524v-102h234v102h-234zM535 687v-98h234v98h-234zM832 341l63 -46q-43 -37 -95 -74t-99 -67q54 -43 117.5 -76.5t134.5 -53.5q-13 -10 -27 -29.5t-22 -33.5q-116 38 -209.5 111t-159.5 172v-229q0 -35 -10 -52.5t-31 -25.5q-22 -10 -59 -12t-98 -2q-3 15 -10 35
t-15 34q44 -1 79.5 -1t46.5 1q13 1 18.5 5.5t5.5 17.5v115q-96 -43 -192 -84t-172 -72l-37 67q49 17 114.5 42t139.5 54t147 58v164h-309v63h309v102h-406v65h406v98h-301v63h301v86h73v-86h308v-161h103v-65h-103v-165h-304q42 -89 116 -161q46 32 95 71t82 72zM360 210
l-52 -52q-19 20 -49.5 43.5t-65 47t-67.5 41.5l49 46q33 -17 68 -39.5t66 -45t51 -41.5z" />
    <glyph glyph-name="uni2FAA" unicode="&#x96b6;" 
d="M535 524v-102h234v102h-234zM535 687v-98h234v98h-234zM832 341l63 -46q-43 -37 -95 -74t-99 -67q54 -43 117.5 -76.5t134.5 -53.5q-13 -10 -27 -29.5t-22 -33.5q-116 38 -209.5 111t-159.5 172v-229q0 -35 -10 -52.5t-31 -25.5q-22 -10 -59 -12t-98 -2q-3 15 -10 35
t-15 34q44 -1 79.5 -1t46.5 1q13 1 18.5 5.5t5.5 17.5v115q-96 -43 -192 -84t-172 -72l-37 67q49 17 114.5 42t139.5 54t147 58v164h-309v63h309v102h-406v65h406v98h-301v63h301v86h73v-86h308v-161h103v-65h-103v-165h-304q42 -89 116 -161q46 32 95 71t82 72zM360 210
l-52 -52q-19 20 -49.5 43.5t-65 47t-67.5 41.5l49 46q33 -17 68 -39.5t66 -45t51 -41.5z" />
    <glyph glyph-name="uni2FAC" unicode="&#x2fac;" 
d="M205 205l43 42q30 -18 64 -40.5t65 -43.5t51 -37l-44 -47q-20 17 -50.5 39t-64.5 45t-64 42zM215 399l42 41q29 -16 61.5 -36t62.5 -39t50 -33l-44 -48q-19 15 -48.5 35t-62 41.5t-61.5 38.5zM787 130l-44 -48q-21 17 -53 38.5t-67 44.5t-66 41l42 42q31 -17 66 -38.5
t67.5 -42.5t54.5 -37zM794 334l-43 -48q-20 15 -50.5 34.5t-64.5 40.5t-65 38l42 42q30 -16 64 -35.5t65 -38.5t52 -33zM944 701h-411v-132h367v-550q0 -33 -9 -50.5t-33 -26.5q-24 -8 -66 -10t-102 -2q-3 15 -10.5 34.5t-15.5 33.5q48 -1 88 -1h53q13 1 17.5 5.5t4.5 16.5
v480h-294v-564h-73v564h-285v-574h-71v644h356v132h-404v73h888v-73z" />
    <glyph glyph-name="uni2FAC" unicode="&#x96e8;" 
d="M205 205l43 42q30 -18 64 -40.5t65 -43.5t51 -37l-44 -47q-20 17 -50.5 39t-64.5 45t-64 42zM215 399l42 41q29 -16 61.5 -36t62.5 -39t50 -33l-44 -48q-19 15 -48.5 35t-62 41.5t-61.5 38.5zM787 130l-44 -48q-21 17 -53 38.5t-67 44.5t-66 41l42 42q31 -17 66 -38.5
t67.5 -42.5t54.5 -37zM794 334l-43 -48q-20 15 -50.5 34.5t-64.5 40.5t-65 38l42 42q30 -16 64 -35.5t65 -38.5t52 -33zM944 701h-411v-132h367v-550q0 -33 -9 -50.5t-33 -26.5q-24 -8 -66 -10t-102 -2q-3 15 -10.5 34.5t-15.5 33.5q48 -1 88 -1h53q13 1 17.5 5.5t4.5 16.5
v480h-294v-564h-73v564h-285v-574h-71v644h356v132h-404v73h888v-73z" />
    <glyph glyph-name="uni2FAE" unicode="&#x2fae;" 
d="M355 685v147h75v-908h-75v239h-295v72h295v156h-257v71h257v150h-272v73h272zM954 235v-73h-299v-239h-76v908h76v-146h282v-73h-282v-150h262v-71h-262v-156h299z" />
    <glyph glyph-name="uni2FAE" unicode="&#x975e;" 
d="M355 685v147h75v-908h-75v239h-295v72h295v156h-257v71h257v150h-272v73h272zM954 235v-73h-299v-239h-76v908h76v-146h282v-73h-282v-150h262v-71h-262v-156h299z" />
    <glyph glyph-name="uni2FAF" unicode="&#x2faf;" 
d="M818 45v460h-150v-460h150zM179 505v-460h142v460h-142zM600 395v110h-211v-110h211zM389 161v-116h211v116h-211zM600 222v112h-211v-112h211zM941 699h-410q-19 -67 -39 -125h401v-651h-75v53h-639v-53h-72v651h309q8 29 15.5 61.5t13.5 63.5h-383v71h879v-71z" />
    <glyph glyph-name="uni2FAF" unicode="&#x9762;" 
d="M818 45v460h-150v-460h150zM179 505v-460h142v460h-142zM600 395v110h-211v-110h211zM389 161v-116h211v116h-211zM600 222v112h-211v-112h211zM941 699h-410q-19 -67 -39 -125h401v-651h-75v53h-639v-53h-72v651h309q8 29 15.5 61.5t13.5 63.5h-383v71h879v-71z" />
    <glyph glyph-name="uni2FB0" unicode="&#x2fb0;" 
d="M240 295h222v118h-222v-118zM764 413h-227v-118h227v118zM351 685v-84h297v84h-297zM946 149v-69h-409v-157h-75v157h-406v69h406v85h-296v240h296v69h-184v142h-205v65h205v87h73v-87h297v87h75v-87h206v-65h-206v-142h-186v-69h305v-240h-305v-85h409z" />
    <glyph glyph-name="uni2FB0" unicode="&#x9769;" 
d="M240 295h222v118h-222v-118zM764 413h-227v-118h227v118zM351 685v-84h297v84h-297zM946 149v-69h-409v-157h-75v157h-406v69h406v85h-296v240h296v69h-184v142h-205v65h205v87h73v-87h297v87h75v-87h206v-65h-206v-142h-186v-69h305v-240h-305v-85h409z" />
    <glyph glyph-name="uni2FB3" unicode="&#x2fb3;" 
d="M893 746v-67h-778v67h359q-7 21 -17.5 43t-21.5 41l73 14q16 -21 29 -48t20 -50h336zM738 295h-470v-104h470v104zM268 23h470v109h-470v-109zM195 -78v437h619v-435h-76v35h-470v-37h-73zM691 513h251v-68h-884v68h249q-7 32 -22.5 71.5t-34.5 71.5l70 16
q23 -34 41 -76.5t24 -74.5l-32 -8h259q19 35 39 81.5t32 81.5l80 -19q-16 -36 -35.5 -74t-36.5 -70z" />
    <glyph glyph-name="uni2FB3" unicode="&#x97f3;" 
d="M893 746v-67h-778v67h359q-7 21 -17.5 43t-21.5 41l73 14q16 -21 29 -48t20 -50h336zM738 295h-470v-104h470v104zM268 23h470v109h-470v-109zM195 -78v437h619v-435h-76v35h-470v-37h-73zM691 513h251v-68h-884v68h249q-7 32 -22.5 71.5t-34.5 71.5l70 16
q23 -34 41 -76.5t24 -74.5l-32 -8h259q19 35 39 81.5t32 81.5l80 -19q-16 -36 -35.5 -74t-36.5 -70z" />
    <glyph glyph-name="uni2FB8" unicode="&#x2fb8;" 
d="M754 373v99h-510v-99h510zM244 46h510v106h-510v-106zM754 211v102h-510v-102h510zM945 630h-400q-8 -24 -16 -47.5t-17 -44.5h318v-615h-76v57h-510v-57h-73v615h262q7 22 13.5 46t10.5 46h-400v69h258q-15 26 -38.5 57t-46.5 56l65 28q27 -26 54 -59t40 -59l-43 -23
h264q24 31 49.5 69.5t41.5 69.5l81 -21q-20 -31 -43 -61.5t-46 -56.5h252v-69z" />
    <glyph glyph-name="uni2FB8" unicode="&#x9996;" 
d="M754 373v99h-510v-99h510zM244 46h510v106h-510v-106zM754 211v102h-510v-102h510zM945 630h-400q-8 -24 -16 -47.5t-17 -44.5h318v-615h-76v57h-510v-57h-73v615h262q7 22 13.5 46t10.5 46h-400v69h258q-15 26 -38.5 57t-46.5 56l65 28q27 -26 54 -59t40 -59l-43 -23
h264q24 31 49.5 69.5t41.5 69.5l81 -21q-20 -31 -43 -61.5t-46 -56.5h252v-69z" />
    <glyph glyph-name="uni2FB9" unicode="&#x2fb9;" 
d="M731 256h-451v-90h451v90zM280 18h451v94h-451v-94zM207 -77v392h600v-390h-76v33h-451v-35h-73zM940 541h-323q45 -43 102.5 -83.5t120 -73t121.5 -52.5q-13 -10 -27 -28t-22 -32q-65 27 -133.5 68t-131 91.5t-110.5 105.5v-194h-76v194q-46 -59 -107 -112t-129 -95
t-135 -69q-7 14 -21.5 31t-27.5 28q61 22 123 56t118 76.5t100 88.5h-321v67h400v104q-76 -7 -152.5 -12.5t-148.5 -8.5q-1 14 -7 32t-12 31q84 5 173 11.5t174.5 16t159.5 21.5t128 26l56 -58q-61 -16 -136.5 -29t-158.5 -22v-112h403v-67z" />
    <glyph glyph-name="uni2FB9" unicode="&#x9999;" 
d="M731 256h-451v-90h451v90zM280 18h451v94h-451v-94zM207 -77v392h600v-390h-76v33h-451v-35h-73zM940 541h-323q45 -43 102.5 -83.5t120 -73t121.5 -52.5q-13 -10 -27 -28t-22 -32q-65 27 -133.5 68t-131 91.5t-110.5 105.5v-194h-76v194q-46 -59 -107 -112t-129 -95
t-135 -69q-7 14 -21.5 31t-27.5 28q61 22 123 56t118 76.5t100 88.5h-321v67h400v104q-76 -7 -152.5 -12.5t-148.5 -8.5q-1 14 -7 32t-12 31q84 5 173 11.5t174.5 16t159.5 21.5t128 26l56 -58q-61 -16 -136.5 -29t-158.5 -22v-112h403v-67z" />
    <glyph glyph-name="uni2FBC" unicode="&#x2fbc;" 
d="M637 180h-285v-93h285v93zM704 236v-205h-352v-49h-69v254h421zM902 358v-356q0 -27 -8 -40t-28 -21q-19 -7 -52 -8.5t-80 -0.5q-3 13 -10 28.5t-14 26.5q32 -1 62 -1h39q10 1 13.5 4t3.5 12v293h-657v-371h-72v434h803zM718 467v90h-431v-90h431zM214 612h580v-200h-580
v200zM553 732h381v-64h-871v64h409q-7 22 -15 46t-16 45l72 17q11 -25 21.5 -54.5t18.5 -53.5z" />
    <glyph glyph-name="uni2FBC" unicode="&#x9ad8;" 
d="M637 180h-285v-93h285v93zM704 236v-205h-352v-49h-69v254h421zM902 358v-356q0 -27 -8 -40t-28 -21q-19 -7 -52 -8.5t-80 -0.5q-3 13 -10 28.5t-14 26.5q32 -1 62 -1h39q10 1 13.5 4t3.5 12v293h-657v-371h-72v434h803zM718 467v90h-431v-90h431zM214 612h580v-200h-580
v200zM553 732h381v-64h-871v64h409q-7 22 -15 46t-16 45l72 17q11 -25 21.5 -54.5t18.5 -53.5z" />
    <glyph glyph-name="uni2FC5" unicode="&#x2fc5;" 
d="M359 685h-161v-103h161v103zM600 582v103h-172v-103h172zM843 521h-172v-123h172v123zM428 521v-123h172v123h-172zM198 521v-62v-30t-1 -31h162v123h-161zM914 337h-719q-4 -69 -14.5 -141.5t-31 -141.5t-53.5 -126q-9 10 -28 23t-32 19q31 53 49.5 115t27.5 127.5
t11.5 128.5t2.5 118v293h372q-7 19 -14.5 38t-15.5 35l71 17q11 -20 22 -44.5t18 -45.5h360v-67h-269v-103h243v-245zM345 9l208 26q0 -13 1 -30.5t2 -28.5q-93 -13 -150 -22t-87 -14.5t-43.5 -9t-21.5 -7.5q-3 14 -10.5 33t-15.5 31q14 5 30.5 17.5t16.5 40.5v264h70v-92
h202v-62h-202v-146zM712 3h135q16 0 24.5 7.5t12 30t4.5 67.5q12 -7 30.5 -15t33.5 -11q-4 -56 -14 -86.5t-29.5 -42.5t-54.5 -12h-150q-44 0 -68 8.5t-33 29t-9 57.5v274h72v-123q56 18 109.5 40t87.5 44l56 -51q-52 -27 -120 -51t-133 -41v-92q0 -20 8.5 -26.5t37.5 -6.5z
" />
    <glyph glyph-name="uni2FC5" unicode="&#x9e7f;" 
d="M359 685h-161v-103h161v103zM600 582v103h-172v-103h172zM843 521h-172v-123h172v123zM428 521v-123h172v123h-172zM198 521v-62v-30t-1 -31h162v123h-161zM914 337h-719q-4 -69 -14.5 -141.5t-31 -141.5t-53.5 -126q-9 10 -28 23t-32 19q31 53 49.5 115t27.5 127.5
t11.5 128.5t2.5 118v293h372q-7 19 -14.5 38t-15.5 35l71 17q11 -20 22 -44.5t18 -45.5h360v-67h-269v-103h243v-245zM345 9l208 26q0 -13 1 -30.5t2 -28.5q-93 -13 -150 -22t-87 -14.5t-43.5 -9t-21.5 -7.5q-3 14 -10.5 33t-15.5 31q14 5 30.5 17.5t16.5 40.5v264h70v-92
h202v-62h-202v-146zM712 3h135q16 0 24.5 7.5t12 30t4.5 67.5q12 -7 30.5 -15t33.5 -11q-4 -56 -14 -86.5t-29.5 -42.5t-54.5 -12h-150q-44 0 -68 8.5t-33 29t-9 57.5v274h72v-123q56 18 109.5 40t87.5 44l56 -51q-52 -27 -120 -51t-133 -41v-92q0 -20 8.5 -26.5t37.5 -6.5z
" />
    <glyph glyph-name="uni2FC7" unicode="&#x2fc7;" 
d="M181 651v-199q0 -56 -3.5 -123.5t-13 -138t-27.5 -138t-48 -123.5q-9 11 -29 25t-32 20q37 70 53.5 154.5t21.5 169t5 154.5v270h403q-18 51 -42 100l73 19q16 -28 29.5 -60.5t23.5 -58.5h350v-71h-764zM557 262l-39 -59q-13 21 -39.5 56.5t-52.5 66.5v-401h-67v380
q-28 -74 -65.5 -139t-78.5 -106q-8 12 -22 27t-26 24q35 31 68 79.5t61 107.5t47 119h-133v65h149v146h67v-146h115v-65h-115v-11q13 -13 32 -33.5t39 -42.5t36.5 -40.5t23.5 -27.5zM941 417h-137q20 -58 47.5 -115.5t58.5 -106t61 -81.5q-12 -8 -26.5 -22t-24.5 -28
q-37 47 -74 120.5t-66 152.5v-412h-68v396q-32 -80 -74.5 -150.5t-88.5 -114.5q-9 12 -23 27.5t-25 23.5q38 32 74 81t67 108.5t53 120.5h-125v65h142v146h68v-146h161v-65z" />
    <glyph glyph-name="uni2FC7" unicode="&#x9ebb;" 
d="M181 651v-199q0 -56 -3.5 -123.5t-13 -138t-27.5 -138t-48 -123.5q-9 11 -29 25t-32 20q37 70 53.5 154.5t21.5 169t5 154.5v270h403q-18 51 -42 100l73 19q16 -28 29.5 -60.5t23.5 -58.5h350v-71h-764zM557 262l-39 -59q-13 21 -39.5 56.5t-52.5 66.5v-401h-67v380
q-28 -74 -65.5 -139t-78.5 -106q-8 12 -22 27t-26 24q35 31 68 79.5t61 107.5t47 119h-133v65h149v146h67v-146h115v-65h-115v-11q13 -13 32 -33.5t39 -42.5t36.5 -40.5t23.5 -27.5zM941 417h-137q20 -58 47.5 -115.5t58.5 -106t61 -81.5q-12 -8 -26.5 -22t-24.5 -28
q-37 47 -74 120.5t-66 152.5v-412h-68v396q-32 -80 -74.5 -150.5t-88.5 -114.5q-9 12 -23 27.5t-25 23.5q38 32 74 81t67 108.5t53 120.5h-125v65h142v146h68v-146h161v-65z" />
    <glyph glyph-name="uni2FCA" unicode="&#x2fca;" 
d="M628 534l-48 20q20 32 42 77.5t35 80.5l58 -22q-21 -40 -44 -83t-43 -73zM285 694l49 17q22 -34 40.5 -75.5t24.5 -70.5l-52 -20q-6 29 -24 71.5t-38 77.5zM229 520h233v216h-233v-216zM765 520v216h-230v-216h230zM942 224v-66h-883v66h403v90h-321v61h321v82h-304v342
h681v-342h-304v-82h323v-61h-323v-90h407zM129 -81l-69 33q34 29 63.5 74.5t47.5 91.5l71 -17q-19 -48 -48 -98t-65 -84zM341 93l69 5q10 -38 16 -84t6 -75l-73 -10q0 31 -5 77.5t-13 86.5zM546 91l69 14q17 -37 33.5 -82t23.5 -76l-73 -18q-7 32 -22 77.5t-31 84.5zM748 95
l67 23q25 -24 50 -54.5t47 -60.5t35 -53l-72 -28q-12 23 -33 53.5t-45.5 62t-48.5 57.5z" />
    <glyph glyph-name="uni2FCA" unicode="&#x9ed1;" 
d="M628 534l-48 20q20 32 42 77.5t35 80.5l58 -22q-21 -40 -44 -83t-43 -73zM285 694l49 17q22 -34 40.5 -75.5t24.5 -70.5l-52 -20q-6 29 -24 71.5t-38 77.5zM229 520h233v216h-233v-216zM765 520v216h-230v-216h230zM942 224v-66h-883v66h403v90h-321v61h321v82h-304v342
h681v-342h-304v-82h323v-61h-323v-90h407zM129 -81l-69 33q34 29 63.5 74.5t47.5 91.5l71 -17q-19 -48 -48 -98t-65 -84zM341 93l69 5q10 -38 16 -84t6 -75l-73 -10q0 31 -5 77.5t-13 86.5zM546 91l69 14q17 -37 33.5 -82t23.5 -76l-73 -18q-7 32 -22 77.5t-31 84.5zM748 95
l67 23q25 -24 50 -54.5t47 -60.5t35 -53l-72 -28q-12 23 -33 53.5t-45.5 62t-48.5 57.5z" />
    <glyph glyph-name="uni2FCE" unicode="&#x2fce;" 
d="M239 597v87h-186v63h186v89h73v-89h180v-63h-180v-87h162v-63h-398v63h163zM384 295v112h-220v-112h220zM456 466v-230h-361v230h361zM234 74l-66 -19q-4 29 -16 70.5t-29 75.5l62 16q19 -33 32 -73t17 -70zM495 84l3 -64q-79 -12 -159 -24t-153 -22.5t-132 -19.5l-11 68
q52 7 119.5 16l142.5 19q14 37 27.5 82.5t20.5 81.5l68 -16q-11 -34 -23 -70.5t-25 -68.5zM844 395h-247q20 -64 50 -122t70 -107q41 47 73.5 104.5t53.5 124.5zM887 466l47 -22q-25 -103 -68.5 -185.5t-99.5 -146.5q86 -85 201 -126q-13 -10 -27 -29t-23 -33
q-58 23 -108.5 57.5t-93.5 78.5q-49 -46 -105.5 -80.5t-116.5 -58.5q-7 13 -22.5 31.5t-28.5 27.5q62 24 119 57.5t106 77.5q-44 57 -78.5 125.5t-59.5 146.5l29 8h-56v68h182v147h-190v69h190v158h73v-158h192v-69h-192v-147h117z" />
    <glyph glyph-name="uni2FCE" unicode="&#x9f13;" 
d="M239 597v87h-186v63h186v89h73v-89h180v-63h-180v-87h162v-63h-398v63h163zM384 295v112h-220v-112h220zM456 466v-230h-361v230h361zM234 74l-66 -19q-4 29 -16 70.5t-29 75.5l62 16q19 -33 32 -73t17 -70zM495 84l3 -64q-79 -12 -159 -24t-153 -22.5t-132 -19.5l-11 68
q52 7 119.5 16l142.5 19q14 37 27.5 82.5t20.5 81.5l68 -16q-11 -34 -23 -70.5t-25 -68.5zM844 395h-247q20 -64 50 -122t70 -107q41 47 73.5 104.5t53.5 124.5zM887 466l47 -22q-25 -103 -68.5 -185.5t-99.5 -146.5q86 -85 201 -126q-13 -10 -27 -29t-23 -33
q-58 23 -108.5 57.5t-93.5 78.5q-49 -46 -105.5 -80.5t-116.5 -58.5q-7 13 -22.5 31.5t-28.5 27.5q62 24 119 57.5t106 77.5q-44 57 -78.5 125.5t-59.5 146.5l29 8h-56v68h182v147h-190v69h190v158h73v-158h192v-69h-192v-147h117z" />
    <glyph glyph-name="uni2FCF" unicode="&#x2fcf;" 
d="M859 787v-353h-712v343q46 7 95.5 15.5t95 18.5t78.5 20l38 -57q-49 -13 -111.5 -25t-122.5 -20v-82h228v-59h-228v-92h566v89h-229v59h229v82h-243v61h316zM716 133l-40 -46q-20 18 -55.5 43.5t-67.5 44.5l38 41q32 -18 68 -42t57 -41zM715 293l-39 -46
q-19 17 -53.5 40.5t-64.5 41.5l38 41q29 -16 63.5 -38.5t55.5 -38.5zM423 295l-39 -45q-19 16 -52 39.5t-62 40.5l38 40q29 -16 62.5 -37.5t52.5 -37.5zM228 25l170 34q-1 -15 -1 -32.5t1 -29.5q-75 -16 -121.5 -26.5t-71.5 -17t-37 -11t-19 -8.5q-3 13 -12 32t-17 30
q11 6 24 21t13 44v340h71v-376zM261 177l38 41q29 -16 63 -37.5t54 -38.5l-40 -46q-19 17 -52.5 40t-62.5 41zM521 26l196 42q-1 -14 -0.5 -31.5t0.5 -28.5q-82 -19 -132 -30.5t-77.5 -19t-40 -12t-19.5 -9.5q-4 14 -12 32t-16 28q11 5 22 18.5t11 41.5v345h68v-376z
M739 406h73q-1 -213 17.5 -310t53.5 -97q11 0 16.5 18t8.5 69q11 -10 25 -18t27 -13q-6 -76 -25 -101t-57 -25q-78 0 -107 121t-32 356z" />
    <glyph glyph-name="uni2FCF" unicode="&#x9f20;" 
d="M859 787v-353h-712v343q46 7 95.5 15.5t95 18.5t78.5 20l38 -57q-49 -13 -111.5 -25t-122.5 -20v-82h228v-59h-228v-92h566v89h-229v59h229v82h-243v61h316zM716 133l-40 -46q-20 18 -55.5 43.5t-67.5 44.5l38 41q32 -18 68 -42t57 -41zM715 293l-39 -46
q-19 17 -53.5 40.5t-64.5 41.5l38 41q29 -16 63.5 -38.5t55.5 -38.5zM423 295l-39 -45q-19 16 -52 39.5t-62 40.5l38 40q29 -16 62.5 -37.5t52.5 -37.5zM228 25l170 34q-1 -15 -1 -32.5t1 -29.5q-75 -16 -121.5 -26.5t-71.5 -17t-37 -11t-19 -8.5q-3 13 -12 32t-17 30
q11 6 24 21t13 44v340h71v-376zM261 177l38 41q29 -16 63 -37.5t54 -38.5l-40 -46q-19 17 -52.5 40t-62.5 41zM521 26l196 42q-1 -14 -0.5 -31.5t0.5 -28.5q-82 -19 -132 -30.5t-77.5 -19t-40 -12t-19.5 -9.5q-4 14 -12 32t-16 28q11 5 22 18.5t11 41.5v345h68v-376z
M739 406h73q-1 -213 17.5 -310t53.5 -97q11 0 16.5 18t8.5 69q11 -10 25 -18t27 -13q-6 -76 -25 -101t-57 -25q-78 0 -107 121t-32 356z" />
    <glyph glyph-name="uni3001" unicode="&#x3001;" 
d="M273 -56q-48 59 -108 119.5t-113 103.5l65 57q36 -29 76 -67t78.5 -78t69.5 -77z" />
    <glyph glyph-name="uni3002" unicode="&#x3002;" 
d="M194 244q43 0 77.5 -20.5t55 -55t20.5 -76.5t-20.5 -77t-55 -55.5t-77.5 -20.5q-41 0 -76 20.5t-55.5 55.5t-20.5 77t20.5 76.5t55.5 55t76 20.5zM194 -10q43 0 72.5 29.5t29.5 72.5q0 41 -29.5 71t-72.5 30q-41 0 -71 -30t-30 -71q0 -43 30 -72.5t71 -29.5z" />
    <glyph glyph-name="uni300A" unicode="&#x300a;" 
d="M591 380l215 -448l-54 -18l-222 466l222 466l54 -18zM749 380l215 -448l-54 -18l-222 466l222 466l54 -18z" />
    <glyph glyph-name="uni300B" unicode="&#x300b;" 
d="M248 -86l-54 18l215 448l-215 448l54 18l222 -466zM90 -86l-54 18l215 448l-215 448l54 18l222 -466z" />
    <glyph glyph-name="uni3B35" unicode="&#x3b35;" 
d="M930 690v-69h-515v69h253q-10 26 -30.5 61.5t-43.5 63.5l66 26q24 -28 45.5 -62t31.5 -61l-67 -28h260zM730 562l52 38q32 -31 65.5 -68.5t62 -74t44.5 -66.5l-56 -45q-15 30 -43 68t-60.5 77t-64.5 71zM535 595l65 -29q-33 -60 -80.5 -119.5t-97.5 -103.5q-9 10 -24 23
t-27 22q49 40 93 97.5t71 109.5zM170 317h128v172h-126v-54q0 -27 -0.5 -57t-1.5 -61zM298 722h-126v-166h126v166zM366 789v-775q0 -28 -7 -44t-24 -25q-16 -9 -42.5 -11.5t-66.5 -2.5q-1 14 -7.5 34.5t-13.5 33.5q26 -1 48.5 -1h29.5q8 1 11.5 4t3.5 12v235h-132
q-7 -86 -23 -173.5t-49 -158.5q-10 9 -28 20t-31 16q33 70 48 154t19 169t4 158v355h260zM773 418l71 -18q-43 -149 -133 -258q51 -51 112 -89.5t131 -61.5q-13 -12 -27.5 -31t-22.5 -35q-70 28 -130.5 69t-111.5 93q-101 -101 -250 -166q-7 12 -21.5 29t-25.5 26
q75 32 138 73t113 92q-87 111 -137 257l64 18q22 -61 52 -116.5t68 -104.5q75 98 110 223z" />
    <glyph glyph-name="uni3B35" unicode="&#x80f6;" 
d="M930 690v-69h-515v69h253q-10 26 -30.5 61.5t-43.5 63.5l66 26q24 -28 45.5 -62t31.5 -61l-67 -28h260zM730 562l52 38q32 -31 65.5 -68.5t62 -74t44.5 -66.5l-56 -45q-15 30 -43 68t-60.5 77t-64.5 71zM535 595l65 -29q-33 -60 -80.5 -119.5t-97.5 -103.5q-9 10 -24 23
t-27 22q49 40 93 97.5t71 109.5zM170 317h128v172h-126v-54q0 -27 -0.5 -57t-1.5 -61zM298 722h-126v-166h126v166zM366 789v-775q0 -28 -7 -44t-24 -25q-16 -9 -42.5 -11.5t-66.5 -2.5q-1 14 -7.5 34.5t-13.5 33.5q26 -1 48.5 -1h29.5q8 1 11.5 4t3.5 12v235h-132
q-7 -86 -23 -173.5t-49 -158.5q-10 9 -28 20t-31 16q33 70 48 154t19 169t4 158v355h260zM773 418l71 -18q-43 -149 -133 -258q51 -51 112 -89.5t131 -61.5q-13 -12 -27.5 -31t-22.5 -35q-70 28 -130.5 69t-111.5 93q-101 -101 -250 -166q-7 12 -21.5 29t-25.5 26
q75 32 138 73t113 92q-87 111 -137 257l64 18q22 -61 52 -116.5t68 -104.5q75 98 110 223z" />
    <glyph glyph-name="uni4E01" unicode="&#x4e01;" 
d="M936 745v-76h-365v-625q0 -44 -13.5 -65.5t-45.5 -31.5t-89 -12.5t-143 -2.5q-4 18 -14.5 43t-21.5 41q47 -1 90 -2t75 -0.5t45 0.5q18 1 25.5 7.5t7.5 23.5v624h-423v76h872z" />
    <glyph glyph-name="uni4E03" unicode="&#x4e03;" 
d="M503 32h256q33 0 49.5 14.5t24 54t12.5 113.5q14 -10 36.5 -20t38.5 -15q-6 -82 -20 -130t-46 -69t-93 -21h-261q-61 0 -96 12.5t-49.5 45t-14.5 91.5v303l-275 -44l-12 74l287 46v332h78v-320l520 84l12 -75l-532 -84v-317q0 -30 6.5 -46.5t25 -22.5t53.5 -6z" />
    <glyph glyph-name="uni4E07" unicode="&#x4e07;" 
d="M935 689h-523q-1 -49 -4 -100.5t-8 -103.5h444v-14t-1 -22q-7 -121 -13.5 -206t-15 -140.5t-19 -88t-25.5 -48.5q-17 -19 -36.5 -26.5t-48.5 -9.5q-28 -2 -76 -1t-100 5q-1 17 -8 37t-18 36q56 -6 105 -7t69 -1q17 0 27.5 2.5t19.5 10.5q15 14 26 58t19.5 127.5
t15.5 215.5h-374q-14 -98 -47 -190t-93.5 -169.5t-159.5 -132.5q-9 15 -24 31.5t-30 26.5q83 44 137 105.5t85.5 134.5t47 152.5t20.5 160.5t7 157h-269v72h870v-72z" />
    <glyph glyph-name="uni4E08" unicode="&#x4e08;" 
d="M935 571h-291q-7 -133 -32.5 -241.5t-93.5 -191.5q157 -114 432 -145q-12 -13 -25 -33t-19 -37q-281 39 -441 160q-59 -51 -145 -89t-207 -64q-5 15 -17.5 33.5t-24.5 31.5q116 23 198 58t136 81q-70 69 -118.5 162t-80.5 211l70 17q27 -106 71.5 -190t110.5 -147
q59 73 80.5 168.5t26.5 215.5h-498v72h501q1 42 1 87v92h80q0 -46 -0.5 -91t-1.5 -88h288v-72z" />
    <glyph glyph-name="uni4E09" unicode="&#x4e09;" 
d="M126 740h750v-74h-750v74zM190 416h608v-75h-608v75zM69 71h861v-75h-861v75z" />
    <glyph glyph-name="uni4E0A" unicode="&#x4e0a;" 
d="M506 45h440v-74h-891v74h373v776h78v-306h372v-74h-372v-396z" />
    <glyph glyph-name="uni4E0B" unicode="&#x4e0b;" 
d="M942 689h-422v-178l13 15q45 -21 94.5 -47.5t98 -55t90.5 -55t72 -49.5l-52 -67q-34 28 -86.5 62.5t-112.5 70.5t-117 66v-526h-79v764h-382v74h883v-74z" />
    <glyph glyph-name="uni4E0D" unicode="&#x4e0d;" 
d="M927 692h-317q-16 -28 -34 -55t-37 -55v-656h-79v556q-76 -86 -167 -161t-195 -130q-8 14 -23.5 33t-26.5 32q99 50 186.5 119t159.5 150.5t121 166.5h-442v74h854v-74zM559 477l55 48q44 -28 92 -62t94.5 -69.5t87 -69t67.5 -62.5l-59 -57q-27 29 -66 63.5t-85 71.5
t-94 72.5t-92 64.5z" />
    <glyph glyph-name="uni4E0D" unicode="&#xf967;" 
d="M927 692h-317q-16 -28 -34 -55t-37 -55v-656h-79v556q-76 -86 -167 -161t-195 -130q-8 14 -23.5 33t-26.5 32q99 50 186.5 119t159.5 150.5t121 166.5h-442v74h854v-74zM559 477l55 48q44 -28 92 -62t94.5 -69.5t87 -69t67.5 -62.5l-59 -57q-27 29 -66 63.5t-85 71.5
t-94 72.5t-92 64.5z" />
    <glyph glyph-name="uni4E0E" unicode="&#x4e0e;" 
d="M679 239v-72h-618v72h618zM262 449h625l-0.5 -14t-2.5 -22q-14 -142 -28.5 -232t-32 -139t-40.5 -71q-19 -19 -40 -26t-53 -9q-27 -1 -76 -0.5t-102 4.5q-1 17 -9 37.5t-19 35.5q59 -5 110.5 -6t73.5 -1q19 0 31 2t20 10q29 22 49 105.5t37 255.5h-576l-62 1
q12 41 24.5 94.5t25.5 112.5t24.5 118t20.5 110l75 -8q-5 -25 -10 -52.5t-11 -55.5h556v-71h-570q-10 -47 -20 -92.5t-20 -86.5z" />
    <glyph glyph-name="uni4E11" unicode="&#x4e11;" 
d="M716 345h-311q-8 -89 -16.5 -172t-16.5 -148h321q7 67 13 149.5t10 170.5zM733 699h-300q-4 -64 -10 -136.5t-12 -144.5h310q4 71 7 143t5 138zM771 25h180v-73h-900v73h244q8 66 17.5 149t17.5 171h-193v73h200q14 150 20 281h-242v73h696q-3 -88 -7 -187.5t-9.5 -200
t-11.5 -193t-12 -166.5z" />
    <glyph glyph-name="uni4E13" unicode="&#x4e13;" 
d="M925 464h-535q-10 -29 -19 -56.5t-18 -53.5h431l13 4l56 -34q-54 -55 -125 -125t-140 -135q48 -20 90 -39.5t73 -38.5l-45 -64q-36 23 -88.5 48t-114 50.5t-124.5 48t-120 39.5l42 54q50 -13 104 -31.5t109 -38.5q50 47 102.5 98t94.5 94h-464q15 38 31.5 84t34.5 96
h-253v72h276q10 29 19.5 59t17.5 59h-233v71h254q8 29 16 56.5t14 52.5h79q-7 -25 -15.5 -52.5t-17.5 -56.5h383v-71h-403q-10 -29 -19 -59t-18 -59h512v-72z" />
    <glyph glyph-name="uni4E14" unicode="&#x4e14;" 
d="M287 215v-176h435v176h-435zM722 706h-435v-172h435v172zM722 287v177h-435v-177h435zM798 39h146v-73h-887v73h157v739h584v-739z" />
    <glyph glyph-name="uni4E16" unicode="&#x4e16;" 
d="M722 516h-191v-247h191v247zM798 200h-340v316h-182v-455h643v-73h-720v528h-145v72h145v221h77v-221h182v244h73v-244h191v232h76v-232h149v-72h-149v-316z" />
    <glyph glyph-name="uni4E18" unicode="&#x4e18;" 
d="M286 403v-354h369v354h-369zM730 49h218v-73h-895v73h158v676q74 4 154 10.5t156.5 17t143.5 24t116 30.5l45 -64q-67 -23 -157 -39.5t-189.5 -27t-193.5 -16.5v-184h612v-73h-168v-354z" />
    <glyph glyph-name="uni4E19" unicode="&#x4e19;" 
d="M535 696v-145v-3h359v-526q0 -34 -9.5 -53.5t-35.5 -28.5q-25 -9 -70.5 -11t-111.5 -2q-3 16 -11 37.5t-16 36.5q53 -2 97.5 -2t59.5 1q14 1 19 5.5t5 16.5v455h-289q-5 -40 -15 -80q48 -35 99 -75.5t96 -80.5t74 -72l-53 -56q-25 30 -64.5 66.5t-84.5 75.5t-90 74
q-28 -64 -84 -124.5t-153 -111.5q-8 13 -24.5 30t-30.5 27q96 46 148.5 101.5t74.5 113.5t28 112h-271v-553h-74v624h348v4v144h-385v73h858v-73h-394z" />
    <glyph glyph-name="uni4E1A" unicode="&#x4e1a;" 
d="M851 606l67 -33q-24 -57 -53 -119t-59.5 -120.5t-59.5 -104.5l-61 33q28 45 59 104.5t59.5 122t47.5 117.5zM295 265l-74 -28q-12 44 -34 104.5t-49 125.5t-53 121l69 21q27 -55 54 -118.5t50.5 -122.5t36.5 -103zM659 49h279v-73h-874v73h278v775h74v-775h169v774h74
v-774z" />
    <glyph glyph-name="uni4E1B" unicode="&#x4e1b;" 
d="M645 824l79 -5q-4 -55 -8.5 -106.5t-10.5 -100.5q12 -61 32 -126.5t49 -128t68 -117t90 -92.5q-12 -10 -28.5 -30t-25.5 -36q-53 45 -93.5 105.5t-70.5 129t-50 136.5q-29 -121 -80 -217t-133 -168q-9 12 -28.5 30t-33.5 28q88 69 138 170.5t73.5 234t32.5 293.5z
M507 301l-58 -54q-20 44 -57 103t-78 115q-24 -121 -67.5 -218t-115.5 -171q-9 11 -29 28.5t-34 27.5q77 72 119.5 175t62 234t26.5 286l78 -5q-4 -70 -9.5 -135t-13.5 -124q34 -42 68 -89t62.5 -92t45.5 -81zM59 -46v76h884v-76h-884z" />
    <glyph glyph-name="uni4E1C" unicode="&#x4e1c;" 
d="M260 261l73 -19q-35 -79 -88 -153t-107 -125q-10 11 -29.5 25.5t-33.5 23.5q55 46 104.5 112t80.5 136zM870 341h-288v-316q0 -33 -8.5 -51t-31.5 -27q-23 -10 -61.5 -12.5t-91.5 -2.5q-2 16 -10.5 38t-17.5 38q44 -1 79.5 -1.5t47.5 0.5t16 5t4 14v315h-220
q-44 0 -72 -3.5t-35 -11.5q-4 13 -12 37t-16 40q17 5 34.5 25t40.5 53q13 17 38.5 58t55.5 95h-241v71h278q17 33 33 68t30 69l77 -33q-11 -25 -23.5 -51.5t-26.5 -52.5h463v-71h-501q-33 -60 -68.5 -116t-70.5 -105h236v146h74v-146h289zM664 232l61 31q39 -37 80 -82
t76 -89t56 -79l-67 -36q-19 34 -53 78.5t-74 91t-79 85.5z" />
    <glyph glyph-name="uni4E1D" unicode="&#x4e1d;" 
d="M622 233l290 14q-3 -16 -4.5 -35t-1.5 -32q-117 -6 -188 -10.5t-109 -8t-55 -6t-27 -5.5q-3 11 -10 32.5t-13 35.5q17 5 39 24t50 49q16 15 47.5 52t69.5 86q-74 -4 -112.5 -7.5t-55 -6t-24.5 -6.5q-3 11 -10 33t-14 36q14 3 29 20t33 43q9 13 27.5 42.5t41.5 70t45.5 87
t40.5 93.5l69 -28q-39 -85 -86.5 -167.5t-97.5 -149.5l163 6q26 35 50.5 73.5t46.5 75.5l65 -35q-66 -105 -143 -201.5t-156 -174.5zM215 229l259 14q-2 -16 -4 -35t-1 -31q-108 -7 -173 -12t-99.5 -8t-50 -6t-23.5 -7q-3 11 -10.5 33t-15.5 36q19 5 39.5 25t48.5 51
q15 15 44 50.5t64 83.5q-70 -4 -107 -7.5t-52.5 -6.5t-23.5 -6q-3 11 -10 33t-14 36q14 3 29 20.5t32 43.5q9 13 27.5 42.5t40.5 71t44 88.5t39 94l70 -28q-38 -85 -85 -169t-96 -152l152 6q26 38 51 79t47 82l67 -34q-64 -106 -138.5 -206.5t-150.5 -180.5zM55 51h887v-69
h-887v69z" />
    <glyph glyph-name="uni4E22" unicode="&#x4e22;" 
d="M937 381v-70h-496l34 -14q-49 -66 -102.5 -128.5t-107.5 -113.5l480 34q-27 36 -55 72t-56 67l68 28q41 -44 83 -97t77 -105t55 -93l-73 -33q-10 21 -24.5 46t-31.5 52q-164 -13 -273.5 -21.5t-177 -14.5t-104.5 -10t-55 -7.5t-29 -8.5v1q-3 12 -10.5 35.5t-13.5 38.5
q15 2 33.5 16t40.5 36q15 13 46.5 46t69.5 78.5t72 95.5h-325v70h400v134h-318v71h318v123q-83 -7 -166.5 -11t-160.5 -6q-1 15 -7 35.5t-12 33.5q91 3 188 8.5t191 14.5t175.5 20.5t141.5 26.5l56 -65q-68 -16 -153.5 -29t-178.5 -21v-130h319v-71h-319v-134h401z" />
    <glyph glyph-name="uni4E24" unicode="&#x4e24;" 
d="M588 558v137h-181v-137h181zM938 695h-277v-137h236v-540q0 -34 -9.5 -53.5t-35.5 -28.5q-25 -9 -71 -11t-113 -2q-3 16 -10.5 37.5t-15.5 37.5q53 -3 98 -3t59 1t19.5 6t5.5 18v468h-164q-1 -23 -3.5 -48t-6.5 -51q31 -35 62.5 -74.5t58 -76t41.5 -64.5l-44 -57
q-21 38 -58 90t-78 102q-16 -64 -49 -127t-87 -117q-8 11 -23.5 27t-29.5 25q58 54 88 117.5t42 129.5t14 124h-181q-1 -24 -3.5 -50t-6.5 -52q30 -36 59 -75t45 -67l-45 -59q-12 24 -33 55.5t-45 62.5q-16 -63 -49 -124t-86 -114q-8 11 -23.5 27t-28.5 25q57 54 87 117.5
t42 129.5t14 124h-155v-565h-73v635h229v137h-271v72h875v-72z" />
    <glyph glyph-name="uni4E25" unicode="&#x4e25;" 
d="M431 715v-260h135v260h-135zM933 455v-66h-744v-98q0 -54 -7.5 -120t-29 -131t-62.5 -117q-9 11 -27.5 28t-29.5 23q37 48 54.5 103.5t23 111t5.5 103.5v163h242v260h-250v65h794v-65h-263v-260h294zM301 501l-67 -24q-9 38 -32.5 90t-52.5 94l63 23q30 -42 54.5 -93
t34.5 -90zM743 476l-60 21q17 25 35.5 58.5t35 68.5t26.5 63l76 -25q-26 -48 -56.5 -99.5t-56.5 -86.5z" />
    <glyph glyph-name="uni4E27" unicode="&#x4e27;" 
d="M826 313l58 -42q-47 -38 -105.5 -76.5t-110.5 -67.5q57 -49 129 -82.5t160 -50.5q-11 -12 -24.5 -31t-21.5 -34q-174 42 -287.5 143t-173.5 259h-154v-304l240 52q-2 -16 -3.5 -37.5t-0.5 -32.5q-102 -24 -164 -38.5t-95 -23t-48 -14t-24 -10.5q-3 14 -12 34.5t-19 33.5
q15 6 32 21.5t17 45.5v273h-161v69h403v257h-367v68h367v111h73v-111h376v-68h-376v-257h411v-69h-423q20 -46 45 -86t56 -75q35 20 72 44.5t71.5 50.5t59.5 48zM175 602l63 27q21 -25 43 -55.5t41 -59.5t29 -52l-68 -32q-9 23 -26.5 53t-39 61.5t-42.5 57.5zM681 425
l-57 26q20 24 42.5 56t43 65t34.5 60l74 -29q-32 -46 -68.5 -95t-68.5 -83z" />
    <glyph glyph-name="uni4E2A" unicode="&#x4e2a;" 
d="M461 -76v619h76v-619h-76zM506 837l65 -31q-7 -11 -13 -22t-14 -22q95 -113 200.5 -188.5t220.5 -131.5q-15 -11 -30.5 -30t-23.5 -36q-111 58 -211.5 134t-198.5 194q-80 -103 -186.5 -187t-220.5 -140q-9 16 -24.5 35t-30.5 32q94 41 182 101t161.5 134.5t123.5 157.5z
" />
    <glyph glyph-name="uni4E2D" unicode="&#x4e2d;" 
d="M536 321h287v265h-287v-265zM173 321h286v265h-286v-265zM536 659h363v-468h-76v57h-287v-324h-77v324h-286v-62h-73v473h359v178h77v-178z" />
    <glyph glyph-name="uni4E30" unicode="&#x4e30;" 
d="M945 237v-73h-407v-238h-77v238h-404v73h404v161h-318v71h318v148h-367v73h367v146h77v-146h367v-73h-367v-148h321v-71h-321v-161h407z" />
    <glyph glyph-name="uni4E32" unicode="&#x4e32;" 
d="M536 155h282v144h-282v-144zM183 155h275v144h-275v-144zM222 517h236v138h-236v-138zM774 655h-238v-138h238v138zM536 368h361v-320h-79v40h-282v-164h-78v164h-275v-42h-75v322h350v83h-311v270h311v114h78v-114h317v-270h-317v-83z" />
    <glyph glyph-name="uni4E32" unicode="&#xf905;" 
d="M536 155h282v144h-282v-144zM183 155h275v144h-275v-144zM222 517h236v138h-236v-138zM774 655h-238v-138h238v138zM536 368h361v-320h-79v40h-282v-164h-78v164h-275v-42h-75v322h350v83h-311v270h311v114h78v-114h317v-270h-317v-83z" />
    <glyph glyph-name="uni4E34" unicode="&#x4e34;" 
d="M88 55v661h70v-661h-70zM253 -69v892h73v-892h-73zM639 307h-140v-261h140v261zM846 46v261h-138v-261h138zM427 -76v454h493v-450h-74v49h-347v-53h-72zM801 467l-50 -53q-18 20 -47 47t-61 55.5t-62 51.5l49 44q30 -23 62.5 -49.5t61.5 -51.5t47 -44zM565 720h382v-72
h-412q-26 -58 -56.5 -108.5t-65.5 -90.5q-10 8 -30 21t-34 20q60 63 105 155.5t72 195.5l73 -14q-7 -27 -16 -54t-18 -53z" />
    <glyph glyph-name="uni4E38" unicode="&#x4e38;" 
d="M784 12h87q15 0 22.5 14t11 53t4.5 113q13 -10 33.5 -19.5t35.5 -14.5q-3 -83 -12 -131t-29.5 -68t-58.5 -20h-106q-55 0 -76 24t-21 93v494h-229q-5 -63 -15 -124.5t-27 -120.5q51 -35 95 -70t75 -66l-56 -60q-25 27 -61.5 58t-79.5 63q-39 -94 -108 -173t-181 -135
q-7 14 -23.5 31t-30.5 27q110 53 176.5 129t102.5 168q-46 32 -93.5 61.5t-91.5 54.5l51 51q38 -20 78 -44t80 -50q13 48 20.5 98t11.5 102h-281v73h286q2 53 2.5 105.5t0.5 104.5h77q0 -52 -1 -104.5t-3 -105.5h302v-568q0 -28 6 -35.5t26 -7.5z" />
    <glyph glyph-name="uni4E39" unicode="&#x4e39;" 
d="M374 622l52 42q35 -25 72.5 -56t70.5 -62t54 -56l-56 -47q-20 25 -52.5 56.5t-69.5 64t-71 58.5zM273 402h462v314h-461v-268v-22.5t-1 -23.5zM945 402v-71h-135v-309q0 -38 -11.5 -58t-37.5 -29q-27 -8 -75.5 -10t-125.5 -2q-3 15 -11 36.5t-17 35.5q59 -2 109 -2t66 1
q15 1 21.5 6.5t6.5 21.5v309h-466q-6 -71 -24 -144.5t-54 -142t-98 -123.5q-7 11 -24.5 28t-30.5 25q56 50 88.5 109t48.5 122.5t21 125.5h-139v71h142q1 12 1 24v23v335h610v-382h135z" />
    <glyph glyph-name="uni4E39" unicode="&#xf95e;" 
d="M374 622l52 42q35 -25 72.5 -56t70.5 -62t54 -56l-56 -47q-20 25 -52.5 56.5t-69.5 64t-71 58.5zM273 402h462v314h-461v-268v-22.5t-1 -23.5zM945 402v-71h-135v-309q0 -38 -11.5 -58t-37.5 -29q-27 -8 -75.5 -10t-125.5 -2q-3 15 -11 36.5t-17 35.5q59 -2 109 -2t66 1
q15 1 21.5 6.5t6.5 21.5v309h-466q-6 -71 -24 -144.5t-54 -142t-98 -123.5q-7 11 -24.5 28t-30.5 25q56 50 88.5 109t48.5 122.5t21 125.5h-139v71h142q1 12 1 24v23v335h610v-382h135z" />
    <glyph glyph-name="uni4E3A" unicode="&#x4e3a;" 
d="M337 662l-68 -33q-14 31 -44 74t-60 77l64 28q30 -33 61 -74.5t47 -71.5zM483 597h415l-0.5 -15.5t-0.5 -23.5q-6 -149 -12 -252.5t-13.5 -170.5t-17.5 -105t-25 -56q-17 -20 -36 -28.5t-47 -10.5q-25 -2 -69 -1.5t-89 3.5q-1 17 -8 38.5t-18 38.5q50 -5 93 -6t62 -1
q15 0 25 3t18 12q15 15 25.5 68.5t18.5 158.5t15 274h-343q-9 -73 -30.5 -149.5t-62.5 -152.5t-106 -148t-161 -136q-9 14 -26.5 29.5t-31.5 25.5q120 78 190.5 167.5t105 182.5t46.5 181h-314v74h322q2 32 3 62t1 58v117h74v-118q0 -56 -3 -119zM699 211l-65 -36
q-12 26 -34.5 60.5t-48.5 70t-52 65.5l61 30q27 -29 54 -63t49.5 -67.5t35.5 -59.5z" />
    <glyph glyph-name="uni4E3B" unicode="&#x4e3b;" 
d="M539 29h405v-73h-884v73h400v246h-308v71h308v219h-354v73h439q-19 23 -47.5 50t-60.5 54t-62 49l60 42q32 -23 67 -51.5t66 -57t50 -52.5l-47 -34h323v-73h-355v-219h314v-71h-314v-246z" />
    <glyph glyph-name="uni4E3D" unicode="&#x4e3d;" 
d="M453 602v-587q0 -29 -6.5 -46t-26.5 -26q-19 -9 -48.5 -11.5t-75.5 -1.5q-1 14 -7.5 34.5t-13.5 36.5q30 -1 55.5 -1.5t33.5 0.5q16 0 16 16v518h-199v-610h-70v678h342zM358 224l-61 -27q-9 27 -24.5 62t-34 71.5t-36.5 68.5l58 21q18 -30 37 -66t35 -70t26 -60z
M897 602v-589q0 -30 -7 -46.5t-26 -25.5q-19 -10 -51 -11.5t-79 -1.5q-2 15 -8 35t-14 35q32 -1 59.5 -1h35.5q17 0 17 16v521h-213v-610h-70v678h356zM796 219l-58 -27q-10 26 -27 60t-36 70t-37 66l55 23q19 -30 39 -65.5t37 -68.5t27 -58zM57 776h887v-72h-887v72z" />
    <glyph glyph-name="uni4E3E" unicode="&#x4e3e;" 
d="M553 688l-66 -30q-11 32 -36 76t-53 81l62 27q27 -35 53.5 -78.5t39.5 -75.5zM537 311v-122h375v-71h-375v-196h-74v196h-367v71h367v122h-227v70h227v122h74v-122h235v-70h-235zM943 573h-238q47 -67 118 -123.5t147 -87.5q-13 -10 -27.5 -27.5t-22.5 -32.5
q-56 27 -110.5 69t-101 94t-79.5 108h-252q-32 -60 -78.5 -113.5t-102 -96t-114.5 -69.5q-8 14 -22.5 30.5t-25.5 26.5q79 32 150.5 91.5t116.5 130.5h-242v68h202q-15 30 -43.5 70.5t-57.5 72.5l63 30q31 -32 61.5 -73t46.5 -73l-53 -27h358q21 25 44 57t44 65.5t35 60.5
l78 -26q-27 -40 -58.5 -81.5t-60.5 -75.5h225v-68z" />
    <glyph glyph-name="uni4E43" unicode="&#x4e43;" 
d="M646 418h245v-14.5t-1 -22.5q-7 -130 -14.5 -211.5t-18.5 -124.5t-29 -61q-17 -19 -37.5 -26.5t-50.5 -9.5q-27 -2 -75.5 -1t-100.5 4q-2 17 -10.5 39t-20.5 38q57 -5 107.5 -6.5t71.5 -1.5q17 0 28 2.5t19 9.5q19 17 30.5 88.5t19.5 224.5h-272q16 46 34 105t35 122.5
t31 123.5h-301v-30q0 -60 -4 -131.5t-17 -149.5t-39.5 -158t-71.5 -157t-113 -147q-9 12 -26.5 30.5t-31.5 28.5q81 81 127 172t67.5 183t27.5 176.5t6 152.5v30h-161v72h636q-12 -55 -27.5 -116t-31.5 -121.5t-31 -112.5z" />
    <glyph glyph-name="uni4E45" unicode="&#x4e45;" 
d="M630 679l53 -24q-17 -70 -40 -133.5t-51 -121.5q34 -90 88.5 -170t126.5 -142t156 -98q-13 -10 -28.5 -30t-24.5 -35q-119 56 -211 159.5t-152 234.5q-85 -141 -199 -240t-242 -158q-8 14 -25.5 34.5t-31.5 30.5q121 51 226.5 136t186 204.5t124.5 274.5h-261
q-46 -88 -102 -163.5t-119 -131.5q-10 11 -31 27.5t-35 26.5q101 81 178 206t123 270l78 -18q-12 -37 -26 -72.5t-30 -70.5h255z" />
    <glyph glyph-name="uni4E48" unicode="&#x4e48;" 
d="M443 825l77 -28q-49 -77 -113.5 -156.5t-137.5 -152t-147 -129.5q-10 12 -27 28t-30 26q73 52 144.5 121.5t132.5 145.5t101 145zM943 -26l-70 -39q-10 23 -25 50.5t-32 55.5q-146 -13 -250.5 -21.5t-176.5 -14.5t-117 -10t-71.5 -7t-40 -5.5t-23.5 -6.5
q-4 13 -13.5 36.5t-18.5 39.5q23 5 56 30.5t78 66.5q25 21 72 67.5t107 111.5t123 142t120 158l76 -36q-115 -155 -237 -288t-241 -236l513 41q-33 49 -68.5 97.5t-69.5 90.5l66 33q47 -56 94 -120.5t86.5 -126t62.5 -109.5z" />
    <glyph glyph-name="uni4E49" unicode="&#x4e49;" 
d="M580 602l-68 -28q-8 33 -24.5 74.5t-35.5 85.5t-38 82l64 24q19 -38 39 -81t36.5 -83.5t26.5 -73.5zM790 763l76 -24q-53 -151 -127.5 -282.5t-181.5 -239.5q86 -76 186.5 -133.5t215.5 -92.5q-13 -12 -28 -31.5t-23 -35.5q-118 39 -219.5 99.5t-187.5 139.5
q-84 -74 -188 -134t-232 -105q-7 14 -18.5 32.5t-22.5 31.5q125 41 226 98t183 129q-97 101 -172 223.5t-128 261.5l68 21q49 -128 121 -243t166 -210q101 102 170.5 227.5t115.5 267.5z" />
    <glyph glyph-name="uni4E4B" unicode="&#x4e4b;" 
d="M589 679l-68 -39q-10 22 -27.5 51t-37.5 60t-39 57l64 33q20 -25 41 -55t39 -58t28 -49zM810 644l56 -38q-46 -69 -108.5 -140t-135.5 -139.5t-150.5 -129t-154.5 -107.5q6 -4 12.5 -8.5t13.5 -9.5q47 -30 109.5 -38.5t146.5 -8.5q58 0 123 2.5t127 6.5t110 9
q-7 -14 -14 -38.5t-8 -41.5q-28 -2 -70.5 -4t-91.5 -3.5t-96 -2.5t-83 -1q-90 0 -154 11.5t-114 42.5q-31 20 -54 39t-40 19q-24 0 -57.5 -37t-68.5 -87l-55 68q50 54 97 90t85 36q4 0 7 -0.5t6 -1.5q68 39 137.5 90.5t134.5 109.5t121 118t98 117h-635v72h690z" />
    <glyph glyph-name="uni4E4C" unicode="&#x4e4c;" 
d="M755 197v-67h-694v67h694zM917 377v-35q-7 -126 -14.5 -203t-17.5 -118.5t-26 -58.5q-15 -17 -32 -23.5t-43 -8.5q-22 -2 -62.5 -1.5t-84.5 3.5q-1 16 -7 35.5t-17 34.5q47 -4 86.5 -5t57.5 -1q14 0 23.5 2t16.5 9q11 11 19.5 44t15 95.5t11.5 161.5h-649v426h194
q13 26 25.5 55t19.5 53l78 -12q-12 -25 -24.5 -50t-25.5 -46h362l-3 -34q-9 -106 -20 -156t-28 -68q-13 -13 -29.5 -18t-38.5 -7q-19 0 -55 0.5t-74 3.5q-1 14 -5.5 32t-11.5 31q38 -4 71.5 -5t46.5 -1q14 0 21.5 1.5t13.5 8.5q9 10 16.5 43.5t14.5 100.5h-476v-289h651z
" />
    <glyph glyph-name="uni4E4E" unicode="&#x4e4e;" 
d="M945 367v-75h-397v-268q0 -40 -12.5 -60t-41.5 -28q-28 -10 -77.5 -12t-128.5 -2q-4 16 -13.5 38t-19.5 38q63 -2 115.5 -2h69.5q17 1 23.5 7t6.5 22v267h-412v75h412v331q-84 -7 -168 -12t-162 -7q-1 16 -7 35t-11 32q90 3 186 9.5t190 16t176 22t143 28.5l39 -67
q-63 -16 -142 -28.5t-166 -20.5v-339h397zM168 625l65 22q20 -34 39.5 -73.5t35 -76.5t22.5 -66l-68 -27q-7 29 -22 67t-33.5 78.5t-38.5 75.5zM732 406l-60 25q19 31 39 72t38.5 84t30.5 78l79 -27q-30 -59 -64 -123.5t-63 -108.5z" />
    <glyph glyph-name="uni4E4F" unicode="&#x4e4f;" 
d="M840 818l50 -62q-72 -18 -163 -31.5t-192 -23t-203.5 -15.5t-196.5 -9q-1 14 -7 34t-11 33q93 3 193.5 9.5t198.5 15.5t183 21.5t148 27.5zM552 543l-67 -37q-15 28 -41 70t-50 76l64 31q24 -33 51.5 -73t42.5 -67zM814 497l54 -39q-60 -72 -145.5 -144t-184.5 -135.5
t-199 -109.5q48 -32 111.5 -41.5t151.5 -9.5q60 0 125.5 2.5t127 6.5t109.5 9q-7 -13 -14.5 -38t-8.5 -42q-27 -1 -70 -3t-92.5 -4t-97 -3t-83.5 -1q-97 0 -161.5 12t-116.5 48q-31 21 -55.5 43.5t-40.5 22.5q-15 0 -33.5 -19.5t-39 -51t-42.5 -67.5l-58 73q51 62 96 99
t79 37q14 0 27 -7.5t27 -19.5q84 36 168 86t157.5 107t127.5 112h-610v73h675z" />
    <glyph glyph-name="uni4E50" unicode="&#x4e50;" 
d="M238 279l72 -24q-28 -47 -63 -96t-72 -93.5t-72 -79.5q-10 10 -29 25t-31 23q35 31 70.5 71.5t68 85t56.5 88.5zM922 365h-364v-345q0 -34 -10 -53t-33 -27q-24 -10 -64 -12.5t-105 -1.5q-3 15 -10.5 36.5t-15.5 37.5q47 -1 86.5 -1.5t52.5 0.5t18.5 5t5.5 17v344h-234
q-49 0 -79 -3t-38 -10q-3 12 -11 34t-14 35q10 4 17 21t14 43q5 16 13 59.5t15.5 101t7.5 114.5q84 2 175.5 7t180 13t165.5 19t134 26l43 -65q-59 -15 -133.5 -26t-157.5 -19t-168 -13t-166 -7q-7 -66 -18.5 -133t-26.5 -123h281v199h75v-199h364v-74zM691 248l64 30
q36 -39 75 -85t73 -90t54 -78l-69 -36q-19 34 -52 79.5t-71 93t-74 86.5z" />
    <glyph glyph-name="uni4E52" unicode="&#x4e52;" 
d="M361 172l67 -43q-41 -35 -93 -72t-106.5 -69.5t-105.5 -57.5q-9 12 -24 28t-28 26q51 23 105.5 55t103 67t81.5 66zM301 498v-232h339v232h-339zM714 266h234v-71h-894v71h172v507q74 4 153 9.5t156.5 13t146 17t120.5 20.5l39 -68q-71 -13 -161.5 -24t-187.5 -19
t-191 -13v-141h591v-70h-178v-232z" />
    <glyph glyph-name="uni4E53" unicode="&#x4e53;" 
d="M587 119l56 46q48 -26 102.5 -59.5t105 -67t83.5 -60.5l-59 -53q-31 26 -80 60.5t-104 70t-104 63.5zM301 498v-232h339v232h-339zM714 266h234v-71h-894v71h172v507q74 4 153 9.5t156.5 13t146 17t120.5 20.5l39 -68q-71 -13 -161.5 -24t-187.5 -19t-191 -13v-141h591
v-70h-178v-232z" />
    <glyph glyph-name="uni4E54" unicode="&#x4e54;" 
d="M299 265v111h74v-113q0 -43 -7 -89t-28 -91t-63.5 -86t-114.5 -75q-10 14 -26.5 30t-30.5 25q66 30 105.5 65t59 73t25.5 76t6 74zM616 -76v453h75v-453h-75zM943 519h-280q53 -68 132.5 -120.5t169.5 -79.5q-13 -11 -28 -29.5t-23 -33.5q-102 36 -190 104.5t-144 158.5
h-163q-61 -91 -144 -157.5t-188 -112.5q-7 11 -23 31.5t-28 30.5q184 71 292 208h-268v72h317q17 28 30.5 58t24.5 62q-76 -5 -153 -8t-149 -5q-1 14 -6 32.5t-11 30.5q91 2 188.5 7t192 12.5t176.5 17.5t142 23l54 -59q-72 -16 -162 -26.5t-188 -18.5q-11 -34 -25 -65.5
t-29 -60.5h483v-72z" />
    <glyph glyph-name="uni4E56" unicode="&#x4e56;" 
d="M281 423v89h71v-405h-71v86q-52 -19 -101.5 -37.5t-93.5 -34.5l-33 68q44 11 104 30t124 38v100h-206v66h206zM940 555h-404v-632h-76v632h-398v69h398v99q-81 -5 -163 -9t-159 -6q-1 14 -6.5 31.5t-10.5 30.5q89 3 184 8t186.5 12.5t171.5 17.5t140 22l51 -61
q-66 -13 -147.5 -22.5t-170.5 -17.5v-105h404v-69zM749 178h106q13 0 20 7.5t10.5 29.5t4.5 67q11 -9 30 -17t34 -12q-4 -55 -13.5 -86t-28 -43t-50.5 -12h-123q-58 0 -78 20t-20 77v302h72v-126q46 20 89 44.5t73 46.5l53 -54q-45 -28 -102.5 -54.5t-112.5 -46.5v-112
q0 -19 6.5 -25t29.5 -6z" />
    <glyph glyph-name="uni4E58" unicode="&#x4e58;" 
d="M642 533h69v-102q40 15 77 31.5t65 31.5l45 -55q-41 -18 -90.5 -36.5t-96.5 -32.5v-81q0 -16 6 -21t28 -5h98q17 0 23 12.5t7 61.5q11 -9 29 -16t34 -9q-7 -67 -25 -90t-60 -23h-115q-56 0 -75 19t-19 71v244zM81 216l-15 64q43 5 100.5 14t119.5 19v88h-191v61h191v69
h69v-323h-69v46zM537 560v-229q42 -69 108 -131.5t147 -110t168 -73.5q-12 -11 -26 -29.5t-23 -32.5q-108 38 -205.5 110.5t-168.5 166.5v-306h-76v301q-70 -91 -167.5 -161t-207.5 -107q-8 14 -21.5 32.5t-26.5 29.5q88 25 168.5 71.5t146.5 108t108 130.5v230h-394v68h394
v92q-79 -6 -159 -9.5t-154 -5.5q-1 14 -6.5 32t-10.5 31q87 3 180.5 8.5t185 13.5t172 18t140.5 23l34 -65q-62 -13 -141 -22.5t-165 -17.5v-98h394v-68h-394z" />
    <glyph glyph-name="uni4E5D" unicode="&#x4e5d;" 
d="M765 11h102q14 0 21 11t10.5 42t4.5 91q13 -11 33.5 -19.5t35.5 -13.5q-3 -69 -12.5 -109.5t-30 -57.5t-57.5 -17h-118q-58 0 -79.5 23.5t-21.5 91.5v455h-229q-8 -94 -27 -179.5t-56.5 -160.5t-98 -136.5t-150.5 -107.5q-7 14 -23.5 31.5t-31.5 27.5q113 54 177 133.5
t94 179t39 212.5h-264v74h269q2 59 2.5 120t0.5 124h79q-1 -62 -1.5 -123.5t-3.5 -120.5h269v-1h30v-529q0 -26 6.5 -33.5t30.5 -7.5z" />
    <glyph glyph-name="uni4E5E" unicode="&#x4e5e;" 
d="M926 636h-659q-37 -54 -78 -102t-83 -85q-11 11 -31 27.5t-34 26.5q76 59 142 148t107 187l76 -23q-11 -27 -25 -53.5t-29 -52.5h614v-73zM326 17l459 -1q28 0 44 10.5t23.5 41t9.5 91.5q34 -18 73 -25q-6 -80 -22 -121.5t-47.5 -55.5t-86.5 -14h-444q-94 0 -138.5 30
t-44.5 82q0 17 5.5 36.5t26.5 46.5t66.5 65.5t124 93.5t199.5 131h-371v72h498l17 3l54 -38q-3 -2 -7.5 -5.5t-9.5 -6.5q-148 -90 -244.5 -152.5t-153.5 -103.5t-84.5 -67t-35.5 -41.5t-8 -26.5q0 -24 26.5 -34.5t70.5 -10.5z" />
    <glyph glyph-name="uni4E5F" unicode="&#x4e5f;" 
d="M406 12h352q47 0 70.5 14t34 52.5t16.5 109.5q14 -10 34 -18t35 -12q-7 -80 -24 -127t-55 -67t-110 -20h-350q-74 0 -116 13t-59 47.5t-17 96.5v312l-163 -51l-20 67l183 56v284h72v-262l207 64v264h73v-242l232 72l6 5l15 11l52 -23l-4 -14q-2 -140 -9 -231t-23 -135
q-14 -38 -34 -54.5t-46 -20.5q-23 -4 -56.5 -5t-60.5 0q-1 14 -6 35t-13 34q26 -2 56.5 -2.5t43.5 -0.5q17 0 29.5 8.5t22.5 38.5q11 32 16.5 103t6.5 179l-228 -71v-386h-73v363l-207 -64v-336q0 -35 9 -54t34.5 -26t73.5 -7z" />
    <glyph glyph-name="uni4E60" unicode="&#x4e60;" 
d="M702 333l14 -70q-102 -36 -207.5 -72.5t-202 -69.5t-173.5 -59l-27 74q72 22 170 53.5t208 69t218 74.5zM234 562l50 48q44 -29 94 -65.5t96 -71.5t75 -63l-53 -57q-28 28 -72.5 65t-94.5 75t-95 69zM885 764v-42q-3 -196 -6 -330t-8.5 -218t-14.5 -129t-23 -64
q-16 -25 -35.5 -35t-47.5 -12q-28 -3 -72.5 -2t-87.5 3q0 16 -6.5 36t-17.5 35q53 -4 95.5 -4.5t62.5 -0.5q14 0 23.5 3t16.5 13q12 13 20 56t13 122.5t8 202t5 294.5h-688v72h763z" />
    <glyph glyph-name="uni4E61" unicode="&#x4e61;" 
d="M809 456l79 -27q-67 -151 -177.5 -249.5t-260 -158.5t-334.5 -94q-4 16 -17 39t-23 36q210 32 371 99t263 189q-141 -11 -235.5 -19t-153.5 -13.5t-91.5 -9.5t-49 -7t-27.5 -7q-2 11 -9.5 34.5t-15.5 39.5q28 4 63 20t84 42q31 15 95.5 54t143.5 93q-102 -8 -163 -13.5
t-94 -9t-47.5 -7t-23.5 -6.5q-3 12 -10.5 36t-14.5 40q19 2 39.5 14.5t47.5 31.5q15 10 43.5 32.5t64.5 54t74 68t71 75.5l69 -43q-61 -63 -127.5 -120.5t-133.5 -103.5l301 19q32 25 63.5 50.5t60.5 50.5l67 -49q-111 -92 -227 -169t-232 -137l419 30q13 22 25.5 46
t22.5 49z" />
    <glyph glyph-name="uni4E66" unicode="&#x4e66;" 
d="M948 671l-46 -56q-20 20 -51.5 45t-67 50.5t-67.5 46.5l44 49q32 -20 67.5 -44.5t67.5 -48t53 -42.5zM494 590v-195h231v195h-231zM798 395h144l-0.5 -13.5t-2.5 -21.5q-7 -99 -15.5 -161.5t-18.5 -97t-25 -49.5q-16 -16 -34 -22t-44 -8q-22 -1 -63.5 -0.5t-88.5 2.5
q-1 17 -7.5 36.5t-16.5 34.5q47 -4 89.5 -5t60.5 -1q15 0 24.5 1.5t17.5 8.5q14 13 25 64.5t20 160.5h-369v-400h-74v400h-356v71h356v195h-290v72h290v171h74v-171h304v-267z" />
    <glyph glyph-name="uni4E70" unicode="&#x4e70;" 
d="M807 527l-61 30q18 28 38.5 65.5t37.5 77.5h-707v71h732v1h14l12 4l54 -22q-26 -60 -58 -122t-62 -105zM459 538l-42 -57q-20 17 -53 37.5t-70 40t-71 33.5l40 50q34 -13 71 -31t70 -37t55 -36zM348 398l-42 -56q-20 17 -52.5 36t-69 37.5t-70.5 32.5l40 50
q33 -13 70 -30t70 -35.5t54 -34.5zM532 122l38 52q66 -28 132.5 -61t124.5 -66.5t100 -63.5l-47 -57q-41 31 -97 65t-120.5 68t-130.5 63zM563 302h371v-70h-392q-27 -78 -80 -138t-141.5 -102.5t-224.5 -70.5q-5 14 -16.5 32.5t-22.5 30.5q121 22 201 56.5t130 82t77 109.5
h-394v70h418q17 68 22 152t8 185h74q-3 -98 -8.5 -182t-21.5 -155z" />
    <glyph glyph-name="uni4E71" unicode="&#x4e71;" 
d="M450 53v204h-285v-204h285zM343 723v-164h220v-68h-220v-167h180v-375h-73v37h-285v-43h-70v381h175v167h-227v68h227v151q-47 -7 -95.5 -13t-94.5 -11q-2 13 -8 30.5t-13 29.5q76 9 156 21t151 27.5t120 33.5l57 -56q-43 -15 -93.5 -27t-106.5 -22zM726 6h117
q19 0 28 15.5t13.5 56.5t6.5 115q14 -10 32.5 -19.5t34.5 -13.5q-4 -82 -13.5 -131t-31.5 -70t-64 -21h-131q-42 0 -65.5 11t-33 39t-9.5 78v759h73v-760q0 -37 8 -48t35 -11z" />
    <glyph glyph-name="uni4E73" unicode="&#x4e73;" 
d="M561 272l1 -66q-51 -6 -103.5 -12t-103.5 -12v-179q0 -28 -7.5 -43.5t-28.5 -24.5q-22 -8 -55.5 -9.5t-85.5 -1.5q-3 15 -10 33.5t-13 32.5q37 -1 68.5 -1.5t41.5 0.5q11 1 14.5 4t3.5 12v170q-63 -7 -121 -13.5t-105 -11.5l-8 71q47 5 107 10t127 12v65q34 23 70 55
t67 64h-317v64h375l17 5l49 -38q-38 -46 -88.5 -92t-100.5 -82v-34q50 5 102.5 10.5t103.5 11.5zM236 524l-64 -27q-10 35 -31 83t-41 88l60 24q23 -40 44 -87.5t32 -80.5zM250 689l61 18q16 -40 32.5 -87.5t24.5 -81.5l-64 -23q-7 35 -23 84t-31 90zM453 504l-59 23
q17 27 35 63.5t34.5 74.5t27.5 69l71 -28q-25 -51 -54 -107.5t-55 -94.5zM521 838l51 -59q-62 -18 -143.5 -30.5t-168 -20.5t-167.5 -13q-1 13 -7.5 30.5t-12.5 30.5q79 5 163 13.5t159 21t126 27.5zM738 16h109q17 0 25.5 15.5t12.5 56t6 114.5q14 -10 32.5 -19.5
t33.5 -13.5q-3 -81 -12.5 -129t-31 -69t-61.5 -21h-123q-41 0 -63.5 11t-31.5 38t-9 75v736h73v-737q0 -37 7.5 -47t32.5 -10z" />
    <glyph glyph-name="uni4E86" unicode="&#x4e86;" 
d="M832 764l58 -43q-44 -48 -101.5 -97t-121 -93t-125.5 -78v-432q0 -38 -11.5 -57t-40.5 -27q-28 -9 -78.5 -11t-126.5 -2q-3 16 -12 37.5t-18 36.5q62 -2 114 -2t69 1q16 1 21.5 6t5.5 18v469q48 24 98 56t96.5 68.5t83.5 71.5h-643v73h714z" />
    <glyph glyph-name="uni4E88" unicode="&#x4e88;" 
d="M891 471l59 -28q-40 -65 -86.5 -131t-92.5 -112l-60 38q28 30 59 71.5t58 84.5h-284v-377q0 -34 -10.5 -52t-36.5 -26t-70.5 -10t-109.5 -2q-4 16 -12 36t-16 36q52 -2 96.5 -2t59.5 1q14 1 19 5t5 15v376h-412v71h518q-42 22 -92 45.5t-100.5 46t-95.5 41.5l38 55
q41 -16 88 -36t93 -40q47 27 98.5 63.5t91.5 73.5h-545v69h617l17 4l54 -41q-53 -53 -122.5 -106.5t-137.5 -96.5q31 -13 59 -27t49 -25l-17 -26h206z" />
    <glyph glyph-name="uni4E89" unicode="&#x4e89;" 
d="M751 218v116h-220v-116h220zM531 511v-109h220v109h-220zM618 689h-282q-24 -28 -51.5 -56.5t-58.5 -54.5h297q26 23 50.5 53t44.5 58zM958 402v-68h-134v-184h-293v-133q0 -36 -10.5 -53.5t-36.5 -26.5q-25 -9 -68.5 -11t-110.5 -1q-4 15 -12.5 35t-16.5 36
q54 -1 98 -1.5t57 0.5q14 1 19.5 5.5t5.5 17.5v132h-312v68h312v116h-410v68h410v109h-272v34q-26 -19 -50 -35q-10 12 -26 27.5t-30 23.5q98 59 168.5 134.5t107.5 142.5l80 -14q-10 -17 -21.5 -34.5t-24.5 -35.5h280l12 4l53 -36q-22 -36 -53.5 -73.5t-65.5 -70.5h210
v-176h134z" />
    <glyph glyph-name="uni4E8B" unicode="&#x4e8b;" 
d="M774 132v75h-240v-75h240zM534 336v-70h240v70h-240zM245 513h215v72h-215v-72zM758 585h-224v-72h224v72zM951 266v-59h-103v-177h-74v45h-240v-69q0 -34 -10.5 -50t-33.5 -24t-63.5 -10t-102.5 -2q-3 14 -10.5 32t-15.5 31q45 -1 84.5 -1h52.5q14 1 19.5 6t5.5 18v69
h-323v57h323v75h-409v59h409v70h-314v55h314v70h-286v176h286v58h-390v61h390v80h74v-80h398v-61h-398v-58h298v-176h-298v-70h314v-125h103z" />
    <glyph glyph-name="uni4E8E" unicode="&#x4e8e;" 
d="M943 440v-73h-395v-335q0 -40 -12 -60.5t-40 -29.5q-28 -10 -77.5 -12t-125.5 -2q-4 16 -13.5 38.5t-18.5 38.5q62 -1 113 -1.5t68 0.5q16 1 22.5 6.5t6.5 21.5v335h-413v73h413v252h-344v73h746v-73h-325v-252h395z" />
    <glyph glyph-name="uni4E8F" unicode="&#x4e8f;" 
d="M862 779v-70h-726v70h726zM939 473h-562q-10 -45 -20 -91.5t-21 -87.5h494l-3 -34q-9 -97 -18.5 -159t-21 -97t-28.5 -51q-19 -18 -40 -23.5t-53 -7.5q-28 -1 -80 -0.5t-109 4.5q-1 17 -9.5 36.5t-20.5 34.5q41 -3 81 -5t71 -2.5t46 -0.5q20 0 31 1.5t20 7.5q19 14 31 67
t22 160h-501v1h-11q15 50 30.5 117.5t26.5 129.5h-236v70h881v-70z" />
    <glyph glyph-name="uni4E91" unicode="&#x4e91;" 
d="M839 756v-75h-671v75h671zM942 401h-471q-50 -93 -108.5 -182t-118.5 -161l501 38q-30 47 -62.5 94t-62.5 88l66 35q42 -56 87 -119.5t83.5 -124t62.5 -106.5l-69 -42q-12 23 -27 50t-34 57q-164 -14 -274 -24t-178 -16t-106 -10.5t-56.5 -8.5t-30.5 -9q-4 14 -12 39.5
t-16 42.5q17 5 35 24t41 50q15 17 44.5 60t64.5 102t67 123h-309v75h883v-75z" />
    <glyph glyph-name="uni4E92" unicode="&#x4e92;" 
d="M297 263h364q8 59 14.5 113.5t11.5 100.5h-346q-11 -57 -22 -112t-22 -102zM705 32h243v-73h-892v73h572q6 38 12 78.5t12 82.5h-454q13 49 27.5 112t28.5 132.5t27 138.5t23 131h-215v72h829v-72h-535q-6 -38 -13.5 -78t-15.5 -82h348l14 4l55 -7q-5 -51 -12.5 -113.5
t-16.5 -131.5t-18.5 -137t-18.5 -130z" />
    <glyph glyph-name="uni4E94" unicode="&#x4e94;" 
d="M694 378h-251q-14 -89 -29.5 -174t-29.5 -153h279q6 53 11.5 111t10.5 114t9 102zM740 51h203v-73h-883v73h243q15 68 30.5 153t30.5 174h-186v73h198q18 112 32 215h-285v73h748v-73h-384q-7 -50 -15.5 -105t-17.5 -110h252l13 4l57 -6q-3 -55 -9 -123t-12.5 -139
t-14.5 -136z" />
    <glyph glyph-name="uni4E95" unicode="&#x4e95;" 
d="M360 321h281v237h-276v-112q0 -31 -1 -62.5t-4 -62.5zM937 321v-74h-220v-323h-76v323h-290q-16 -95 -64 -180t-149 -153q-10 12 -29 28.5t-34 25.5q91 58 135.5 128.5t60.5 150.5h-206v74h218q3 31 4 62.5t1 63.5v111h-192v73h192v201h77v-201h276v202h76v-202h197v-73
h-197v-237h220z" />
    <glyph glyph-name="uni4E9A" unicode="&#x4e9a;" 
d="M413 703v-649h161v649h-161zM653 54h298v-72h-902v72h285v649h-258v73h852v-73h-275v-649zM87 538l65 23q26 -53 53 -113.5t50 -117t36 -98.5l-70 -29q-12 42 -34 100t-48 120t-52 115zM749 208l-65 25q26 43 54 99.5t54 116t43 111.5l71 -24q-22 -56 -49 -115
t-54.5 -114t-53.5 -99z" />
    <glyph glyph-name="uni4E9B" unicode="&#x4e9b;" 
d="M838 333h-170q-47 0 -73 10t-36 34.5t-10 67.5v391h74v-198q63 23 122.5 49.5t99.5 51.5l59 -57q-58 -31 -132.5 -59t-148.5 -51v-127q0 -25 9.5 -33t43.5 -8h156q20 0 30 9.5t14.5 37.5t6.5 83q13 -10 33 -18t36 -13q-5 -66 -16 -103t-34 -52t-64 -15zM171 167v71h670
v-71h-670zM503 429l1 -67q-80 -11 -161 -21.5t-155 -20t-134 -16.5l-9 72l66 7v344h69v-336l88 11v434h73v-171h155v-68h-155v-186zM60 -52v73h881v-73h-881z" />
    <glyph glyph-name="uni4EA1" unicode="&#x4ea1;" 
d="M941 554h-662v-497h603v-74h-680v571h-143v73h445q-6 24 -18.5 56t-28 66.5t-32.5 63.5l75 25q26 -44 51 -96t35 -89l-75 -26h430v-73z" />
    <glyph glyph-name="uni4EA4" unicode="&#x4ea4;" 
d="M928 699v-73h-858v73h415q-10 26 -29 60t-37 63l69 24q21 -30 42.5 -66.5t31.5 -62.5l-45 -18h411zM618 554l57 43q46 -31 95 -69t92 -76.5t70 -70.5l-61 -48q-25 32 -67 71.5t-91 79t-95 70.5zM320 595l71 -28q-33 -42 -77 -84.5t-91.5 -80t-91.5 -66.5
q-10 11 -27.5 28.5t-29.5 27.5q44 25 89.5 58t86 70t70.5 75zM650 427l76 -21q-61 -151 -167 -253q77 -58 176 -97.5t219 -58.5q-12 -12 -25 -31.5t-21 -35.5q-124 24 -224.5 67.5t-180.5 107.5q-82 -65 -184.5 -109t-223.5 -75q-6 14 -20 34.5t-25 32.5q120 25 220.5 65.5
t178.5 100.5q-52 50 -92 112t-70 135l66 20q51 -128 150 -221q48 46 85 102.5t62 124.5z" />
    <glyph glyph-name="uni4EA6" unicode="&#x4ea6;" 
d="M575 694l-73 -28q-12 30 -35 73.5t-47 79.5l70 23q24 -34 49 -76t36 -72zM937 591h-262v-571q0 -35 -9.5 -53.5t-33.5 -27.5q-25 -9 -67 -11.5t-105 -2.5q-3 16 -10.5 37.5t-15.5 37.5q49 -1 89.5 -1.5t53.5 0.5q14 1 18.5 5t4.5 17v570h-167v-115q0 -66 -7.5 -138
t-32.5 -145.5t-75.5 -143.5t-136.5 -131q-9 13 -26 29.5t-30 25.5q81 56 128 119t69.5 129.5t29.5 131.5t7 123v115h-295v73h873v-73zM193 485l75 -14q-23 -90 -60.5 -172.5t-81.5 -139.5q-10 9 -30.5 22t-34.5 20q45 52 79 128t53 156zM723 460l64 26q33 -50 63.5 -108.5
t54.5 -114t36 -98.5l-70 -31q-11 43 -33.5 99.5t-52.5 116t-62 110.5z" />
    <glyph glyph-name="uni4EA7" unicode="&#x4ea7;" 
d="M899 716v-71h-786v71h374q-10 24 -27 51.5t-34 49.5l73 21q23 -28 44 -61.5t31 -58.5l-5 -2h330zM417 496l-68 -30q-11 29 -35 69.5t-49 74.5l64 26q26 -31 50.5 -71t37.5 -69zM925 463v-72h-721v-66q0 -59 -8 -132t-30 -145.5t-65 -131.5q-10 11 -30 28t-31 24
q39 54 58 117t24.5 126.5t5.5 115.5v136h478q21 35 44.5 83t36.5 85l80 -26q-20 -36 -42.5 -73t-43.5 -69h244z" />
    <glyph glyph-name="uni4EA9" unicode="&#x4ea9;" 
d="M463 453h-252v-163h252v163zM784 290v163h-248v-163h248zM536 49h248v172h-248v-172zM211 221v-172h252v172h-252zM138 -77v601h721v-597h-75v51h-573v-55h-73zM550 700h385v-72h-871v72h422q-13 27 -31 59t-35 60l70 23q22 -31 44.5 -69.5t32.5 -65.5z" />
    <glyph glyph-name="uni4EAB" unicode="&#x4eab;" 
d="M931 750v-65h-864v65h401q-7 20 -16.5 40.5t-18.5 38.5l74 15q12 -21 24 -46.5t20 -47.5h380zM266 566v-90h470v90h-470zM813 421h-620v200h620v-200zM943 180v-65h-406v-116q0 -31 -10.5 -46t-36.5 -23q-25 -7 -69.5 -8t-111.5 -1q-3 15 -10 32t-15 30q50 -1 94.5 -1.5
t57.5 0.5q14 1 19 5t5 14v114h-402v65h402v60q50 11 103.5 26t99.5 34h-512v61h630l16 4l50 -42q-64 -36 -145.5 -66.5t-164.5 -50.5v-26h406z" />
    <glyph glyph-name="uni4EAC" unicode="&#x4eac;" 
d="M238 204l71 -25q-37 -58 -91 -119t-107 -105q-10 10 -27 24t-28 22q34 27 68.5 62t64.5 71.5t49 69.5zM264 494v-160h478v160h-478zM819 268h-277v-259q0 -33 -9 -50t-35 -26q-25 -9 -69 -10.5t-110 -0.5q-3 16 -10 35.5t-15 35.5q51 -1 93 -1.5t55 0.5q14 0 18.5 4.5
t4.5 14.5v257h-274v291h628v-291zM683 168l61 37q32 -32 68 -70t67.5 -75t51.5 -65l-65 -44q-18 29 -48.5 67t-65.5 77.5t-69 72.5zM564 712h370v-73h-866v73h409q-13 26 -28.5 55t-32.5 54l70 22q21 -29 43 -65.5t35 -65.5z" />
    <glyph glyph-name="uni4EAD" unicode="&#x4ead;" 
d="M199 182v62h608v-62h-250v-172q0 -32 -10 -48.5t-37 -24.5t-72.5 -9.5t-115.5 -1.5q-3 16 -10 34.5t-15 33.5q54 -2 99 -2t58 1q14 1 19 5t5 14v170h-279zM76 197v178h851v-178h-70v119h-714v-119h-67zM728 493v84h-455v-84h455zM200 630h605v-191h-605v191zM562 752h377
v-64h-876v64h413q-11 18 -23.5 36t-25.5 34l71 20q17 -19 34.5 -44t29.5 -46z" />
    <glyph glyph-name="uni4EAE" unicode="&#x4eae;" 
d="M730 4h101q14 0 21 7.5t10 31t4 69.5q12 -8 32 -16t36 -11q-4 -57 -13.5 -88.5t-29 -44t-52.5 -12.5h-120q-63 0 -83.5 19.5t-20.5 73.5v145h-238q-9 -73 -35.5 -122.5t-83 -81t-156.5 -51.5q-4 14 -17 33t-24 29q77 13 124 32.5t72.5 48.5t35.5 72t12 103h387v-208
q0 -19 7 -24t31 -5zM81 202v166h836v-165h-73v105h-692v-106h-71zM726 484v86h-449v-86h449zM204 623h599v-192h-599v192zM564 743h371v-64h-872v64h417q-18 42 -44 83l73 17q16 -22 31.5 -50.5t23.5 -49.5z" />
    <glyph glyph-name="uni4EB2" unicode="&#x4eb2;" 
d="M879 713v-64h-744v64h337q-10 25 -23.5 53.5t-27.5 52.5l72 17q18 -28 35 -62t27 -61h324zM270 205l72 -22q-35 -63 -86 -122t-102 -100q-10 10 -28.5 24.5t-32.5 21.5q52 37 100 89t77 109zM641 171l61 37q34 -30 70.5 -66t68 -71.5t50.5 -64.5l-65 -43
q-18 29 -48.5 65.5t-66 74t-70.5 68.5zM927 413h-387v-104h371v-67h-371v-232q0 -32 -8 -48t-31 -25q-22 -8 -58.5 -10t-91.5 -2q-3 16 -9.5 35t-14.5 34q40 -1 74.5 -1.5t44.5 0.5q11 0 15 4t4 14v231h-369v67h369v104h-391v66h245q-10 32 -28 71.5t-38 71.5l67 17
q23 -35 44 -77.5t29 -72.5l-30 -10h232q20 37 41.5 80.5t34.5 78.5l76 -16q-18 -35 -37 -72.5t-39 -70.5h256v-66z" />
    <glyph glyph-name="uni4EBF" unicode="&#x4ebf;" 
d="M282 834l70 -22q-19 -50 -43.5 -101t-51.5 -99v-687h-72v572q-25 -37 -52.5 -70.5t-55.5 -62.5q-6 14 -19 37.5t-23 36.5q49 48 95 111.5t85 136.5t67 148zM537 40l259 -1q27 0 41 15t20.5 58.5t8.5 127.5q14 -8 33 -15t35 -10q-4 -78 -13 -127t-24.5 -75t-40.5 -35.5
t-63 -9.5h-251q-88 0 -129.5 31.5t-41.5 85.5q0 16 3.5 34t15.5 44.5t38 66.5t70.5 98.5t112 140.5t163.5 193h-383v71h458l18 3l47 -26q-2 -3 -5 -6l-6 -6q-108 -122 -185 -211.5t-127.5 -152.5t-80 -104.5t-44 -67.5t-18.5 -41.5t-4 -27.5q0 -28 25.5 -40.5t67.5 -12.5z
" />
    <glyph glyph-name="uni4EC0" unicode="&#x4ec0;" 
d="M292 833l70 -22q-42 -107 -98 -204v-682h-73v566q-26 -37 -53.5 -71t-55.5 -63q-6 13 -19 36.5t-23 36.5q50 49 97 113.5t87 138.5t68 151zM951 493v-73h-269v-497h-75v497h-279v73h279v333h75v-333h269z" />
    <glyph glyph-name="uni4EC0" unicode="&#xf9fd;" 
d="M292 833l70 -22q-42 -107 -98 -204v-682h-73v566q-26 -37 -53.5 -71t-55.5 -63q-6 13 -19 36.5t-23 36.5q50 49 97 113.5t87 138.5t68 151zM951 493v-73h-269v-497h-75v497h-279v73h279v333h75v-333h269z" />
    <glyph glyph-name="uni4EC1" unicode="&#x4ec1;" 
d="M906 668v-77h-517v77h517zM296 834l73 -23q-22 -56 -49 -111.5t-58 -108.5v-666h-73v553q-25 -34 -51.5 -65t-52.5 -58q-6 13 -20.5 36.5t-25.5 36.5q52 49 100 114t88.5 139.5t68.5 152.5zM333 73h616v-77h-616v77z" />
    <glyph glyph-name="uni4EC5" unicode="&#x4ec5;" 
d="M296 830l73 -23q-22 -55 -49 -109t-58 -105v-668h-73v558q-27 -37 -55.5 -70.5t-58.5 -62.5q-7 14 -21 37.5t-25 36.5q54 49 103.5 113.5t91.5 139.5t72 153zM825 657h-353q26 -119 68 -224t102 -191q63 82 109.5 185.5t73.5 229.5zM861 731l48 -17q-28 -169 -85.5 -301
t-135.5 -230q56 -65 125 -114.5t154 -80.5q-13 -10 -26.5 -28t-21.5 -32q-85 34 -154 84.5t-125 115.5q-64 -69 -138.5 -119t-157.5 -85q-7 14 -20 32.5t-24 28.5q81 30 155.5 80.5t138.5 120.5q-67 95 -114 213t-79 255l14 3h-50v70h483z" />
    <glyph glyph-name="uni4EC6" unicode="&#x4ec6;" 
d="M291 833l73 -23q-42 -109 -100 -213v-673h-75v551q-26 -37 -54 -71.5t-57 -65.5q-6 14 -19.5 38.5t-24.5 38.5q52 51 99.5 117.5t88 143.5t69.5 157zM541 -74v898h78v-898h-78zM626 513l52 52q44 -38 95.5 -83t98 -88.5t76.5 -75.5l-55 -62q-28 34 -74 78.5t-97 91.5
t-96 87z" />
    <glyph glyph-name="uni4EC7" unicode="&#x4ec7;" 
d="M269 834l70 -21q-19 -55 -44.5 -109t-53.5 -107v-674h-73v553q-21 -31 -43 -58.5t-44 -52.5q-6 13 -19.5 36.5t-23.5 36.5q47 48 90 111.5t79 136.5t62 148zM826 5h34q16 0 24 5q9 7 12 31q2 15 3 46.5t1 74.5q26 -23 61 -33q-1 -37 -3.5 -76.5t-7.5 -56.5
q-4 -18 -11.5 -28.5t-18.5 -18.5q-11 -7 -26 -9.5t-29 -2.5h-56q-16 0 -32.5 4.5t-28.5 14.5q-8 8 -13 18t-7.5 30.5t-2.5 58.5v469h-167q-7 -129 -29.5 -243.5t-72 -208t-137.5 -160.5q-8 14 -24.5 30t-30.5 24q82 60 127.5 144.5t66.5 189.5t27 224h-172v72h174
q2 56 2 114v117h74q0 -59 -0.5 -117t-2.5 -114h239v-546q0 -41 8 -48q8 -5 19 -5z" />
    <glyph glyph-name="uni4ECA" unicode="&#x4eca;" 
d="M785 347l13 5l57 -28q-41 -56 -95 -125.5t-112 -141.5t-111 -137l-76 35q43 49 89 105t90.5 111.5t80.5 101.5h-558v74h622zM633 419l-53 -52q-20 22 -52 51t-68.5 58.5t-68.5 54.5l50 45q32 -23 69 -51t70 -56t53 -50zM495 843l70 -34q-4 -7 -9 -14l-10 -14
q50 -58 120 -115.5t147.5 -106t147.5 -79.5q-15 -11 -31 -31t-27 -35q-65 33 -137 82.5t-140 109t-123 120.5q-81 -97 -188 -179.5t-220 -138.5q-10 15 -25 33t-32 31q90 41 175.5 99t158.5 127.5t123 144.5z" />
    <glyph glyph-name="uni4ECB" unicode="&#x4ecb;" 
d="M280 317v127h76v-128q0 -50 -7 -102.5t-29 -104t-66.5 -99t-119.5 -88.5q-9 13 -27.5 29t-32.5 25q70 36 111 78t61.5 86.5t27 89.5t6.5 87zM652 -79v524h76v-524h-76zM499 842l59 -40q-4 -7 -8 -13t-8 -13q46 -61 114.5 -118.5t150.5 -102.5t166 -70q-13 -11 -28 -31.5
t-25 -36.5q-79 28 -156 73.5t-144.5 104.5t-119.5 125q-53 -67 -121 -127.5t-144.5 -108.5t-155.5 -79q-7 16 -19.5 36t-25.5 34q70 23 138.5 61.5t130.5 87.5t112 104.5t84 113.5z" />
    <glyph glyph-name="uni4ECD" unicode="&#x4ecd;" 
d="M232 831l68 -20q-16 -50 -35.5 -100.5t-42.5 -97.5v-690h-71v557q-19 -32 -40 -62t-42 -56q-5 14 -18 38t-23 38q42 48 79.5 111t69.5 135.5t55 146.5zM740 479h177v-13.5t-1 -20.5q-8 -160 -16.5 -258.5t-20 -149.5t-29.5 -71q-15 -18 -32 -25.5t-43 -9.5
q-23 -2 -62.5 -1.5t-85.5 3.5q-1 17 -7 37t-17 35q47 -4 86.5 -5t56.5 -1q14 0 23.5 2.5t17.5 10.5q14 13 23.5 56t17.5 126t15 217h-190q15 56 31.5 133.5t29.5 151.5h-198q-2 -103 -10 -211t-28.5 -212t-61.5 -194.5t-109 -158.5q-10 13 -26.5 27.5t-31.5 22.5
q65 61 103 146t56.5 183t25 200t7.5 197h-116v69h473q-13 -68 -28.5 -144.5t-29.5 -141.5z" />
    <glyph glyph-name="uni4ECE" unicode="&#x4ece;" 
d="M511 217l-56 -53q-23 48 -64 113t-86 125q-24 -148 -68.5 -267t-120.5 -210q-10 10 -33.5 26t-38.5 25q82 87 127 212.5t65 283t28 341.5l80 -3q-4 -83 -10.5 -161t-14.5 -150q37 -44 74 -95t68 -99.5t50 -87.5zM645 815l80 -4q-6 -89 -14 -170.5t-20 -156.5
q14 -63 35.5 -131t53 -134t74.5 -122t100 -95q-11 -10 -28 -30.5t-26 -35.5q-60 47 -106 112.5t-78 139.5t-54 146q-31 -127 -83.5 -228t-135.5 -178q-10 10 -33.5 26.5t-38.5 25.5q100 83 155.5 205.5t81.5 280.5t37 349z" />
    <glyph glyph-name="uni4ED3" unicode="&#x4ed3;" 
d="M496 838l70 -31q-5 -8 -11 -17t-12 -17q88 -105 194.5 -177.5t228.5 -129.5q-14 -12 -28 -29t-22 -34q-119 62 -221.5 136t-191.5 179q-53 -67 -118 -126t-136 -109h512l-0.5 -13t-0.5 -21q-4 -86 -9 -140t-11.5 -83t-17.5 -42q-13 -14 -29.5 -20t-38.5 -7
q-21 -2 -58.5 -1.5t-78.5 2.5q-1 15 -5.5 33.5t-12.5 32.5q41 -4 76 -5t48 -1q26 0 36 10q9 11 15 52.5t10 132.5h-376v-334q0 -23 7.5 -35.5t29 -17t63.5 -4.5h287q38 0 56.5 11.5t26.5 43.5t12 96q14 -10 36 -18.5t39 -12.5q-7 -76 -22.5 -118t-49 -58.5t-96.5 -16.5h-290
q-67 0 -105.5 10.5t-54 38.5t-15.5 80v393q-34 -22 -70 -43t-73 -38q-9 14 -23.5 32t-29.5 31q92 41 179 100t159.5 131.5t121.5 153.5z" />
    <glyph glyph-name="uni4ED4" unicode="&#x4ed4;" 
d="M269 836l70 -22q-44 -118 -105 -228v-663h-71v549q-20 -28 -41.5 -55t-42.5 -50q-6 13 -19.5 36.5t-22.5 35.5q46 49 89 112.5t80 136t63 148.5zM956 406v-72h-282v-312q0 -36 -10 -55t-36 -27q-25 -9 -70 -11t-112 -2q-3 16 -10.5 37.5t-15.5 37.5q53 -1 97.5 -2t59.5 0
q14 1 18.5 5.5t4.5 17.5v311h-286v72h286v144q50 27 104 66.5t95 79.5h-423v70h490l15 4l51 -37q-50 -58 -120 -115.5t-138 -99.5v-112h282z" />
    <glyph glyph-name="uni4ED6" unicode="&#x4ed6;" 
d="M269 833l68 -21q-21 -54 -46.5 -107.5t-54.5 -104.5v-675h-73v561q-46 -66 -99 -120q-6 12 -19 35t-23 35q49 48 95 111.5t85 136.5t67 149zM556 4h255q31 0 46.5 11.5t22.5 43t11 90.5q14 -10 33.5 -18.5t35.5 -12.5q-6 -68 -19.5 -108t-42.5 -56.5t-84 -16.5h-261
q-59 0 -93 11.5t-47.5 41.5t-13.5 84v325l-97 -38l-29 65l126 49v263h73v-234l146 57v274h71v-248l155 60l10 9l13 11l51 -21l-3 -13q0 -90 -1 -165t-3.5 -127.5t-7.5 -73.5q-6 -34 -21.5 -50.5t-38.5 -22.5q-20 -5 -49 -6.5t-52 -0.5q-1 17 -6 37t-12 33q20 -1 43 -1.5
t33 -0.5q14 0 22 5.5t12 24.5q6 20 8 95.5t3 192.5l-156 -61v-367h-71v339l-146 -58v-352q0 -28 6 -43.5t24.5 -21t53.5 -5.5z" />
    <glyph glyph-name="uni4ED7" unicode="&#x4ed7;" 
d="M296 830l72 -23q-45 -108 -106 -209v-673h-73v563q-28 -38 -58 -73t-62 -64q-5 13 -19.5 36.5t-25.5 36.5q54 49 105 113.5t94 139.5t73 153zM734 555v-5q0 -65 -7 -133t-28 -135.5t-64 -131.5q61 -60 143.5 -100.5t188.5 -61.5q-12 -13 -25.5 -32t-21.5 -35
q-105 25 -186.5 67.5t-144.5 102.5q-41 -46 -100 -89t-139 -81q-7 13 -23 31.5t-29 29.5q82 37 140.5 79.5t98.5 88.5q-50 65 -86 144t-61 176l68 14q20 -79 50.5 -148t73.5 -126q51 83 64.5 170.5t13.5 169.5v5h-332v71h332v206h74v-206h221v-71h-221z" />
    <glyph glyph-name="uni4ED8" unicode="&#x4ed8;" 
d="M296 830l73 -23q-22 -56 -48.5 -111t-57.5 -107v-663h-74v548q-24 -34 -49.5 -64.5t-51.5 -56.5q-7 13 -21 36.5t-25 36.5q51 49 98.5 113.5t87.5 139t68 151.5zM951 615v-74h-127v-516q0 -42 -12.5 -62t-40.5 -28q-29 -9 -81 -11t-133 -1q-3 14 -12 36t-17 37
q42 -1 81 -2t68 -0.5t41 0.5q17 2 24 8t7 23v516h-403v74h403v210h75v-210h127zM623 194l-69 -37q-15 31 -39.5 74t-52 89t-53.5 86l64 30q26 -38 54.5 -83t54 -86.5t41.5 -72.5z" />
    <glyph glyph-name="uni4ED9" unicode="&#x4ed9;" 
d="M268 835l70 -21q-21 -55 -45.5 -110t-53.5 -107v-673h-71v557q-43 -63 -91 -115q-5 13 -18.5 36.5t-23.5 35.5q47 49 90 112.5t80 136.5t63 148zM841 610h73v-685h-73v61h-479v620h73v-550h163v764h74v-764h169v554z" />
    <glyph glyph-name="uni4EE3" unicode="&#x4ee3;" 
d="M931 655l-58 -40q-16 23 -42.5 51.5t-57.5 58.5t-61 54l54 36q30 -23 61.5 -52t59 -57t44.5 -51zM314 825l70 -22q-22 -52 -49 -102.5t-58 -99.5v-676h-75v569q-32 -42 -65.5 -78.5t-68.5 -68.5q-6 14 -19.5 36.5t-23.5 35.5q57 49 111 113.5t100 139.5t78 153zM950 503
l-302 -38q17 -132 45 -232.5t68 -158.5t93 -63q22 -1 35 42.5t20 129.5q11 -10 31 -22t31 -17q-11 -85 -27.5 -133.5t-38.5 -68t-48 -18.5q-82 6 -137.5 73t-90.5 184.5t-54 273.5l-240 -30l-10 70l242 30q-6 70 -11 144t-8 152h74q2 -76 7 -148t12 -138l299 38z" />
    <glyph glyph-name="uni4EE4" unicode="&#x4ee4;" 
d="M798 382l54 -34q-37 -39 -83.5 -86.5t-96.5 -97.5t-98 -97q32 -23 60.5 -45.5t50.5 -41.5l-57 -62q-34 33 -88 75t-115.5 83.5t-116.5 75.5l53 53q35 -20 74 -45t78 -51q51 49 103 101t95 96h-541v72h615zM608 451l-56 -48q-15 22 -40 49.5t-54 55t-57 49.5l53 42
q27 -21 57 -47.5t56 -53t41 -47.5zM509 840l68 -36q-7 -8 -13.5 -16.5t-13.5 -17.5q52 -53 123 -106t148.5 -96.5t147.5 -70.5q-13 -12 -29 -32t-26 -35q-66 31 -140 76.5t-144 100.5t-126 112q-85 -89 -192.5 -164t-219.5 -127q-9 14 -23.5 31.5t-29.5 30.5
q90 38 178.5 92.5t164.5 120.5t127 137z" />
    <glyph glyph-name="uni4EE5" unicode="&#x4ee5;" 
d="M592 511l-67 -39q-14 32 -38 73.5t-53.5 85t-58.5 79.5l63 33q30 -35 59.5 -76.5t54.5 -82t40 -73.5zM242 166l232 108q2 -16 8.5 -36.5t10.5 -33.5q-108 -52 -173 -84t-100 -50t-51 -28.5t-25 -18.5q-4 13 -17.5 32t-23.5 29q11 6 25 18.5t24.5 30.5t10.5 41v585h79
v-593zM962 -26l-64 -48q-20 32 -52 72.5t-71 83t-79 82.5q-49 -79 -120.5 -139.5t-172.5 -107.5q-7 12 -24.5 32.5t-30.5 31.5q120 48 196.5 119.5t120.5 170.5t65 229.5t30 296.5l78 -4q-10 -178 -33.5 -317t-73.5 -246q43 -41 87 -87t82 -90t62 -79z" />
    <glyph glyph-name="uni4EEA" unicode="&#x4eea;" 
d="M715 615l-63 -36q-9 27 -27 62.5t-40 73t-44 69.5l59 29q23 -31 45.5 -67t41 -70.5t28.5 -60.5zM269 833l70 -22q-22 -55 -48 -108.5t-55 -105.5v-671h-71v561q-24 -34 -49.5 -65t-51.5 -58q-5 13 -18 36.5t-24 35.5q49 48 95 111.5t85 136.5t67 149zM837 779l73 -13
q-31 -174 -84 -322.5t-148 -265.5q56 -64 126.5 -111.5t158.5 -79.5q-13 -11 -29 -30.5t-24 -34.5q-88 35 -158.5 84.5t-126.5 112.5q-59 -59 -135 -108.5t-172 -87.5q-7 12 -20.5 29t-24.5 28q98 37 173.5 85.5t133.5 109.5q-81 112 -131.5 257.5t-82.5 321.5l71 9
q26 -157 73 -291t122 -238q86 110 132 248t73 297z" />
    <glyph glyph-name="uni4EEC" unicode="&#x4eec;" 
d="M228 831l68 -19q-15 -54 -34.5 -108t-41.5 -105v-675h-72v531q-33 -58 -69 -105q-3 8 -10 22.5t-15 29t-15 22.5q59 76 108 184t81 223zM340 -77v713h72v-713h-72zM381 805l58 31q22 -30 45 -65t43 -68t31 -58l-61 -35q-10 25 -29 59t-41.5 70t-45.5 66zM918 800v-782
q0 -34 -9 -52t-31 -27t-61 -11t-98 -2q-2 14 -9 35t-15 36q43 -2 79.5 -2t48.5 1q13 1 17.5 5.5t4.5 17.5v713h-270v68h343z" />
    <glyph glyph-name="uni4EF0" unicode="&#x4ef0;" 
d="M242 837l68 -20q-16 -50 -35.5 -100.5t-42.5 -99.5v-694h-72v559q-21 -35 -43 -66.5t-45 -59.5q-5 12 -18 36.5t-21 38.5q43 50 81.5 115t71.5 139.5t56 151.5zM561 815l52 -55q-43 -19 -96.5 -37.5t-105.5 -32.5v-507l158 54q1 -14 3.5 -32t4.5 -29
q-72 -28 -115.5 -45.5t-67.5 -28t-35.5 -17t-18.5 -12.5q-4 11 -15.5 28t-20.5 26q12 8 25.5 27.5t13.5 53.5v522q59 17 119.5 40t98.5 45zM921 726v-548q0 -29 -7.5 -46.5t-27.5 -27.5q-19 -9 -52 -11t-84 -2q-1 15 -8.5 35.5t-15.5 35.5q37 -1 66.5 -1h39.5q17 0 17 18
v481h-163v-737h-71v803h306z" />
    <glyph glyph-name="uni4EF6" unicode="&#x4ef6;" 
d="M270 833l70 -22q-21 -55 -45.5 -109.5t-53.5 -106.5v-670h-71v555q-22 -32 -45.5 -61.5t-46.5 -55.5q-5 14 -18.5 37t-23.5 36q47 49 90.5 112.5t80.5 136.5t63 148zM948 341v-73h-271v-345h-74v345h-285v73h285v219h-157q-16 -43 -34 -81.5t-38 -70.5q-10 8 -30 19.5
t-34 18.5q44 62 75 153t48 188l70 -15q-7 -35 -15 -70t-18 -69h133v191h74v-191h228v-73h-228v-219h271z" />
    </font>
</defs>
</svg>
